<?xml version="1.0" encoding="UTF-8" standalone="no"?>
<!-- Generator: Adobe Illustrator 23.0.1, SVG Export Plug-In . SVG Version: 6.00 Build 0)  -->

<svg
   xmlns:dc="http://purl.org/dc/elements/1.1/"
   xmlns:cc="http://creativecommons.org/ns#"
   xmlns:rdf="http://www.w3.org/1999/02/22-rdf-syntax-ns#"
   xmlns:svg="http://www.w3.org/2000/svg"
   xmlns="http://www.w3.org/2000/svg"
   xmlns:sodipodi="http://sodipodi.sourceforge.net/DTD/sodipodi-0.dtd"
   xmlns:inkscape="http://www.inkscape.org/namespaces/inkscape"
   version="1.1"
   id="svg2"
   x="0px"
   y="0px"
   viewBox="0 0 238.4 250"
   enable-background="new 0 0 238.4 250"
   xml:space="preserve"
   sodipodi:docname="EuroAlbania.svg"
   inkscape:version="0.92.3 (2405546, 2018-03-11)"><metadata
   id="metadata15"><rdf:RDF><cc:Work
       rdf:about=""><dc:format>image/svg+xml</dc:format><dc:type
         rdf:resource="http://purl.org/dc/dcmitype/StillImage" /></cc:Work></rdf:RDF></metadata><defs
   id="defs13" /><sodipodi:namedview
   pagecolor="#ffffff"
   bordercolor="#666666"
   borderopacity="1"
   objecttolerance="10"
   gridtolerance="10"
   guidetolerance="10"
   inkscape:pageopacity="0"
   inkscape:pageshadow="2"
   inkscape:window-width="1920"
   inkscape:window-height="1001"
   id="namedview11"
   showgrid="false"
   inkscape:zoom="1.888"
   inkscape:cx="59.167648"
   inkscape:cy="160.93943"
   inkscape:window-x="-9"
   inkscape:window-y="-9"
   inkscape:window-maximized="1"
   inkscape:current-layer="g8" />
<g
   id="g8">
	<path
   fill="#FF0000"
   d="M175.2,9.2c-33.3,0-60.3,38.9-63.1,51.6c-2.8,12.7-9.6,6.5-11.2-1.2c-1.6-7.8-13-25.3-36-25.3   c-16.5,0-46.7,18.2-47.4,76.3c-0.8,70,78.2,102.1,89.2,124.3c12.3-36.7,106.1-94.7,108.6-167.5C216.2,40.6,205.7,9.2,175.2,9.2z"
   id="path2" />
	<path
   fill="#220000"
   d="M65.9,157.1c-1.8-0.2-3.2,0.8-3.7,2.4c1.3-0.3,2.6-0.9,3.5-0.5c0.7,1.3,2.7,1.1,4,0c2-0.3,5.8-0.7,6.7-0.8   c-1.3,0.9-2.9,2-3.6,2.6c-3.1-0.3-4.7,1.1-4.5,3.3c-0.7,1.2-0.7,2.8,0.2,3.5c0.2-1,0.7-2.2,1.4-3c1.9,0.2,3.2-0.6,3.8-2.7   c1.2-0.9,2.7-2.1,3.4-2.5c0.6-0.5,1.1-1,2.5-0.5c1.4,0.5,2.7,0.9,3.5,1.2c0.5,1.8,2.2,1.7,3.4,0.7c0.7,0.3,1.3,1,1.8,1.7   c0.7-1.3,0.3-2.8-1-3.1c-0.5-1.4-2.1-1.6-3.3-0.8c-1-0.3-2.4-0.8-3-1c2-0.9,7.2-3.4,9-4.4c1.7,1.1,3.6,2.2,5,1.7   c0.2-1.3,0.8-2.4,1.7-4.2c1.4-3,3.1-5.8,4.5-7.6c1.4-1.8,2.8-1,2.7,1.3c-0.2,5.5-4.3,14.1-10.2,15c-2,0.3-2.8,0.8-1.7,2.2   c1,1.3,4.3,1.1,6-0.4c1.8-1.5,2.4-1.5,2,0.3c-0.4,1.8-2.4,2.7-3.9,3c-2.2,0.4-4.7,1.4-2.6,3.1c2,1.7,5.3,0.3,7.8-2.8   c0.8-1.1,1.5-1.4,1.5,0.2c-0.1,2.7-1.7,4.6-3.4,5.1c-1.7,0.5-3.3,1.2-2.9,2.1c0.8,1.5,3.4,1.5,4.8,0.6c1.5-0.9,3-2.6,3.3-3.5   c0.3-0.9,0.9-0.5,0.8,0.8c-0.4,2.6-2.2,2.8-2.2,4.9c0,2.1,1.8,4,3.8,6.1c2.1-2.6,3.8-4.8,3.8-7c0-2.1-1.8-1.9-2.2-4.4   c-0.2-1.2,0.5-1.8,0.8-0.9c0.3,0.9,1.9,2.1,3.3,2.8c1.5,0.6,4,0.1,4.8-1.6c0.5-1-1.2-1.3-2.9-1.5c-1.7-0.2-3.3-1.7-3.4-4.4   c-0.1-1.6,0.6-1.3,1.5-0.5c2.4,2.5,5.8,3.2,7.8,1.2c2-2.1-0.5-2.6-2.6-2.5c-1.5,0.1-3.5-0.4-3.9-2.1c-0.4-1.7,0.3-1.9,2-0.7   c1.8,1.1,5,0.6,6-0.9c1.1-1.6,0.3-2-1.7-1.8c-5.9,0.3-9.9-7.4-10.2-12.9c-0.1-2.2,1.3-3.3,2.7-1.8c1.4,1.5,3.1,4,4.5,6.6   c0.9,1.7,1.5,2.6,1.7,3.9c1.4,0.2,3.3-1.2,5-2.7c1.8,0.6,6.9,2,9,2.5c-0.6,0.3-2,1.1-3,1.7c-1.2-0.5-2.9,0.1-3.3,1.5   c-1.3,0.6-1.7,2.2-1,3.3c0.4-0.8,1-1.6,1.8-2.1c1.1,0.7,2.9,0.4,3.4-1.4c0.8-0.6,2.1-1.2,3.5-2c1.4-0.8,1.9-0.4,2.5,0   c0.6,0.4,2.2,1.2,3.4,1.8c0.6,2,1.9,2.5,3.8,1.9c0.7,0.6,1.2,1.7,1.5,2.7c0.9-0.8,0.9-2.4,0.2-3.5c0.2-2.3-1.5-3.3-4.5-2.3   c-0.8-0.4-2.3-1.2-3.6-1.8c0.9-0.1,4.7-0.4,6.7-0.6c1.3,0.8,3.3,0.6,4-0.8c0.9-0.6,2.1-0.2,3.5-0.2c-0.5-1.5-1.9-2.2-3.7-1.6   c-1.1-0.9-2.5-0.7-4,0.9c-1.6,0.3-3.7,0.7-6.7,1.1c0.9-0.7,2.3-1.8,3.8-2.9c1.4,0.3,2.9-0.4,3.3-1.5c1-1,2.2-0.9,3.6-0.8   c-0.2-2.2-1.9-2.3-4.3-1.1c-1.4-0.6-3.6,0.4-3.9,2.2c-0.9,1.4-2.8,2.4-4.9,4c-2.6-0.8-6-1.6-9.2-2.9c0.7-0.8,1.4-1.7,2.2-2.6   c-5.2-2.1-9.1-4.3-10.9-9.8c-0.6-1.8,0.5-1.5,0.9-0.4c0.9,2.1,2.2,3.4,4.4,4.2c1.5,0.5,2.4-1.3,1.3-2.2c-1.1-0.9-2.2-2.6-2.2-4.7   c0-1.5,1.7-1.5,2-0.7c2.5,6.5,5.5,10.8,8.1,9.4c2.6-1.4,1.4-2.8,0-3.3c-2.6-1-4.1-4.8-4.3-6.8c-0.2-2,1.1-2.1,1.9-0.6   c0.8,1.5,3.1,4.2,6.8,8c3.7,3.8,8.9,4.2,11.8,1.4c2.5-2.5,0.1-3.6-2.4-2.7c-4.8,1.7-9.7-2.7-12.6-10c-0.5-1.1,0.4-1.4,0.9-0.8   c6.6,7.5,12.2,7.6,15.3,4.5c1.1-1.1,2.4-4.3-2.7-2.8c-5.5,1.7-8.9-2.2-12.8-7.5c-1.7-2.4-0.2-2.6,1.4-1.2c1.6,1.3,3.9,2.9,6.5,4.1   c2.6,1.3,7.8,0.5,8.5-2.7c0.7-3.2-1.7-2.8-4.2-1.7c-4.4,1.9-7.7-0.8-10.8-4.1c-1.4-1.5-0.8-2.5,0.4-2.1c1.2,0.4,4.2,1.5,6.1,2.4   c1.9,0.8,6.1,1.1,8.1-1.9c2-3-1.1-4.3-3.7-2.3c-2.5,2.1-8.8,1.1-11.2-1.9c-2.4-3,0.3-2.6,1.8-2c3.8,1.6,8.6,1.3,12.7-2.1   c1.9-1.5,1.6-2.5,0.9-3.5c-0.4-0.6-1.6-0.6-3.2,0.5c-5.5,3.9-9.8,3.7-13.1-0.5c-1.3-1.7,0.3-2,1.8-1.4c6.4,2.4,12.9-0.2,14.8-5   c0.9-2.2-1.1-4.5-3.2-1.5c-2.7,3.8-7,4.3-11.4,4.2c-2.1-0.1-2.1-2.8,0.1-3.3c4.8-1.1,12.4-5.1,14.7-9.2c1.9-3.4-1.9-6.8-3.9-2.8   c-2,4.1-6.3,7-10.9,9c-1.6,0.7-2.2,0.7-2.3,0.2c-0.1-0.7-0.6-2-1.1-1.5c-1.3,0.9-6,3-8.2,4c-2.3,1.1-3.3,3.3-3.2,5.2   c0.1,1.9,0.6,5.2-2.7,5.6c-5.4,0.6-3.1-8.4,0.1-11.4c2.5-2.3,5.1-3.6,7.2-3.7c2-0.2,4.4-1.2,4.7-3.1c0.5-0.2,1.4-0.5,2.4-0.6   c0.7-0.1,2.1-1,2.8-1.6c0.7-0.7,1.5-1.7,0.8-2.2c-0.7-0.5-1.7,0.6-2.2,1.4c-0.4,0.8-1.3,1.5-1.8,1.6c-0.7,0.1-1.8,0.5-2.5,0.7   c-0.6,0.2-1.6,0.2-1.9-0.1c-0.5-0.6,0.1-1,0.7-1.3c0.8-0.4,1.6-0.4,1.9,0.1c0.2,0.3,0.5,0.6,1,0.6c0.6-3.5-2.7-3-5.5-2.6   c-1.7-2.5-6-0.2-8.9,1.5c-1.4,0.5-3.8,0.6-5,0.2c-1.2-0.4-1.1,0.2-0.7,0.8c0.4,0.5,1.9,1.4,2.5,1.5c0.6,0.1,0.4,0.4,0.2,0.7   c-0.7,0.9-2.1,1.8-2.8,2c-0.7,0.2-0.9,0.5-0.5,0.7c0.4,0.2,0.9,0.5,1.4,0.6c0.5,0.1,0.5,0.3,0.2,0.8c-0.6,0.9-2.3,2-2.9,1.9   c-0.6,0-0.6,0.3-0.4,0.5c0.2,0.2,1,0.5,1.4,0.5c0.4,0,0.4,0,0.1,0.5c-0.4,0.5-1.2,1.6-2,1.5c-1-0.2-1.3,0.1-1,0.5   c0.7,0.9,0.7,1.4-0.8,1.8l0,0c-1.5-0.1-1.5-0.5-0.8-1.6c0.3-0.5,0.1-0.7-1-0.3c-0.7,0.3-1.6-0.6-2-1.1c-0.3-0.4-0.3-0.5,0.1-0.5   c0.4,0,1.2-0.5,1.4-0.8c0.2-0.3,0.2-0.6-0.4-0.4c-0.6,0.2-2.3-0.5-2.9-1.3c-0.3-0.4-0.4-0.6,0.2-0.8c0.5-0.2,1-0.6,1.4-0.9   c0.4-0.3,0.2-0.6-0.5-0.6c-0.7,0-2.1-0.7-2.8-1.4c-0.2-0.2-0.4-0.5,0.2-0.7c0.6-0.2,2.1-1.4,2.5-2c0.4-0.6,0.5-1.2-0.7-0.6   c-1.2,0.6-3.6,1.1-5,0.9c-3-1.1-7.3-2.5-8.9,0.4c-2.8,0.1-6.2,0.3-5.5,3.8c0.6-0.1,0.9-0.5,1-0.8c0.2-0.5,1.1-0.7,1.9-0.5   c0.7,0.2,1.2,0.5,0.7,1.1c-0.3,0.3-1.3,0.6-1.9,0.5C83.7,90,82.5,90,81.9,90c-0.5,0-1.3-0.5-1.8-1.2c-0.4-0.8-1.5-1.6-2.2-1   c-0.7,0.6,0.1,1.5,0.8,2c0.7,0.5,2,1.1,2.8,1.1c1-0.1,1.9,0,2.4,0.1c0.2,1.8,2.6,2.4,4.7,2.1c2-0.3,4.7,0.4,7.2,2.2   c3.2,2.3,5.4,10.8,0,11.4c-3.4,0.4-2.8-3.1-2.7-5c0.1-1.9-0.9-3.9-3.2-4.5c-2.3-0.6-6.9-1.7-8.2-2.3c-0.5-0.3-1.1,1-1.1,1.8   c-0.1,0.5-0.6,0.6-2.3,0.3c-4.7-1-8.9-3-10.9-6.6c-2-3.6-5.8,0.6-3.9,3.6c2.3,3.7,9.9,6,14.7,6.1c2.2,0.1,2.2,2.7,0.1,3.3   c-4.4,1.1-8.7,1.5-11.4-1.8c-2.1-2.5-4.1,0.2-3.2,2.2c1.9,4.4,8.4,5.6,14.8,1.9c1.5-0.9,3.1-0.9,1.8,1c-3.3,4.9-7.6,6-13.1,3.3   c-1.6-0.8-2.9-0.5-3.2,0.1c-0.6,1.2-0.9,2.2,0.9,3.3c4.1,2.5,8.8,1.8,12.7-0.6c1.5-0.9,4.3-1.9,1.8,1.6c-2.4,3.5-8.7,5.8-11.2,4.2   c-2.5-1.6-5.7,0.4-3.7,3c2,2.6,6.2,1.4,8.1,0.2c1.9-1.2,4.9-3,6.1-3.7c1.2-0.7,1.8,0.2,0.4,2c-3.2,4-6.4,7.4-10.8,6.4   c-2.5-0.6-4.9-0.4-4.2,2.6c0.7,3,5.9,2.7,8.5,0.9c2.6-1.8,4.9-3.8,6.5-5.5c1.6-1.7,3.1-1.8,1.4,0.9c-3.9,6.1-7.2,10.7-12.8,10.2   c-5.1-0.4-3.9,2.5-2.7,3.4c3.2,2.4,8.7,1.1,15.3-7.7c0.5-0.7,1.4-0.6,0.9,0.6c-3,7.9-7.9,13.4-12.6,12.7c-2.5-0.4-4.9,1.3-2.4,3.2   c2.9,2.2,8,0.7,11.8-3.8c3.7-4.6,6-7.8,6.8-9.4c0.8-1.6,2.1-1.8,1.9,0.2c-0.2,2-1.7,6.2-4.3,7.7c-1.4,0.8-2.6,2.5,0,3.3   c2.6,0.9,5.7-4.1,8.1-11.1c0.3-0.8,2-1.2,2,0.3c-0.1,2.1-1.1,4-2.2,5.2c-1.1,1.2-0.2,2.8,1.3,1.9c2.2-1.2,3.6-2.8,4.4-5.1   c0.5-1.2,1.5-1.8,0.9,0.2c-1.8,5.8-5.7,8.9-10.9,12.1c0.8,0.7,1.5,1.5,2.2,2.1c-3.2,2-6.5,3.4-9.2,4.8c-2.1-1.2-4-1.8-4.9-3   c-0.3-1.8-2.5-2.3-3.9-1.4c-2.4-0.7-4.1-0.3-4.3,2c1.4-0.4,2.6-0.7,3.6,0.1c0.5,1,1.9,1.4,3.3,0.8c1.6,0.8,2.9,1.6,3.8,2.1   c-3,0.2-5.1,0.3-6.7,0.3C68.4,155.8,67,156,65.9,157.1z M121,84.8c0.9-0.5,1.8-0.8,2.5-0.5c0.7,0.2,0.9,0.9,0.1,1.3   c-0.8,0.3-1.9,0.5-2.5,0.4C120.5,85.9,120.3,85.3,121,84.8z M93.4,88.9c-0.6,0.2-1.7,0.3-2.5,0.2c-0.8-0.2-0.7-0.9,0.1-1.3   c0.7-0.4,1.7-0.3,2.5,0C94.2,88,94,88.7,93.4,88.9z"
   id="path4" />
	<path
   fill="#1D1D1B"
   d="M181.4,0c-25.5,0-55.7,18.8-74,50.2C102.5,38.9,84.9,26.5,64,26.5c-16.8,0-64,21-64,88.9   C0,203,88.6,221,106.5,248.2c1.2,1.9,5.2,3.3,6.7-1.2c14.3-42.2,125.1-89.8,125.1-175.7C238.4,23.2,206.9,0,181.4,0z M24.2,111.4   C24.8,57.1,53,40.2,68.4,40.2c21.5,0,30.3,16.4,31.8,23.6c1.4,7.2,9.6,13,12.2,1.2c2.6-11.9,27.9-48.1,58.9-48.1   c28.4,0,38.3,29.3,37.4,54.2c-2.3,67.9-89.7,122-101.3,156.2C97.1,206.6,23.5,176.6,24.2,111.4z"
   id="path6"
   style="fill:#000000;fill-opacity:1" />
</g>
</svg>