<?xml version="1.0" encoding="UTF-8" standalone="no"?>
<!-- Generator: Adobe Illustrator 23.0.1, SVG Export Plug-In . SVG Version: 6.00 Build 0)  -->

<svg
   xmlns:dc="http://purl.org/dc/elements/1.1/"
   xmlns:cc="http://creativecommons.org/ns#"
   xmlns:rdf="http://www.w3.org/1999/02/22-rdf-syntax-ns#"
   xmlns:svg="http://www.w3.org/2000/svg"
   xmlns="http://www.w3.org/2000/svg"
   xmlns:sodipodi="http://sodipodi.sourceforge.net/DTD/sodipodi-0.dtd"
   xmlns:inkscape="http://www.inkscape.org/namespaces/inkscape"
   version="1.1"
   id="svg2"
   x="0px"
   y="0px"
   viewBox="0 0 238.4 250"
   enable-background="new 0 0 238.4 250"
   xml:space="preserve"
   sodipodi:docname="EuroArmenia.svg"
   inkscape:version="0.92.3 (2405546, 2018-03-11)"><metadata
   id="metadata16"><rdf:RDF><cc:Work
       rdf:about=""><dc:format>image/svg+xml</dc:format><dc:type
         rdf:resource="http://purl.org/dc/dcmitype/StillImage" /><dc:title></dc:title></cc:Work></rdf:RDF></metadata><defs
   id="defs14">
	
	
	
	
</defs>
<sodipodi:namedview
   bordercolor="#666666"
   borderopacity="1"
   gridtolerance="10"
   guidetolerance="10"
   id="namedview14"
   inkscape:current-layer="svg2"
   inkscape:cx="120.9318"
   inkscape:cy="133.533"
   inkscape:pageopacity="0"
   inkscape:pageshadow="2"
   inkscape:window-height="1001"
   inkscape:window-maximized="1"
   inkscape:window-width="1920"
   inkscape:window-x="-9"
   inkscape:window-y="-9"
   inkscape:zoom="2.8284271"
   objecttolerance="10"
   pagecolor="#ffffff"
   showgrid="false">
	</sodipodi:namedview>
<g
   id="g863"><path
     sodipodi:nodetypes="cccc"
     d="m 108.38942,238.18364 c 6.5,-19.4 46.17499,-60.14133 72.17499,-91.34133 L 30.186553,157.79328 c 22.3,31.2 71.202867,66.19036 78.202867,80.39036 z"
     id="path3"
     inkscape:connector-curvature="0"
     style="fill:#f29400;fill-opacity:1" /><path
     sodipodi:nodetypes="sccscccs"
     d="m 181.42403,12.842313 c -31,0 -71.47114,33.991349 -74.07114,45.791349 -2.6,11.9 -4.76347,-0.166338 -6.26347,-7.466338 -1.399998,-7.3 -13.927878,-18.652891 -35.427878,-18.652891 -13.5,0 -46.464411,35.856701 -52.364411,75.756697 l 203.248049,2.44805 c 0.1,-1.4 4.15769,-29.744191 4.25769,-31.144191 0.9,-24.9 -10.87884,-66.732676 -39.37884,-66.732676 z"
     id="path5"
     inkscape:connector-curvature="0"
     style="fill:#e2001a;fill-opacity:1" /><path
     sodipodi:nodetypes="cccccc"
     d="m 25.35,93.23125 c -0.8,5.5 -1.3,11.6 -1.4,18.2 -0.2,20.6 7,37.7 17.2,52 l 129.77578,-12.61953 c 30.34384,-15.02071 35.18359,-47.92344 37.58359,-75.623439 z"
     id="path7"
     inkscape:connector-curvature="0"
     style="fill:#00519e;fill-opacity:1" /><path
     d="M 181.4,0 C 155.9,0 125.7,18.8 107.4,50.2 102.5,38.9 84.9,26.5 64,26.5 47.2,26.5 0,47.5 0,115.4 0,203 88.6,221 106.5,248.2 c 1.2,1.9 5.2,3.3 6.7,-1.2 C 127.5,204.8 238.3,157.2 238.3,71.3 238.4,23.2 206.9,0 181.4,0 Z M 24.2,111.4 C 24.8,57.1 53,40.2 68.4,40.2 c 21.5,0 30.3,16.4 31.8,23.6 1.4,7.2 9.6,13 12.2,1.2 2.6,-11.9 27.9,-48.1 58.9,-48.1 28.4,0 38.3,29.3 37.4,54.2 C 206.4,139 119,193.1 107.4,227.3 97.1,206.6 23.5,176.6 24.2,111.4 Z"
     id="path9"
     inkscape:connector-curvature="0"
     style="fill:#000000;fill-opacity:1" /></g>
</svg>