<?xml version="1.0" encoding="utf-8"?>
<!-- Generator: Adobe Illustrator 23.0.1, SVG Export Plug-In . SVG Version: 6.00 Build 0)  -->
<svg version="1.1" id="Livello_1" xmlns="http://www.w3.org/2000/svg" xmlns:xlink="http://www.w3.org/1999/xlink" x="0px" y="0px"
	 viewBox="0 0 238.4 250" enable-background="new 0 0 238.4 250" xml:space="preserve">
<g>
	<path fill-rule="evenodd" clip-rule="evenodd" fill="#00247D" d="M122,56.6l0,12.1l-0.1,4l-26,4c0.9,0.6,25.7,9.3,26.1,9.4l0,2.3
		l0,4.1c-0.1,0.5,0.1,0.2-0.3,0.4l-12.8,1.8c-1,0-13-4.5-14.4-5c-1.4-0.5-21.9-8-22.8-8.1c0,2.8,0.3,16.9-0.1,18.4l-3.8,0.5
		l-12.2,1.7l-3.8,0.5c-0.4-1.4-0.1-15.6-0.1-18.3c-1.2,0.4-8.2,5.1-9.9,6.2l-19.8,12.7c-1.7,1.1-3.3,2.1-5,3.2
		c-2.6,1.7-1.8,1.3-4.7,1.7c-0.2,0-0.6,0.1-0.9,0.1l-0.6,0c0-0.1-0.1,0-0.1,0c-0.3,0.4-8.9,1.4-9.3,1.5l25.1,56.9l80.5,67.1
		l104.6-93.1L211,19.6l-44.5-8.3l-44.6,21.1l0,6.5c-0.1,0.5-2.7,2-3.3,2.3c-1.1,0.7-3.4,2.2-6.2,4c-1.5,1-3.1,5.4-4.7,6.5
		c-0.7,0.5-1.5-2.5-2.2-2.1c-5.2,3.3-9.8,6.3-10.1,6.7l26.5-3.7L122,56.6L122,56.6z"/>
	<polygon fill-rule="evenodd" clip-rule="evenodd" fill="#CF142B" points="11,72.2 10.3,84.4 55.1,78.1 55.5,78 55.4,102.2 
		67.6,100.5 67.6,76.3 122,68.7 122,56.6 67.6,64.3 67.6,40.1 55.5,41.8 55.5,66 55.8,65.9 11,72.2 	"/>
	<path fill-rule="evenodd" clip-rule="evenodd" fill="#FEFEFE" d="M67.6,100.5l3.8-0.5c0.4-1.5,0.1-15.6,0.1-18.4
		c0.9,0.1,21.4,7.6,22.8,8.1c1.4,0.5,13.5,5,14.4,5l12.8-1.8c-0.6-0.5-9.1-3.4-9.9-3.7l-27.2-9.8c-0.7-0.3-2-0.6-2.5-1.1
		c2.3-0.4,4.6-0.7,6.9-1c2.5-0.4,3.4,0.4,5.3,1.1l18.5,6.6c1.5,0.5,3,1.1,4.6,1.6c1.4,0.5,3.3,1.3,4.7,1.6l0-2.3
		c-0.5-0.1-25.2-8.8-26.1-9.4l26-4l0.1-4l-54.4,7.6L67.6,100.5L67.6,100.5z"/>
	<path fill-rule="evenodd" clip-rule="evenodd" fill="#FEFEFE" d="M16.6,59.6v2.2c1.8,0.4,10.7,3.7,11,4l-10.4,1.5v4l38.6-5.4
		l-0.3,0V41.8l-4,0.6l-0.1,18.4l-19-6.8l-13.5,1.9c0.6,0.4,8.6,3.2,10,3.7c3.1,1.1,11.6,4,12.2,4.5c-2.3,0.4-4.7,0.7-7,1
		c-1.8,0.3-1.5,0.3-2.9-0.2l-9.9-3.5C20,60.7,17.9,59.8,16.6,59.6L16.6,59.6z"/>
	<path fill-rule="evenodd" clip-rule="evenodd" fill="#FEFEFE" d="M8.2,88.8l19-2.4c0,0-0.1,0.1-0.1,0.1c-1.2,1-25.7,16.5-26,16.6
		v6.8c1.7-0.9,4-2.5,5.8-3.7l28.7-18.4c1.2-0.8,4.8-3.3,5.7-3.6c1-0.4,7.3-1.1,8.7-1.3c0,0-0.1,0-0.1,0.1c0,0.1-0.1,0.1-0.1,0.1
		l-9.6,6.2c-3.4,2.2-6.6,4.2-9.9,6.4c-6.7,4.3-13.2,8.6-20,12.8c0,0,0.1,0,0.1,0l0.6,0c0.2,0,0.6-0.1,0.9-0.1c2.8-0.4,2,0,4.7-1.7
		c1.7-1.1,3.3-2.1,5-3.2l19.8-12.7c1.7-1.1,8.7-5.8,9.9-6.2c0,2.8-0.3,16.9,0.1,18.3l3.8-0.5L55.5,78l-0.4,0.1L8.2,84.8V88.8
		L8.2,88.8z"/>
	<path fill-rule="evenodd" clip-rule="evenodd" fill="#FEFEFE" d="M122,56.6l0-4l-26.5,3.7c0.6-0.7,0.1-0.1,3.9-2.6
		c0.6-0.4,3.1-1.8,3.3-2.3l0-6.5l-0.1,0c-0.7,0.7-2.2,1.4-3.6,2.3c-3.9,2.5-7.6,4.9-11.5,7.4c-7,4.5-5,3.8-14.4,4.8
		c1.2-1.2,25.2-15.8,26.3-16.9l-4.5,0.6L71.6,57.9l0-18.4l-4,0.6v24.2L122,56.6L122,56.6z"/>
	<path fill-rule="evenodd" clip-rule="evenodd" fill="#FEFEFE" d="M58,126.1l-10.4-2.5c0.3,0.8,2.4,3.5,3,4.4c0.7,0.9,2.7,3.4,3,4.3
		c-1.1,0.6-9,6.4-9.6,7.1l11.2-0.6l-1.5,11.3c1.5-1.2,2.7-3.1,3.9-4.5l2.8-3.4c0.4-0.4,0.7-0.7,1-1.2c1.1,0.4,6.4,6,7.9,6.8
		L67.8,137l11.2-2.5c-0.6-0.5-8.5-4.1-9.6-4.4c0.5-1.5,5.6-9,6.1-10.3l-10.4,5.4c-0.5-0.9-2.9-8.5-3.5-10.2
		c-0.4,0.6-1.5,4.5-1.8,5.6C59.3,122,58.6,124.8,58,126.1L58,126.1z"/>
	<polygon fill-rule="evenodd" clip-rule="evenodd" fill="#002776" points="51.5,42.3 28.1,52.3 51.4,60.7 51.5,42.3 	"/>
	<polygon fill-rule="evenodd" clip-rule="evenodd" fill="#002776" points="97.2,41.4 71.6,39.5 71.6,57.9 97.2,41.4 	"/>
	<path fill-rule="evenodd" clip-rule="evenodd" fill="#CF142B" d="M102.5,44.9l-9,1.3c-1.1,1.1-19.5,12.1-20.6,13.3
		c9.4-1,7.4-0.3,14.4-4.8c3.9-2.5,7.6-4.9,11.5-7.4C100.2,46.4,101.9,45.6,102.5,44.9L102.5,44.9z"/>
	<path fill-rule="evenodd" clip-rule="evenodd" fill="#CF142B" d="M1.1,109.8L1.1,109.8c0.4,0,9-1,9.3-1.5c6.7-4.2,13.3-8.5,20-12.8
		c3.3-2.2,6.6-4.2,9.9-6.4l9.6-6.2c0,0,0.1,0,0.1-0.1c0-0.1,0.1-0.1,0.1-0.1c-1.4,0.1-7.8,0.9-8.7,1.3c-1,0.4-4.5,2.9-5.7,3.6
		L6.8,106.2C5.1,107.3,2.8,109,1.1,109.8L1.1,109.8z"/>
	<path fill-rule="evenodd" clip-rule="evenodd" fill="#002776" d="M2.7,102.8c0.3-0.1,23.2-15.3,24.4-16.3c0,0,0.1-0.1,0.1-0.1
		L6.5,89L2.7,102.8L2.7,102.8z"/>
	<path fill-rule="evenodd" clip-rule="evenodd" fill="#CF142B" d="M19.8,60.7c1.3,0.2,3.4,1.2,4.6,1.6l6.7,2.5
		c1.4,0.5,1.1,0.5,2.9,0.2c2.3-0.3,4.7-0.6,7-1c-0.6-0.5-8-3.1-11.2-4.2c-1.4-0.5-9.4-3.2-10-3.7l-0.2,0V60.7L19.8,60.7z"/>
	<path fill-rule="evenodd" clip-rule="evenodd" fill="#CF142B" d="M121.6,92.9c0.4-0.2,0.2,0.1,0.3-0.4l0-4.1
		c-1.4-0.3-3.3-1.1-4.7-1.6c-1.5-0.6-3-1.1-4.6-1.6l-18.5-6.6c-1.9-0.7-2.8-1.4-5.3-1.1c-2.3,0.3-4.6,0.6-6.9,1
		c0.4,0.5,1.8,0.8,2.5,1.1l27.2,9.8C112.5,89.5,121.1,92.4,121.6,92.9L121.6,92.9z"/>
	<path fill-rule="evenodd" clip-rule="evenodd" fill="#FEFEFE" d="M207,61.7l-4.9-1.1c0.6,1.4,2.1,2.7,2.8,4
		c-0.8,0.9-3.9,2.7-4.4,3.4l5.2-0.3l-0.7,5.3c0.6-0.6,1.4-1.4,1.9-2.1c0.6-0.7,1.1-1.7,1.9-2.2c0.6,0.6,2.7,2.9,3.6,3.2l-0.7-5.1
		l5.2-1.2c-0.4-0.5-3.6-1.6-4.4-2.2l2.8-4.8l-5,2.5l-1.6-4.7c-0.3,0.5-0.3,0.5-0.5,1.2L207,61.7L207,61.7z"/>
	<path fill-rule="evenodd" clip-rule="evenodd" fill="#FEFEFE" d="M149.9,77.8l-4.9-1.1l2.8,4l-0.5,0.5c-1,0.8-3.2,2.2-3.9,3
		l5.2-0.3l-0.7,5.3c0.8-0.7,3-3.7,3.8-4.3c1,0.6,2.6,2.8,3.6,3.1l-0.7-5.1l5.2-1.2c-0.5-0.7-3.7-1.5-4.4-2.2
		c0.7-1.5,2.2-3.2,2.7-4.7l-4.8,2.4c-0.5-0.6-1.4-3.8-1.6-4.6c-0.4,0.4-0.4,0.6-0.6,1.2L149.9,77.8L149.9,77.8z"/>
	<path fill-rule="evenodd" clip-rule="evenodd" fill="#FEFEFE" d="M176.3,117.6c-1.2-0.1-4.1-1.1-5-1c0.3,0.3,2.6,3.4,2.8,4
		c-0.5,0.5-2.5,1.9-3.3,2.5c-1,0.7-0.8,0.5-1,1l5.1-0.3l-0.7,5.3l3.6-4.2c0.5,0.1,3.2,2.7,3.8,3.2l-0.6-5.1l5.1-1.2
		c-0.1-0.3,0-0.2-0.9-0.6c-0.8-0.4-2.9-1.2-3.4-1.6c0.3-0.6,2.5-4.4,2.8-4.8c-0.9,0.2-3.8,2-5,2.4c-0.4-0.9-1.3-4.3-1.8-4.7
		L176.3,117.6L176.3,117.6z"/>
	<path fill-rule="evenodd" clip-rule="evenodd" fill="#FEFEFE" d="M179.5,40.8l-4.9-1.1c0.7,1.4,2.3,2.9,2.8,4.2L173,47
		c0.5,0.3,1.9,0.1,2.6,0c0.8,0,1.7-0.1,2.6-0.1l-0.7,5.3c1.4-0.9,2.2-3.2,3.8-4.2l3.6,3.1c-0.1-1.2-0.7-4.2-0.6-5.1l5.1-1.4
		l-4.4-1.9c0.5-1.4,2.1-3.3,2.8-4.9l-5,2.5l-1.6-4.8L179.5,40.8L179.5,40.8z"/>
	<path fill-rule="evenodd" clip-rule="evenodd" fill="#FEFEFE" d="M189.9,86.8c0.7,0.8,1.7,1.2,2.4,1.9l-0.7,3.4
		c0.8-0.4,2.5-1.9,2.9-2c0.4-0.1,2.2,1,2.9,1.2l-0.7-3.2c0.6-0.6,2.1-1.9,2.5-2.6l-3.2,0.2c-0.7-0.8-0.7-2.2-1.5-2.8
		C193,87.4,193.2,85.8,189.9,86.8L189.9,86.8z"/>
	<path fill-rule="evenodd" clip-rule="evenodd" fill="#1D1D1B" d="M24.2,111.4C24.8,57.1,53,40.2,68.4,40.2
		c21.5,0,30.3,16.4,31.8,23.6c1.4,7.2,9.6,13,12.2,1.2c2.6-11.9,27.9-48.1,58.9-48.1c28.4,0,38.3,29.3,37.4,54.2
		c-2.3,67.9-89.7,122-101.3,156.2C97.1,206.6,23.5,176.6,24.2,111.4L24.2,111.4z M181.4,0c-25.5,0-55.7,18.8-74,50.2
		C102.5,38.9,84.9,26.5,64,26.5c-16.8,0-64,21-64,88.9C0,203,88.6,221,106.5,248.2c1.2,1.9,5.2,3.3,6.7-1.2
		c14.3-42.2,125.1-89.8,125.1-175.7C238.4,23.2,206.9,0,181.4,0L181.4,0z"/>
</g>
</svg>
