<?xml version="1.0" encoding="UTF-8" standalone="no"?>
<!-- Generator: Adobe Illustrator 23.0.1, SVG Export Plug-In . SVG Version: 6.00 Build 0)  -->

<svg
   version="1.1"
   id="Livello_1"
   x="0px"
   y="0px"
   viewBox="0 0 238.4 250"
   enable-background="new 0 0 238.4 250"
   xml:space="preserve"
   sodipodi:docname="EuroBosnia-Herzegovina.svg"
   inkscape:version="1.2.1 (9c6d41e410, 2022-07-14)"
   xmlns:inkscape="http://www.inkscape.org/namespaces/inkscape"
   xmlns:sodipodi="http://sodipodi.sourceforge.net/DTD/sodipodi-0.dtd"
   xmlns="http://www.w3.org/2000/svg"
   xmlns:svg="http://www.w3.org/2000/svg"
   xmlns:rdf="http://www.w3.org/1999/02/22-rdf-syntax-ns#"
   xmlns:cc="http://creativecommons.org/ns#"
   xmlns:dc="http://purl.org/dc/elements/1.1/"><metadata
   id="metadata31"><rdf:RDF><cc:Work
       rdf:about=""><dc:format>image/svg+xml</dc:format><dc:type
         rdf:resource="http://purl.org/dc/dcmitype/StillImage" /></cc:Work></rdf:RDF></metadata><defs
   id="defs29">
	
	
<filter
   x="-0.097267591"
   y="-0.092737315"
   width="1.1945352"
   height="1.1854746"
   filterUnits="objectBoundingBox"
   id="a"><feOffset
     in="SourceAlpha"
     result="shadowOffsetOuter1"
     id="feOffset3240" /><feGaussianBlur
     stdDeviation="5"
     in="shadowOffsetOuter1"
     result="shadowBlurOuter1"
     id="feGaussianBlur3242" /><feColorMatrix
     values="0 0 0 0 0 0 0 0 0 0 0 0 0 0 0 0 0 0 0.266191123 0"
     in="shadowBlurOuter1"
     id="feColorMatrix3244" /></filter><filter
   x="-0.09726759"
   y="-0.092737317"
   width="1.1945353"
   height="1.1854746"
   filterUnits="objectBoundingBox"
   id="filter3778"><feOffset
     in="SourceAlpha"
     result="shadowOffsetOuter1"
     id="feOffset3772" /><feGaussianBlur
     stdDeviation="5"
     in="shadowOffsetOuter1"
     result="shadowBlurOuter1"
     id="feGaussianBlur3774" /><feColorMatrix
     values="0 0 0 0 0 0 0 0 0 0 0 0 0 0 0 0 0 0 0.266191123 0"
     in="shadowBlurOuter1"
     id="feColorMatrix3776" /></filter><path
   d="m 12.934,58.283 c 0.314,-28.067 14.92,-36.851 22.874,-36.851 11.108,0 15.696,8.48 16.446,12.235 0.75,3.752 4.954,6.753 6.305,0.6 1.352,-6.155 14.421,-24.92 30.481,-24.92 14.71,0 19.804,15.17 19.364,28.072 C 107.2,72.542 61.951,100.575 55.995,118.277 50.692,107.555 12.56,92.059 12.934,58.283 Z m 81.36,-57.64 c -13.209,0 -28.832,9.756 -38.287,25.97 -2.552,-5.857 -11.642,-12.237 -22.448,-12.237 -8.708,0 -33.15,10.883 -33.15,46.009 0,45.33 45.863,54.643 55.135,68.731 0.637,0.97 2.69,1.7 3.473,-0.615 C 66.415,106.668 123.78,82 123.78,37.57 123.78,12.652 107.504,0.644 94.295,0.644 Z"
   id="b" /></defs><sodipodi:namedview
   pagecolor="#ffffff"
   bordercolor="#666666"
   borderopacity="1"
   objecttolerance="10"
   gridtolerance="10"
   guidetolerance="10"
   inkscape:pageopacity="0"
   inkscape:pageshadow="2"
   inkscape:window-width="3840"
   inkscape:window-height="2036"
   id="namedview27"
   showgrid="false"
   inkscape:zoom="2"
   inkscape:cx="65.25"
   inkscape:cy="-53"
   inkscape:window-x="-12"
   inkscape:window-y="-12"
   inkscape:window-maximized="1"
   inkscape:current-layer="Livello_1"
   inkscape:showpageshadow="2"
   inkscape:pagecheckerboard="0"
   inkscape:deskcolor="#d1d1d1" />
<g
   id="g860"><g
     transform="matrix(1.006088,0,0,1.0047221,-0.5532424,-0.72980432)"
     id="g20">
		<path
   d="M 21.689313,72.889328 C 22.139035,74.11027 28.878138,78.32764 28.3,80.5 L 41,79.2 45.2,65.6 49.4,78.3 63.1,76.9 52,86.2 56.2,98.9 45.1,92 34,101.1 38.2,87.5 28,81.1 15.797845,117.89797 54.123737,197.09217 108.93894,238.07388 139.8,184.9 l 1.5,-4.8 -11.1,-6.9 13.8,-1.5 4.2,-13.6 4.2,12.7 0.7,-0.1 8.18885,-4.76823 L 164.9,157.6 45.5,50.4 Z M 122.5,135.1 l 4.2,12.7 13.7,-1.4 -11.1,9.3 4.2,12.7 -11.1,-6.9 -11.1,9.2 4.2,-13.6 -11.1,-6.9 13.7,-1.4 z m -25.8,-23.2 4.2,12.7 13.8,-1.5 -11.1,9.3 4.2,12.7 -11.1,-6.9 -11.1,9.2 4.3,-13.6 -11.1,-6.9 13.7,-1.4 z m -25.8,-23.2 4.2,12.7 13.7,-1.5 -11.1,9.3 4.2,12.7 -11,-6.9 -11.1,9.2 4.3,-13.6 -11.1,-6.9 13.8,-1.5 z"
   id="path2"
   inkscape:connector-curvature="0"
   style="fill:#002299"
   sodipodi:nodetypes="ccccccccccccccccccccccccccccccccccccccccccccccccccccccccccc" />
		
		<path
   d="M 34,101.1 45.1,91.9 56.2,98.8 52,86.1 63.1,76.8 49.4,78.2 45.2,65.5 41,79.1 28.3,80.4 c -0.1,0.2 -0.1,0.4 -0.2,0.7 l 10.2,6.4 z"
   id="path6"
   inkscape:connector-curvature="0"
   style="fill:#ffffff" />
		<polygon
   points="70.9,88.7 66.7,102.3 52.9,103.8 64.1,110.7 59.8,124.3 70.9,115 82.1,121.9 77.8,109.2 88.9,100 75.2,101.4 "
   id="polygon8"
   style="fill:#ffffff" />
		<polygon
   points="96.7,111.9 92.5,125.5 78.7,126.9 89.8,133.9 85.6,147.4 96.7,138.2 107.8,145.1 103.6,132.4 114.7,123.1 100.9,124.6 "
   id="polygon10"
   style="fill:#ffffff" />
		<polygon
   points="122.5,135.1 118.2,148.6 104.5,150.1 115.6,157 111.3,170.6 122.5,161.3 133.6,168.2 129.4,155.6 140.4,146.3 126.7,147.7 "
   id="polygon12"
   style="fill:#ffffff" />
		<path
   d="m 148.2,158.2 -4.2,13.6 -13.8,1.5 11.1,6.9 -1.5,4.8 c 4.3,-4.5 8.8,-9.3 13.3,-14.1 l -0.7,0.1 z"
   id="path14"
   inkscape:connector-curvature="0"
   style="fill:#ffffff" />
		<path
   d="M 165,157.8 213.32141,108.85875 211.85483,21.792875 163.74538,9.3108368 129.63198,31.09759 106.87128,61.560575 94.941432,45.754667 66.14759,35.405476 45.4,50.4 Z"
   id="path16"
   inkscape:connector-curvature="0"
   style="fill:#ffcc00"
   sodipodi:nodetypes="cccccccccc" />
		
	</g><path
     d="M 181.4,0 C 155.9,0 125.7,18.8 107.4,50.2 102.5,38.9 84.9,26.5 64,26.5 47.2,26.5 0,47.5 0,115.4 0,203 88.6,221 106.5,248.2 c 1.2,1.9 5.2,3.3 6.7,-1.2 C 127.5,204.8 238.3,157.2 238.3,71.3 238.4,23.2 206.9,0 181.4,0 Z M 24.2,111.4 C 24.8,57.1 53,40.2 68.4,40.2 c 21.5,0 30.3,16.4 31.8,23.6 1.4,7.2 9.6,13 12.2,1.2 2.6,-11.9 27.9,-48.1 58.9,-48.1 28.4,0 38.3,29.3 37.4,54.2 C 206.4,139 119,193.1 107.4,227.3 97.1,206.6 23.5,176.6 24.2,111.4 Z"
     id="path22"
     inkscape:connector-curvature="0"
     style="fill:#000000;fill-opacity:1"
     sodipodi:nodetypes="scsscccscsccsccc" /></g>
</svg>
