<?xml version="1.0" encoding="utf-8"?>
<!-- Generator: Adobe Illustrator 23.0.1, SVG Export Plug-In . SVG Version: 6.00 Build 0)  -->
<svg version="1.1" id="Livello_1" xmlns="http://www.w3.org/2000/svg" xmlns:xlink="http://www.w3.org/1999/xlink" x="0px" y="0px"
	 viewBox="0 0 238.4 250" enable-background="new 0 0 238.4 250" xml:space="preserve">
<g>
	<path fill="#FFEE44" d="M112.3,65c-2.6,11.9-10.7,6.1-12.2-1.2c-1.1-5.5-6.5-16.2-18.4-21.1v160.4c12.1,9.7,22.2,17.4,25.6,24.2
		c4.7-13.9,22-31.2,41-51.3V23.2C128.6,34.1,114.3,56.2,112.3,65z"/>
	<path fill="#111111" d="M82.7,203.8V43.1c-4-1.8-8.7-2.9-14.3-2.9c-15.4,0-43.6,17-44.2,71.2C23.7,155.8,57.7,183.9,82.7,203.8z"/>
	<path fill="#EE2233" d="M171.2,16.8c-8.2,0-16,2.6-23.1,6.5v152.9c27.7-29.3,59.2-64.8,60.5-105.2
		C209.5,46.1,199.7,16.8,171.2,16.8z"/>
	<path d="M181.4,0c-25.5,0-55.7,18.8-74,50.2C102.5,38.9,84.9,26.5,64,26.5c-16.8,0-64,21-64,88.9C0,203,88.6,221,106.5,248.2
		c1.2,1.9,5.2,3.3,6.7-1.2c14.3-42.2,125.1-89.8,125.1-175.7C238.4,23.2,206.9,0,181.4,0z M24.2,111.4C24.8,57.1,53,40.2,68.4,40.2
		c21.5,0,30.3,16.4,31.8,23.6c1.4,7.2,9.6,13,12.2,1.2c2.6-11.9,27.9-48.1,58.9-48.1c28.4,0,38.3,29.3,37.4,54.2
		c-2.3,67.9-89.7,122-101.3,156.2C97.1,206.6,23.5,176.6,24.2,111.4z"/>
</g>
</svg>
