<?xml version="1.0" encoding="utf-8"?>
<!-- Generator: Adobe Illustrator 23.0.1, SVG Export Plug-In . SVG Version: 6.00 Build 0)  -->
<svg version="1.1"
	 id="svg2" xmlns:cc="http://creativecommons.org/ns#" xmlns:dc="http://purl.org/dc/elements/1.1/" xmlns:inkscape="http://www.inkscape.org/namespaces/inkscape" xmlns:rdf="http://www.w3.org/1999/02/22-rdf-syntax-ns#" xmlns:sodipodi="http://sodipodi.sourceforge.net/DTD/sodipodi-0.dtd" xmlns:svg="http://www.w3.org/2000/svg"
	 xmlns="http://www.w3.org/2000/svg" xmlns:xlink="http://www.w3.org/1999/xlink" x="0px" y="0px" viewBox="0 0 238.4 250"
	 enable-background="new 0 0 238.4 250" xml:space="preserve">
<g>
	<g>
		<path fill="#44AA55" d="M69.3,155.2v1.7v1.7v1.7v1.7v6.6v1.7v1.7v10v1.7v1.7v7.5c17.2,14.7,33.7,25.5,38.1,34.5
			c7.1-21.1,43.1-49.8,70.2-84.6L69.3,154.1V155.2z"/>
		<path fill="#FFFFFF" d="M32,70.5V70c-0.3,0.8-0.7,1.5-1,2.3l1-0.1V70.5z"/>
		<path fill="#FFFFFF" d="M35.8,66.7v1.7l2-0.2v1.7v1.7l2-0.2V73v1.7l2-0.2v1.7v1.7l2-0.2v1.5v1.7l2-0.2v1.7v1.7l2-0.2v-1.7v-1.7
			l2-0.2v-1.7v-1.5l2-0.2v-1.7v-1.7l2-0.2v-1.7v-1.7l2-0.2V68v-1.7l1.8-0.2v-1.7v-1.7l2-0.2v1.7v1.7l2-0.2v1.7v1.7l2-0.2v1.7v1.7
			l2-0.2v1.7v1.7l2-0.2v1.5v1.7l2-0.2v-6.6l-2,0.2v-1.7v-1.7l2-0.2v-10l-2,0.2v1.7v1.5l-2,0.2v1.7v1.7l-2,0.2v-1.7v-1.7l-2,0.2v-1.5
			v-1.7l-2,0.2v-1.7v-1.7l2-0.2V54v-1.7l2-0.2v-1.7v-1.7h0.1l1.9-0.2v1.7v1.7l2-0.2v1.7v1.7l2-0.2V44.8l-2,0.2v-1.7v-1.5l2-0.2v-1.4
			c-0.3,0-0.6,0-0.9,0c-1,0-2,0.1-3.1,0.2V42l-2,0.2v1.5v1.7l-2,0.2v1.7V49l-2,0.2v1.7v1.7l-2,0.2v-1.7v-1.7l-1.8,0.2v-1.7v-1.7
			l-2,0.2v-1.7v-0.3c-2,1.1-4,2.5-5.9,4.1v0.2v1.7l-2,0.2v-0.4c-1.3,1.2-2.7,2.6-4,4.1v0.1l2-0.2v1.7v1.7l2-0.2v1.7v1.7l-2,0.2v1.7
			v1.5l-2,0.2v1.7v1.7l-2,0.2v-1.7v-1.7l-2,0.2v-1.5v-1.7l-1.5,0.2c-0.7,1.1-1.3,2.2-2,3.4l1.5-0.2L35.8,66.7L35.8,66.7z M47.7,58.9
			v-1.7l2-0.2v-1.7v-1.7l2-0.2v-1.7V50l2-0.2v1.7v1.7l2-0.2v1.7v1.7l1.8-0.2v1.7v1.7l-1.8,0.2v1.7V63l-2,0.2v1.7v1.7l-2,0.2V65v-1.7
			l-2,0.2V62v-1.7l-2,0.2V58.9z M45.7,72.4v-1.7V69v-1.7l2-0.2v1.7v1.7v1.7v1.7l-2,0.2V72.4z"/>
		<path fill="#FFFFFF" d="M28.1,131.2v-1.7l2-0.2v-1.7v-1.7l2-0.2V124v-1.7l-2,0.2v-1.7v-1.7l-2,0.2v-1.7V116l-2,0.2v-1.7V113
			l-1.9,0.2c0.1,7,1,13.6,2.6,19.8l1.2-0.1v-1.7H28.1z"/>
		<path fill="#FFFFFF" d="M26.1,104.5v1.7l2-0.2v1.7v1.7l2-0.2v1.6v0.1v1.7l2-0.2v-1.7v-0.1V109l1.8-0.2v-1.7v-1.7l2-0.2v-1.7v-1.7
			l2-0.2v-1.7v-1.5l2-0.2v-1.7v-1.7l2-0.2v-1.7v-1.7l-2,0.2v-1.7V88l-2,0.2v-1.7v-1.7l-2,0.2l-2,0.2L32,85.5v1.7v1.7l1.8-0.2l2-0.2
			v1.7v1.7l-2,0.2v1.7v1.7L32,95.6v1.7V99l-2,0.2v-1.7v-1.7L28,96v-1.7v-1.7l-2,0.2v-1.7v-1c-0.3,2-0.7,4-0.9,6.2l0.9-0.1V98v1.7
			l-1.3,0.1c-0.1,1.1-0.2,2.1-0.3,3.2l1.5-0.2v1.7H26.1z"/>
		<path fill="#FFFFFF" d="M30,74.9c-0.1,0.3-0.2,0.6-0.3,0.8H30V74.9z"/>
		<path fill="#FFFFFF" d="M33.8,66.9v-0.7c-0.4,0.8-0.8,1.7-1.2,2.6l1.2-0.1V66.9z"/>
		<polygon fill="#FFFFFF" points="67.3,110.2 67.3,111.8 65.3,112.1 65.3,113.7 65.3,115.4 63.3,115.6 63.3,117.3 63.3,119 
			61.3,119.2 61.3,120.9 61.3,122.6 63.3,122.4 63.3,124.1 63.3,125.8 65.3,125.6 65.3,127.3 65.3,128.9 67.3,128.7 67.3,130.4 
			67.3,131.9 69.3,131.7 69.3,108.4 67.3,108.6 		"/>
		<path fill="#FFFFFF" d="M55.6,111.4v-1.5l-2,0.2v-1.7v-1.7l-2,0.2v-1.7v-1.7l-2,0.2V102v-1.7l-2,0.2v-1.7v-1.5l-2,0.2V99v1.7
			l-2,0.2v1.7v1.7l-2,0.2v1.7v1.7l-2,0.2v1.7v1.7l-2,0.2v1.5v1.7l-2,0.2v1.7v1.7v1.7v1.7v1.7v1.7v1.7v1.7v1.7v1.7l2-0.2v1.7v1.5
			l2-0.2v1.7v1.7l2-0.2v1.7v1.7l2-0.2v1.7v1.7l2-0.2v1.7v1.5l2-0.2V146v-1.7l2-0.2v-1.7v-1.7l2-0.2v-1.7V137l2-0.2v-1.7v-1.7l2-0.2
			v-1.5V130l1.8-0.2v-1.7v-1.7v-1.7V123v-1.7v-1.7V118v-1.7v-1.7v-1.7l-1.8,0.2V111.4z M40.1,123.2v1.7l-2,0.2v-1.7v-1.7l2-0.2
			V123.2z M45.7,105.8v-1.7l2-0.2v1.7v1.7l-2,0.2V105.8z M47.7,139.1v1.7l-2,0.2v-1.7v-1.7l2-0.2V139.1z M51.6,111.8v1.7v1.7v1.7
			l-2,0.2v1.7v1.7l-2,0.2v1.7v1.7l2-0.2v1.7v1.7l2-0.2v1.7v1.7v1.7v1.5l-2,0.2v-1.5v-1.7l-2,0.2v-1.7v-1.7l-2,0.2v1.7v1.7l-2,0.2
			v1.7v1.5l-2,0.2v-1.5v-1.7v-1.7v-1.7l2-0.2v-1.7v-1.7l2-0.2v-1.7v-1.7l-2,0.2v-1.7v-1.7l-2,0.2v-1.7v-1.7v-1.7v-1.5l2-0.2v1.5v1.7
			l2-0.2v1.7v1.7l2-0.2v-1.7v-1.7l2-0.2V112v-1.5l2-0.2V111.8z M55.2,121.6v1.7l-2,0.2v-1.7v-1.7l2-0.2V121.6z"/>
		<path fill="#FFFFFF" d="M39.7,156.6v-1.7l2-0.2V153v-1.7l-2,0.2v-1.7v-1.7l-2,0.2v-1.5v-1.7l-2,0.2v-1.7V142l-2,0.2v-1.7v-1.7
			L32,139v-1.6v-0.1v-1.7l-2,0.2v1.7v0.1v1.6l-1.3,0.1c2.4,6.8,5.6,13.2,9.3,19.1l1.6-0.2v-1.6H39.7z"/>
		<path fill="#FFFFFF" d="M67.3,185.5v1.7v1.7l-2,0.2v0.3c1.3,1.2,2.6,2.3,4,3.5v-7.5L67.3,185.5z"/>
		<polygon fill="#FFFFFF" points="63.3,57.2 63.3,58.9 65.3,58.7 65.3,57 65.3,55.3 63.3,55.5 		"/>
		<polygon fill="#FFFFFF" points="65.3,184 65.3,182.3 63.3,182.5 63.3,184.2 63.3,185.9 65.3,185.7 		"/>
		<path fill="#FFFFFF" d="M61.3,182.7V181v-1.5l2-0.2v-1.7v-1.7l2-0.2v1.7v1.7l2-0.2v1.5v1.7l2-0.2v-10l-2,0.2v-1.7v-1.7l2-0.2V162
			l-2,0.2v1.7v1.5l-2,0.2v1.7v1.7l-2,0.2v1.7v1.7l-2,0.2v1.7v1.7l-2,0.2v1.7v1.7l-2,0.2v-1.7v-1.7l-1.8,0.2v-1.7v-1.7l-2,0.2v-1.7
			v-1.7l-2,0.2v-1.7V167l-2,0.2v-1.5V164l-2,0.2v-1.7v-1.7l-2,0.2v1.7v1.7l-2,0.2v1.7v0.2c1.1,1.5,2.3,2.9,3.5,4.4l0.5-0.1v0.6
			c1.6,1.9,3.3,3.8,5,5.6l1-0.1v1.1c1.9,2,3.8,3.9,5.7,5.8v-0.9L61.3,182.7z"/>
		<polygon fill="#FFFFFF" points="69.3,148.4 67.3,148.7 67.3,147 67.3,145.3 69.3,145.1 69.3,141.9 67.3,142.1 67.3,140.4 
			67.3,138.7 65.3,138.9 65.3,137.2 65.3,135.5 63.3,135.7 63.3,134 63.3,132.4 61.3,132.6 61.3,134.3 61.3,135.9 59.4,136.1 
			59.4,137.8 59.4,139.5 57.4,139.7 57.4,141.4 57.4,143.1 55.6,143.3 55.6,145 55.6,146.5 53.6,146.7 53.6,148.4 53.6,150.1 
			51.6,150.3 51.6,152 51.6,153.7 53.6,153.5 53.6,155.2 53.6,156.9 55.6,156.6 55.6,158.3 55.6,160 57.4,159.8 59.4,159.6 
			61.3,159.4 61.3,157.7 61.3,156 59.4,156.2 57.4,156.5 57.4,154.8 57.4,153.1 59.4,152.9 59.4,151.2 59.4,149.5 61.3,149.3 
			61.3,147.6 61.3,145.9 63.3,145.7 63.3,147.4 63.3,149.1 65.3,148.9 65.3,150.6 65.3,152.2 67.3,152 67.3,153.7 67.3,155.4 
			69.3,155.2 69.3,154.1 		"/>
		<polygon fill="#FFFFFF" points="67.3,86.9 67.3,88.5 65.3,88.7 65.3,90.4 65.3,92.1 63.3,92.3 63.3,94 63.3,95.7 61.3,95.9 
			61.3,94.2 61.3,92.5 59.4,92.8 59.4,91.1 59.4,89.4 57.4,89.6 57.4,87.9 57.4,86.2 59.4,86 61.3,85.8 61.3,84.1 61.3,82.4 
			59.4,82.6 57.4,82.8 55.6,83 55.6,84.7 55.6,86.4 53.6,86.6 53.6,88.3 53.6,90 51.6,90.2 51.6,91.9 51.6,93.6 53.6,93.4 53.6,95 
			53.6,96.7 55.6,96.5 55.6,98 55.6,99.7 57.4,99.6 57.4,101.2 57.4,102.9 59.4,102.7 59.4,104.4 59.4,106.1 61.3,105.9 61.3,107.6 
			61.3,109.3 63.3,109.1 63.3,107.4 63.3,105.7 65.3,105.5 65.3,103.8 65.3,102.1 67.3,101.9 67.3,100.2 67.3,98.5 69.3,98.3 
			69.3,95.1 67.3,95.3 67.3,93.6 67.3,91.9 69.3,91.7 69.3,85 67.3,85.2 		"/>
		<polygon fill="#FFFFFF" points="41.7,59.5 41.7,57.8 39.7,58 39.7,59.7 39.7,61.4 41.7,61.2 		"/>
		<polygon fill="#FFFFFF" points="53.6,58.2 53.6,56.5 51.6,56.8 51.6,58.4 51.6,60.1 53.6,59.9 		"/>
		<path fill="#FFFFFF" d="M59.4,42.6v-0.8c-0.7,0.2-1.3,0.5-2,0.8v0.2L59.4,42.6z"/>
		<path fill="#CC3344" d="M52.7,177c0.3,0.3,0.6,0.7,1,1v-1.1L52.7,177z"/>
		<polygon fill="#CC3344" points="67.3,170.4 67.3,172.1 69.3,171.9 69.3,170.2 69.3,168.5 67.3,168.8 		"/>
		<path fill="#CC3344" d="M171.2,16.8c-31,0-56.3,36.3-58.9,48.1c-2.6,11.9-10.7,6.1-12.2-1.2C98.7,56.5,90,40.6,69.2,40.1v1.4
			l-2,0.2v1.5V45l2-0.2v10.1l-2,0.2v-1.7v-1.7l-2,0.2v-1.7v-1.7l-1.9,0.2h-0.1v1.7v1.7l-2,0.2V54v1.7l-2,0.2v1.7v1.7l2-0.2v1.7v1.5
			l2-0.2v1.7v1.7l2-0.2v-1.7v-1.7l2-0.2v-1.5v-1.7l2-0.2v10l-2,0.2v1.7v1.7l2-0.2v6.6l-2,0.2v-1.7v-1.5l-2,0.2v-1.7V72l-2,0.2v-1.7
			v-1.7l-2,0.2v-1.7v-1.7l-2,0.2v-1.7v-1.7l-2,0.2v1.7V66l-1.8,0.2V68v1.7l-2,0.2v1.7v1.7l-2,0.2v1.7v1.7l-2,0.2v1.5v1.7l-2,0.2v1.7
			v1.7l-2,0.2v-1.7v-1.7l-2,0.2v-1.7v-1.5l-2,0.2v-1.7v-1.7l-2,0.2V73v-1.7l-2,0.2v-1.7v-1.7l-2,0.2v-1.7V65l-1.5,0.2
			c-0.2,0.3-0.3,0.7-0.5,1v0.7v1.7l-1.2,0.1c-0.2,0.4-0.4,0.8-0.5,1.2v0.5v1.7l-1,0.1c-0.3,0.9-0.7,1.8-1,2.7v0.8h-0.3
			c-1.5,4.3-2.7,9.1-3.7,14.4v1v1.7l2-0.2v1.7V96l2-0.2v1.7v1.7l2-0.2v-1.7v-1.7l1.8-0.2v-1.7V92l2-0.2v-1.7v-1.7l-2,0.2L32,88.9
			v-1.7v-1.7l1.8-0.2l2-0.2l2-0.2v1.7v1.7l2-0.2v1.7v1.7l2-0.2V93v1.7l-2,0.2v1.7v1.7l-2,0.2v1.5v1.7l-2,0.2v1.7v1.7l-2,0.2v1.7v1.7
			L32,109v1.6v0.1v1.7l-2,0.2v-1.7v-0.1v-1.6l-2,0.2v-1.7V106l-2,0.2v-1.7v-1.7l-1.5,0.2c-0.2,2.7-0.3,5.5-0.3,8.3
			c0,0.6,0,1.2,0,1.8l1.9-0.2v1.5v1.7l2-0.2v1.7v1.7l2-0.2v1.7v1.7l2-0.2v1.7v1.7l-2,0.2v1.7v1.7l-2,0.2v1.7v1.7l-1.2,0.1
			c0.6,2.2,1.2,4.3,1.9,6.4l1.3-0.1v-1.6v-0.1v-1.7l2-0.2v1.7v0.1v1.6l1.8-0.2v1.7v1.7l2-0.2v1.7v1.7l2-0.2v1.7v1.5l2-0.2v1.7v1.7
			l2-0.2v1.7v1.7l-2,0.2v1.7v1.7l-1.6,0.2c1.8,2.8,3.6,5.4,5.6,8v-0.2v-1.7l2-0.2v-1.7v-1.7l2-0.2v1.7v1.7l2-0.2v1.7v1.5l2-0.2v1.7
			v1.7l2-0.2v1.7v1.7l2-0.2v1.7v1.7l1.8-0.2v1.7v1.7l2-0.2v-2v-1.7l2-0.2v-1.7v-1.7l2-0.2v-1.7v-1.7l2-0.2v-1.7v-1.7l2-0.2v-1.5
			v-1.7l2-0.2v-1.7v-1.7v-1.7v-1.7l-2,0.2v-1.7V152l-2,0.2v-1.7v-1.7l-2,0.2v-1.7v-1.7l-2,0.2v1.7v1.7l-2,0.2v1.7v1.7l-2,0.2v1.7
			v1.7l2-0.2l2-0.2v1.7v1.7l-2,0.2l-2,0.2l-1.8,0.2v-1.7v-1.7l-2,0.2v-1.7v-1.7l-2,0.2V152v-1.7l2-0.2v-1.7v-1.7l2-0.2V145v-1.7
			l1.8-0.2v-1.7v-1.7l2-0.2v-1.7v-1.7l2-0.2v-1.7v-1.7l2-0.2v1.7v1.7l2-0.2v1.7v1.7l2-0.2v1.7v1.7l2-0.2v3.2l-2,0.2v1.7v1.7l2-0.2
			v5.6L178,142.7c16.8-21.6,30.2-45.6,31.1-71.6C209.5,46.1,199.7,16.8,171.2,16.8z M65.3,57v1.7l-2,0.2v-1.7v-1.7l2-0.2V57z
			 M57.4,114.6v1.7v1.7v1.7v1.7v1.7v1.7v1.7v1.7v1.7l-1.8,0.2v1.7v1.5l-2,0.2v1.7v1.7l-2,0.2v1.7v1.7l-2,0.2v1.7v1.7l-2,0.2v1.7v1.5
			l-2,0.2V146v-1.7l-2,0.2v-1.7v-1.7l-2,0.2v-1.7V138l-2,0.2v-1.7v-1.7l-2,0.2v-1.5v-1.7l-2,0.2v-1.7v-1.7V127v-1.7v-1.7v-1.7v-1.7
			v-1.7v-1.7v-1.7l2-0.2v-1.7v-1.5l2-0.2v-1.7v-1.7l2-0.2v-1.7v-1.7l2-0.2v-1.7V101l2-0.2v-1.7v-1.5l2-0.2v1.5v1.7l2-0.2v1.7v1.7
			l2-0.2v1.7v1.7l2-0.2v1.7v1.7l2-0.2v1.5v1.7l1.8-0.2V114.6z M69.3,131.7l-2,0.2v-1.5v-1.7l-2,0.2v-1.7v-1.7l-2,0.2V124v-1.7
			l-2,0.2v-1.7v-1.7l2-0.2v-1.7v-1.7l2-0.2v-1.7v-1.7l2-0.2V110v-1.5l2-0.2V131.7z M69.3,91.7l-2,0.2v1.7v1.7l2-0.2v3.2l-2,0.2v1.7
			v1.7l-2,0.2v1.7v1.7l-2,0.2v1.7v1.7l-2,0.2v-1.7v-1.7l-2,0.2v-1.7v-1.7l-2,0.2v-1.7v-1.7l-1.8,0.2V98v-1.5l-2,0.2V95v-1.7l-2,0.2
			v-1.7v-1.7l2-0.2v-1.7v-1.7l2-0.2v-1.7V83l1.8-0.2l2-0.2l2-0.2v1.7v1.7l-2,0.2l-2,0.2v1.7v1.7l2-0.2v1.7v1.7l2-0.2v1.7V96l2-0.2
			V94v-1.7l2-0.2v-1.7v-1.7l2-0.2v-1.7v-1.7l2-0.2V91.7z"/>
		<path fill="#CC3344" d="M47.2,170.9c0.2,0.2,0.3,0.4,0.5,0.6v-0.6H47.2z"/>
		<path fill="#CC3344" d="M47.7,50.4v-1.7v-0.2c-0.7,0.5-1.3,1.1-2,1.7v0.4L47.7,50.4z"/>
		<path fill="#CC3344" d="M67.3,188.8v-1.7v-1.7l2-0.2v-1.7v-1.7l-2,0.2v-1.7v-1.5l-2,0.2v-1.7v-1.7l-2,0.2v1.7v1.7l-2,0.2v1.5v1.7
			l-2,0.2v0.9c2,1.9,4,3.7,5.9,5.5v-0.3L67.3,188.8z M63.3,184.2v-1.7l2-0.2v1.7v1.7l-2,0.2C63.3,185.9,63.3,184.2,63.3,184.2z"/>
		<polygon fill="#CC3344" points="47.7,105.6 47.7,104 45.7,104.2 45.7,105.8 45.7,107.5 47.7,107.3 		"/>
		<path fill="#CC3344" d="M49.6,62v1.5l2-0.2V65v1.7l2-0.2v-1.7v-1.7l2-0.2v-1.5v-1.7l1.8-0.2v-1.7v-1.7l-1.8,0.2v-1.7V53l-2,0.2
			v-1.7v-1.7l-2,0.2v1.7v1.7l-2,0.2v1.7V57l-2,0.2v1.7v1.7l2-0.2V62z M51.6,58.4v-1.7l2-0.2v1.7v1.7l-2,0.2V58.4z"/>
		<path fill="#CC3344" d="M37.8,63.3v1.5l2-0.2v1.7V68l2-0.2v-1.7v-1.7l2-0.2v-1.5V61l2-0.2v-1.7v-1.7l-2,0.2v-1.7v-1.7l-2,0.2v-0.1
			c-1.9,2.2-3.7,4.7-5.5,7.4l1.5-0.2V63.3z M39.7,59.7V58l2-0.2v1.7v1.7l-2,0.2V59.7z"/>
		<polygon fill="#CC3344" points="47.7,72.2 47.7,70.5 47.7,68.8 47.7,67.1 45.7,67.3 45.7,69 45.7,70.7 45.7,72.4 45.7,74.1 
			47.7,73.9 		"/>
		<polygon fill="#CC3344" points="38.2,123.4 38.2,125.1 40.1,124.8 40.1,123.2 40.1,121.5 38.2,121.7 		"/>
		<path fill="#CC3344" d="M26.1,98v-1.7l-0.9,0.1c-0.1,1.1-0.2,2.3-0.4,3.4l1.3-0.1V98z"/>
		<polygon fill="#CC3344" points="53.2,121.8 53.2,123.5 55.2,123.3 55.2,121.6 55.2,119.9 53.2,120.1 		"/>
		<polygon fill="#CC3344" points="45.7,139.3 45.7,141 47.7,140.8 47.7,139.1 47.7,137.4 45.7,137.6 		"/>
		<path fill="#CC3344" d="M53.6,46.4l2-0.2v1.7v1.7l1.8-0.2v1.7v1.7l2-0.2v-1.7v-1.7l2-0.2v-1.7v-1.7l2-0.2v-1.7v-1.5l2-0.2v-1.6
			c-1.9,0.2-3.9,0.7-5.9,1.5v0.8l-2,0.2v-0.2c-1.2,0.5-2.5,1.1-3.8,1.8v0.3L53.6,46.4L53.6,46.4z"/>
		<polygon fill="#CC3344" points="49.6,112 49.6,113.7 47.7,113.9 47.7,115.6 47.7,117.3 45.7,117.5 45.7,115.8 45.7,114.1 
			43.7,114.3 43.7,112.6 43.7,111.1 41.7,111.3 41.7,112.9 41.7,114.5 41.7,116.2 41.7,117.9 43.7,117.7 43.7,119.4 43.7,121.1 
			45.7,120.9 45.7,122.6 45.7,124.3 43.7,124.5 43.7,126.2 43.7,127.8 41.7,128.1 41.7,129.7 41.7,131.4 41.7,133.1 41.7,134.6 
			43.7,134.4 43.7,132.9 43.7,131.2 45.7,131 45.7,129.3 45.7,127.6 47.7,127.4 47.7,129.1 47.7,130.8 49.6,130.6 49.6,132.3 
			49.6,133.8 51.6,133.6 51.6,132.1 51.6,130.4 51.6,128.7 51.6,127 49.6,127.2 49.6,125.5 49.6,123.8 47.7,124 47.7,122.4 
			47.7,120.7 49.6,120.5 49.6,118.8 49.6,117.1 51.6,116.9 51.6,115.2 51.6,113.5 51.6,111.8 51.6,110.3 49.6,110.5 		"/>
	</g>
	<path d="M181.4,0c-25.5,0-55.7,18.8-74,50.2C102.5,38.9,84.9,26.5,64,26.5c-16.8,0-64,21-64,88.9C0,203,88.6,221,106.5,248.2
		c1.2,1.9,5.2,3.3,6.7-1.2c14.3-42.2,125.1-89.8,125.1-175.7C238.4,23.2,206.9,0,181.4,0z M24.2,111.4C24.8,57.1,53,40.2,68.4,40.2
		c21.5,0,30.3,16.4,31.8,23.6c1.4,7.2,9.6,13,12.2,1.2c2.6-11.9,27.9-48.1,58.9-48.1c28.4,0,38.3,29.3,37.4,54.2
		c-2.3,67.9-89.7,122-101.3,156.2C97.1,206.6,23.5,176.6,24.2,111.4z"/>
</g>
</svg>
