<?xml version="1.0" encoding="UTF-8" standalone="no"?>
<!-- Creator: CorelDRAW -->

<svg
   xmlns:dc="http://purl.org/dc/elements/1.1/"
   xmlns:cc="http://creativecommons.org/ns#"
   xmlns:rdf="http://www.w3.org/1999/02/22-rdf-syntax-ns#"
   xmlns:svg="http://www.w3.org/2000/svg"
   xmlns="http://www.w3.org/2000/svg"
   xmlns:sodipodi="http://sodipodi.sourceforge.net/DTD/sodipodi-0.dtd"
   xmlns:inkscape="http://www.inkscape.org/namespaces/inkscape"
   xml:space="preserve"
   width="238"
   height="250"
   style="shape-rendering:geometricPrecision; text-rendering:geometricPrecision; image-rendering:optimizeQuality; fill-rule:evenodd; clip-rule:evenodd"
   viewBox="0 0 218.573 148.629"
   version="1.0"
   sodipodi:version="0.32"
   inkscape:version="0.91 r13725"
   sodipodi:docname="EuroCanadá.svg"
   id="svg2"><metadata
     id="metadata162"><rdf:RDF><cc:Work
         rdf:about=""><dc:format>image/svg+xml</dc:format><dc:type
           rdf:resource="http://purl.org/dc/dcmitype/StillImage" /></cc:Work></rdf:RDF></metadata><sodipodi:namedview
     pagecolor="#ffffff"
     bordercolor="#666666"
     borderopacity="1"
     objecttolerance="10"
     gridtolerance="10"
     guidetolerance="10"
     inkscape:pageopacity="0"
     inkscape:pageshadow="2"
     inkscape:window-width="1366"
     inkscape:window-height="705"
     id="namedview160"
     showgrid="false"
     inkscape:zoom="0.81028422"
     inkscape:cx="74.751619"
     inkscape:cy="45.570607"
     inkscape:window-x="-8"
     inkscape:window-y="-8"
     inkscape:window-maximized="1"
     inkscape:current-layer="Layer_x0020_1" /><defs
     id="defs4"><style
       type="text/css"
       id="style6"><![CDATA[
    .fil3 {fill:none}
    .fil22 {fill:#007CC3}
    .fil1 {fill:#0A0B0C}
    .fil13 {fill:#DEA817}
    .fil10 {fill:#EA952F}
    .fil5 {fill:#FFF500}
    .fil9 {fill:white}
    .fil0 {fill:#00D1FF}
    .fil6 {fill:black}
    .fil7 {fill:white}
    .fil14 {fill:#004F81}
    .fil21 {fill:#008ECA}
    .fil4 {fill:#00A13A}
    .fil15 {fill:#2C6693}
    .fil20 {fill:#52A2D2}
    .fil16 {fill:#5981A8}
    .fil17 {fill:#84A5C3}
    .fil19 {fill:#86BBDB}
    .fil18 {fill:#C3DCE3}
    .fil8 {fill:#DA251D}
    .fil2 {fill:#EB8A1B}
    .fil11 {fill:#F2B004}
    .fil12 {fill:#F9D000}
   ]]></style></defs><g
     id="Layer_x0020_1"><metadata
       id="CorelCorpID_0Corel-Layer" /><sodipodi:namedview
       inkscape:window-height="749"
       inkscape:window-width="1024"
       inkscape:pageshadow="2"
       inkscape:pageopacity="0.0"
       guidetolerance="10.0"
       gridtolerance="10.0"
       objecttolerance="10.0"
       borderopacity="1.0"
       bordercolor="#666666"
       pagecolor="#ffffff"
       id="base"
       width="1572px"
       height="1048px"
       inkscape:zoom="0.3125228"
       inkscape:cx="904.15788"
       inkscape:cy="518.76018"
       inkscape:window-x="-4"
       inkscape:window-y="-4"
       inkscape:current-layer="svg1880" /><path
       style="clip-rule:evenodd;fill:#ff0000;fill-opacity:1;fill-rule:evenodd;stroke:none;stroke-width:0.28222221px;stroke-linecap:butt;stroke-linejoin:miter;stroke-opacity:1;image-rendering:optimizeQuality;shape-rendering:geometricPrecision;text-rendering:geometricPrecision"
       d="M 23.259559,14.441228 9.5440964,63.252019 23.259559,112.06281 99.501048,176.2026 122.0911,147.15814 182.19674,88.262512 209.62757,19.685385 175.74254,-31.949173 138.6302,-27.915243 117.2504,-10.569265 99.501048,13.634442 83.76864,-2.5013412 51.900515,-9.7624466 Z"
       id="path5065"
       inkscape:connector-curvature="0" /><path
       style="fill:#ffffff;fill-opacity:1;fill-rule:evenodd;stroke:none;stroke-width:0.91837394px;stroke-linecap:butt;stroke-linejoin:miter;stroke-opacity:1"
       d="m 54.14903,-8.6826011 0,150.1812111 44.470664,33.48267 46.348276,-45.16483 0,-156.64063 -26.16263,15.290084 L 98.215986,15.514671 85.700881,-2.2486983 Z"
       id="path4294"
       inkscape:connector-curvature="0"
       sodipodi:nodetypes="ccccccccc" /><path
       inkscape:connector-curvature="0"
       style="fill:#ff0000"
       d="m 98.076584,31.060364 -6.222222,12.149633 c -0.706054,1.323069 -1.971084,1.316756 -3.236113,0.722959 l -4.504734,-1.938527 3.357497,17.531693 c 0.706003,3.194835 -1.559285,3.393022 -2.677237,2.082728 l -7.861632,-8.113176 -1.276305,4.581009 c -0.147178,0.599797 -0.794311,1.272868 -1.765184,1.211005 l -9.941128,-1.220406 2.611081,9.264524 c 0.558976,2.06339 0.994971,2.899805 -0.564264,3.593325 l -3.54334,1.975357 17.112971,12.403227 c 0.677367,0.466322 1.019567,1.382217 0.778445,2.259702 L 78.84665,92.6096 c 5.892295,-1.194712 11.171832,-2.678463 17.067071,-3.823552 0.52046,-0.101094 1.391702,0.681548 1.38811,1.284967 l -0.78069,18.075455 2.864818,-0.25064 -0.450957,-17.929083 c -0.005,-0.602668 0.786811,-1.569421 1.307268,-1.559397 5.89524,0.11356 11.17478,0.673507 17.06705,0.837203 l -1.49775,-4.78411 c -0.24114,-0.835292 0.10108,-1.811066 0.77843,-2.39591 l 17.113,-15.397611 -3.54334,-1.355353 c -1.55927,-0.420686 -1.12327,-1.333391 -0.5643,-3.494589 l 2.61111,-9.721406 -9.94113,2.959878 c -0.97086,0.231743 -1.618,-0.328095 -1.76518,-0.902138 l -1.27632,-4.357683 -7.86162,9.488782 c -1.11795,1.50591 -3.38329,1.704102 -2.67724,-1.614273 l 3.35745,-18.119175 -4.50473,2.726754 c -1.26503,0.815148 -2.53001,1.042808 -3.23607,-0.156716"
       id="path8" /><path
       inkscape:connector-curvature="0"
       d="m 22.963959,61.89002 c 0.551013,-49.401277 26.259977,-64.8630412 40.260595,-64.8630412 19.552177,0 27.627439,14.9263692 28.947132,21.5349972 1.318781,6.603129 8.719054,11.884709 11.096704,1.053381 2.37952,-10.8313277 25.38112,-43.859795 53.65144,-43.859795 25.89076,0 34.85778,26.699918 34.08174,49.409543 C 188.88291,86.988309 109.24058,136.32987 98.75736,167.48578 89.422996,148.61591 22.305463,121.33924 22.963959,61.89002 l 0,0 z M 166.16877,-39.563868 c -23.25047,0 -50.74752,17.171787 -67.391202,45.7084744 -4.49086,-10.3060203 -20.491696,-21.5368194 -39.512124,-21.5368194 -15.326754,0 -58.34707001,19.1554782 -58.34707001,80.980504 0,79.788499 80.72600201,96.176929 97.04551101,120.976749 1.121324,1.70541 4.733285,2.99389 6.111785,-1.08094 13.02162,-38.42944 113.99315,-81.85026 113.99315,-160.053591 -9.1e-4,-43.857972 -28.65052,-64.994377 -51.90005,-64.994377 z"
       id="path29"
       style="clip-rule:evenodd;opacity:1;fill-rule:evenodd;image-rendering:optimizeQuality;shape-rendering:geometricPrecision;text-rendering:geometricPrecision" /></g></svg>