<?xml version="1.0" encoding="utf-8"?>
<!-- Generator: Adobe Illustrator 23.0.1, SVG Export Plug-In . SVG Version: 6.00 Build 0)  -->
<svg version="1.1" id="Livello_1" xmlns="http://www.w3.org/2000/svg" xmlns:xlink="http://www.w3.org/1999/xlink" x="0px" y="0px"
	 viewBox="0 0 238.4 250" enable-background="new 0 0 238.4 250" xml:space="preserve">
<g>
	<path fill="#FFFFFF" d="M171.2,16.8c-31,0-56.3,36.3-58.9,48.1c-2.6,11.9-10.7,6.1-12.2-1.2c-1.4-7.3-10.3-23.6-31.8-23.6
		c-15.4,0-43.6,17-44.2,71.2c-0.7,65.3,72.9,95.2,83.2,115.9c11.5-34.2,98.9-88.4,101.3-156.2C209.5,46.1,199.7,16.8,171.2,16.8z
		 M62.8,146.7C62.8,146.7,62.8,146.7,62.8,146.7C62.8,146.7,62.8,146.7,62.8,146.7L62.8,146.7c1,0.4,1.7,0.9,2.4,1.3
		c0.6,0.5,1.2,0.9,1.6,1.3c0.9,0.8,1.4,1.4,1.7,1.9c0.3,0.5,0.5,0.9,0.5,1.2c0.1,0.3,0.1,0.5,0.1,0.5l0,0c0,0,0,0,0,0c0,0,0,0,0,0
		c0,0-0.3,0.2-0.9,0.2c-0.6,0-1.5-0.3-2.6-1.2c-0.7-0.6-1.2-1.2-1.6-2c-0.2-0.4-0.4-0.9-0.6-1.4C63.3,147.9,63.1,147.3,62.8,146.7z
		 M67.2,157.1c-0.7-0.1-1.2-0.4-1.7-0.9c-0.2-0.2-0.5-0.5-0.7-0.9c-0.3-0.3-0.5-0.7-0.9-1.2c0,0,0,0,0,0c0,0,0,0,0,0l0,0
		c0.8-0.1,1.5,0,2.1,0c0.6,0.1,1.1,0.2,1.5,0.3c0.8,0.2,1.3,0.5,1.6,0.7c0.3,0.3,0.5,0.6,0.7,0.8c0.1,0.2,0.2,0.4,0.2,0.4l0,0
		c0,0,0,0,0,0c0,0,0,0,0,0c0,0-0.1,0.3-0.6,0.5C69,157.2,68.2,157.4,67.2,157.1z M70,147.5L70,147.5c0.6,0.5,1,1,1.4,1.5
		c0.4,0.5,0.6,0.9,0.8,1.2c0.4,0.7,0.5,1.3,0.5,1.8c0,0.5-0.1,0.8-0.2,1.1c-0.1,0.3-0.2,0.4-0.2,0.4l0,0c0,0,0,0,0,0c0,0,0,0,0,0
		c0,0-0.3,0.1-0.7,0c-0.4-0.1-1-0.6-1.4-1.5c-0.3-0.6-0.5-1.1-0.5-1.8C69.6,149.5,69.8,148.7,70,147.5C70,147.5,70,147.5,70,147.5
		C70,147.5,70,147.5,70,147.5z M74.9,156.7c0.9,0.6,1.5,1.1,1.8,1.6c0.7,1,0.5,1.8,0.5,1.8l0,0c0,0,0,0,0,0c0,0,0,0,0,0
		s-0.3,0.2-0.8,0.2c-0.5,0-1.3-0.2-2.4-0.9c-0.7-0.4-1.3-0.9-1.7-1.6c-0.5-0.7-0.9-1.7-1.2-3.1c0,0,0,0,0,0c0,0,0,0,0,0l0,0
		c0.8,0.5,1.5,0.8,2.2,1.2C73.9,156.1,74.4,156.4,74.9,156.7z M73.5,153.4c0-0.1,0.1-0.2,0.2-0.3c0.1-0.1,0.2-0.2,0.3-0.3
		c0.1-0.1,0.2-0.2,0.4-0.2c0.2,0,0.3,0.1,0.4,0.1c0.3,0.2,0.5,0.4,0.6,0.7c0.2,0.6-0.1,1.3-0.6,1.5c-0.5,0.2-1.1-0.1-1.3-0.7
		C73.4,153.9,73.4,153.6,73.5,153.4z M76.5,153.7L76.5,153.7c0.6,0.5,1.1,0.9,1.6,1.3c0.4,0.4,0.8,0.7,1.1,1c0.6,0.6,0.9,1.2,1,1.6
		c0.3,0.9-0.1,1.6-0.1,1.6l0,0c0,0,0,0,0,0c0,0,0,0,0,0c0,0-0.3,0.1-0.7,0.1c-0.5-0.1-1.1-0.3-1.8-1.1c-0.5-0.5-0.8-1-0.9-1.7
		C76.4,155.8,76.3,154.9,76.5,153.7C76.5,153.7,76.5,153.7,76.5,153.7C76.5,153.7,76.5,153.7,76.5,153.7z M82.7,161.8
		c1.1,0.3,1.8,0.6,2.3,1c0.5,0.4,0.7,0.7,0.9,1c0.1,0.3,0.2,0.4,0.2,0.5l0,0c0,0,0,0,0,0c0,0,0,0,0,0c0,0-0.2,0.3-0.8,0.4
		c-0.6,0.2-1.4,0.2-2.7-0.2c-1.6-0.3-2.6-1.1-4.6-3.1c0,0,0,0,0,0c0,0,0,0,0,0l0,0C80.1,161.3,81.6,161.5,82.7,161.8z M81.3,159
		c0.3-0.4,1-0.5,1.6-0.2c0.6,0.3,0.8,1,0.4,1.5c-0.3,0.5-1,0.6-1.6,0.2C81.1,160.1,80.9,159.4,81.3,159z M69.6,158.7
		c0.1-0.3,0.3-0.4,0.6-0.5c0.3-0.1,0.6-0.1,1,0c0.4,0.1,0.7,0.3,0.9,0.6c0.1,0.2,0.1,0.3,0.1,0.5c0,0.2-0.1,0.3-0.2,0.4
		c-0.1,0.1-0.2,0.2-0.3,0.2c-0.1,0.1-0.2,0.1-0.3,0.2c-0.2,0.1-0.5,0.1-0.9,0c-0.3-0.1-0.6-0.3-0.8-0.5
		C69.6,159.3,69.5,159,69.6,158.7z M77.7,163c0,0-0.1,0.3-0.6,0.6c-0.5,0.3-1.3,0.5-2.5,0.4c-0.8,0-1.4-0.2-2.1-0.6
		c-0.3-0.2-0.7-0.5-1-0.8c-0.4-0.4-0.7-0.8-1-1.3c0,0,0,0,0,0c0,0,0,0,0,0l0,0c0.9,0.1,1.6,0.1,2.2,0.1c0.7,0,1.2,0,1.7,0.1
		c1,0.1,1.6,0.3,2.1,0.5c0.5,0.2,0.7,0.5,0.9,0.8C77.7,162.8,77.7,163,77.7,163L77.7,163C77.7,163,77.7,163,77.7,163
		C77.7,163,77.7,163,77.7,163z M77.8,165c0-0.5,0.6-1,1.3-1.1c0.7-0.1,1.3,0.3,1.3,0.8c0,0,0,0,0,0c0.2,0,0.3,0,0.5-0.1l-0.5,0.1
		c0,0.5-0.6,1-1.3,1.1C78.4,165.9,77.8,165.5,77.8,165z M88.1,167.2c0,0-0.1,0.3-0.6,0.6c-0.5,0.3-1.4,0.7-2.9,0.7
		c-0.9,0.1-1.7,0-2.6-0.3c-0.9-0.3-1.8-0.8-3.1-1.4c0,0,0,0,0,0c0,0,0,0,0,0l0,0c2.1-0.6,3.7-0.8,5-0.8c1.2,0,2.1,0.1,2.7,0.3
		c0.6,0.2,1,0.4,1.2,0.6C88,167,88.1,167.2,88.1,167.2L88.1,167.2C88.1,167.2,88.1,167.2,88.1,167.2
		C88.1,167.2,88.1,167.2,88.1,167.2z M86.3,162.7c-0.6-0.6-1.1-1.4-1.8-2.5c0,0,0,0,0,0c0,0,0,0,0,0l0,0c1.8,0.3,3.1,0.7,4.1,1
		c0.9,0.3,1.5,0.6,2,1c0.8,0.6,1,1.4,1,1.4l0,0c0,0,0,0,0,0c0,0,0,0,0,0c0,0-0.2,0.3-0.7,0.5c-0.5,0.2-1.4,0.3-2.6-0.1
		C87.5,163.7,86.9,163.3,86.3,162.7z M90,170.3c-0.5,0.1-0.9,0-1.2-0.2c-0.3-0.2-0.5-0.4-0.4-0.7c0-0.3,0.2-0.5,0.5-0.7
		c0.3-0.2,0.7-0.3,1.1-0.4c0.9-0.1,1.7,0.2,1.7,0.8C91.7,169.7,91,170.2,90,170.3z M90.2,166.6c-0.5-0.4-1.1-0.8-1.6-1.4
		c0,0,0,0,0,0c0,0,0,0,0,0l0,0c1.1,0.2,2.1,0.1,2.9,0.1c0.9,0,1.6,0,2.3,0c1.4,0.1,2.4,0.3,3,0.7c0.7,0.3,1,0.8,1.2,1.1
		c0.2,0.3,0.2,0.5,0.2,0.5c0,0,0,0,0,0l0,0c0,0,0,0,0,0c0,0-0.3,0.2-0.8,0.3c-0.6,0.1-1.5,0.2-2.9,0c-1,0-1.8-0.2-2.7-0.6
		C91.3,167.2,90.8,167,90.2,166.6z M93,162.5c0.2-0.2,0.5-0.3,0.8-0.3c0.3,0,0.6,0.1,0.9,0.4c0.3,0.2,0.5,0.6,0.6,0.9
		c0.1,0.3,0,0.6-0.2,0.8c-0.4,0.4-1.1,0.3-1.7-0.1c-0.3-0.2-0.5-0.5-0.5-0.8C92.8,163,92.8,162.7,93,162.5z M96.7,163L96.7,163
		c1,0.2,1.8,0.4,2.6,0.6c0.7,0.2,1.4,0.4,1.9,0.7c1.1,0.5,1.8,1,2.2,1.5c0.8,1,0.7,1.8,0.6,1.8l0,0l0,0c0,0,0,0,0,0
		c0,0-0.3,0.2-0.8,0.2c-0.6,0-1.4-0.1-2.5-0.8c-0.8-0.3-1.4-0.7-2-1.3C98.1,165.1,97.4,164.2,96.7,163C96.7,163,96.7,163,96.7,163
		C96.7,163,96.7,163,96.7,163z M101.7,170c-0.4,0.4-1.2,1-2.5,1.4c-0.9,0.3-1.7,0.5-2.6,0.5c-0.9,0-2.1-0.3-3.4-0.9c0,0,0,0,0,0
		c0,0,0,0,0,0l0,0c1-0.3,1.9-0.7,2.6-1c0.7-0.3,1.4-0.6,2-0.8c1.1-0.4,2-0.6,2.7-0.6c1.3,0,1.8,0.6,1.8,0.6l0,0c0,0,0,0,0,0
		c0,0,0,0,0,0S102.1,169.6,101.7,170z M113,171.1c0,0-0.3,0.4-0.6,0.9c-0.3,0.8-0.2,1.5-0.1,1.8c0,0.1,0,0.2,0,0.2l0,0.1l-0.1,0
		c-0.1,0-0.1,0-0.2-0.2l0-0.1c-0.2-0.3-1.5-2.2-4.1-3.6c-2.6,1.9-4,4.1-4.1,4.4l0,0.1c-0.1,0.2-0.2,0.3-0.2,0.3l-0.1,0l0,0
		c0,0,0-0.1,0-0.2c0.1-0.3,0.2-1.1-0.1-1.8c-0.3-0.4-0.6-0.8-0.6-0.8l-0.1-0.1l0.1-0.1c0.1-0.1,1.1-1.3,3.5-2.5
		c-0.8-0.3-1.6-0.5-2.5-0.6l0-0.2c1.6-0.1,3,0,4.2,0.1c1.2-0.4,2.5-0.8,4.2-1l0,0.2c-0.9,0.3-1.7,0.7-2.5,1.1
		c2.4,0.7,3.4,1.7,3.5,1.8L113,171.1L113,171.1z M118.8,160.7c-0.7,1.4-1.4,2.4-2,3.1c-0.6,0.8-1.2,1.3-2,1.8
		c-1.1,0.8-1.9,1.2-2.5,1.3c-0.5,0.1-0.8,0-0.8,0l0,0l0,0c0,0,0,0,0,0c0,0-0.2-0.8,0.7-1.9c0.4-0.6,1.1-1.3,2.2-2
		c0.5-0.4,1.2-0.7,1.9-1.1C116.9,161.5,117.8,161.1,118.8,160.7L118.8,160.7C118.7,160.7,118.7,160.7,118.8,160.7
		C118.7,160.7,118.8,160.7,118.8,160.7z M118.9,169.5c-1,0.2-1.8,0.3-2.6,0.1c-1.4-0.1-2.1-0.5-2.5-0.8c-0.4-0.3-0.5-0.6-0.5-0.6
		c0,0,0.5-0.7,1.8-1c0.7-0.1,1.5-0.2,2.7,0c0.6,0.1,1.2,0.2,2,0.3c0.7,0.1,1.6,0.3,2.6,0.4l0,0c0,0,0,0,0,0c0,0,0,0,0,0
		C121,168.8,119.8,169.3,118.9,169.5z M120.9,165.2c-1.5,0.5-2.4,0.6-2.9,0.6c-0.6,0-0.8-0.1-0.8-0.1c0,0,0,0,0,0l0,0c0,0,0,0,0,0
		c0,0,0-0.2,0.2-0.5c0.2-0.3,0.5-0.8,1.2-1.3c0.7-0.5,1.7-1,3-1.3c0.7-0.2,1.4-0.3,2.3-0.5c0.9-0.2,1.8-0.3,2.9-0.7l0,0c0,0,0,0,0,0
		c0,0,0,0,0,0c-0.5,0.7-1.1,1.3-1.6,1.8c-0.5,0.5-1,0.8-1.5,1.1C122.7,164.6,121.9,165,120.9,165.2z M120.2,160.8
		c0.1-0.3,0.3-0.7,0.6-1c0.3-0.3,0.6-0.5,0.9-0.6c0.3-0.1,0.6,0,0.8,0.1c0.2,0.2,0.2,0.5,0.2,0.8c-0.1,0.3-0.3,0.6-0.5,0.9
		c-0.6,0.6-1.2,0.7-1.7,0.5C120.2,161.5,120.1,161.2,120.2,160.8z M126.6,166.2c-0.3,0.2-0.8,0.4-1.2,0.4c-0.9,0.1-1.6-0.3-1.6-0.8
		c0-0.5,0.8-1,1.7-1.1c0.4,0,0.8,0,1.1,0.1c0.3,0.1,0.5,0.3,0.5,0.6C127.1,165.7,127,165.9,126.6,166.2z M124.6,160.4
		c-0.5-0.1-0.7-0.3-0.7-0.3c0,0,0,0,0,0c0,0,0,0,0,0l0,0c0,0,0.1-0.8,1-1.6c0.4-0.4,1-0.9,2-1.4c0.9-0.5,2.2-1.1,4.1-1.8l0,0
		c0,0,0,0,0,0c0,0,0,0,0,0c-0.7,1.3-1.2,2.2-1.8,2.9c-0.6,0.7-1.2,1.2-2,1.6C126,160.4,125.1,160.5,124.6,160.4z M132.7,156.5
		c1.1-0.5,2.6-1,4.6-1.4l0,0c0,0,0,0,0,0c0,0,0,0,0,0c-2,2.4-2.9,3.4-4.5,4.1c-1.2,0.6-2.1,0.8-2.7,0.7c-0.6,0-0.8-0.3-0.8-0.3
		c0,0,0,0,0,0c0,0,0,0,0,0l0,0c0,0,0-0.2,0.2-0.5c0.1-0.3,0.4-0.7,0.9-1.2C130.9,157.5,131.6,157,132.7,156.5z M132.6,153.5
		c0.5-0.5,1.2-0.5,1.6-0.1c0.3,0.4,0.1,1.1-0.4,1.6c-0.5,0.5-1.2,0.5-1.5,0.1C131.9,154.7,132.1,153.9,132.6,153.5z M139,147.1
		c0.1,1.2,0.1,2.1-0.1,2.9c-0.2,0.8-0.5,1.3-0.9,1.9c-0.7,1-1.3,1.4-1.8,1.5c-0.5,0.1-0.7,0.1-0.7,0.1c0,0,0,0,0,0c0,0,0,0,0,0l0,0
		c0,0-0.3-0.7-0.1-1.6c0.1-0.5,0.4-1.1,1-1.8c0.3-0.4,0.6-0.8,1.1-1.3C137.8,148.3,138.4,147.7,139,147.1L139,147.1
		C139,147.1,139,147.1,139,147.1C139,147.1,139,147.1,139,147.1z M140.6,149.8c0.5-0.4,1-0.8,1.6-1.3c0.6-0.5,1.3-1,2.2-1.6l0,0
		c0,0,0,0,0,0c0,0,0,0,0,0c-0.3,1.5-0.7,2.5-1.2,3.4c-0.5,0.8-1,1.4-1.7,2c-1,0.9-1.8,1.3-2.4,1.4c-0.5,0.1-0.8,0-0.8,0s0,0,0,0
		c0,0,0,0,0,0l0,0c0,0-0.2-0.8,0.5-1.9C139.1,151.2,139.6,150.5,140.6,149.8z M140.1,146.7c0.1-0.3,0.3-0.6,0.6-0.9
		c0.1-0.1,0.3-0.2,0.4-0.2c0.1,0,0.3,0,0.4,0.1c0.1,0.1,0.2,0.2,0.3,0.3c0.1,0.1,0.2,0.2,0.2,0.3c0.1,0.2,0.1,0.5,0,0.8
		c-0.2,0.6-0.8,1.1-1.3,1C140.2,147.9,139.9,147.3,140.1,146.7z M145.5,139.5c0.2,1.1,0.4,1.9,0.4,2.6c0,0.7-0.1,1.3-0.5,1.9
		c-0.4,1-1,1.6-1.4,1.8c-0.4,0.2-0.7,0.2-0.7,0.2l0,0c0,0,0,0,0,0l0,0c0,0-0.1-0.1-0.2-0.4c-0.1-0.2-0.2-0.6-0.2-1.1
		c0-0.5,0.1-1.1,0.5-1.9c0.2-0.4,0.5-0.9,0.8-1.4C144.4,140.8,144.9,140.2,145.5,139.5L145.5,139.5
		C145.4,139.5,145.4,139.5,145.5,139.5C145.4,139.5,145.5,139.5,145.5,139.5z M136.5,160.7c-1.3,0.9-2.3,1.6-3.1,2.1
		c-0.9,0.5-1.6,0.7-2.6,0.8c-1.4,0.3-2.4,0.2-2.9-0.1c-0.5-0.2-0.6-0.5-0.6-0.5c0,0,0,0,0,0c0,0,0,0,0,0l0,0c0,0,0.1-0.2,0.3-0.4
		c0.2-0.3,0.6-0.6,1.2-0.9c0.6-0.3,1.5-0.6,2.7-0.8C132.8,160.7,134.4,160.6,136.5,160.7L136.5,160.7
		C136.5,160.7,136.5,160.7,136.5,160.7C136.5,160.7,136.5,160.7,136.5,160.7z M136.3,159.8c-0.7,0.1-1.3-0.3-1.3-0.8l-0.5,0.1
		c0.2,0,0.3,0,0.5-0.1c0,0,0,0,0,0c0-0.5,0.6-1,1.3-1.1c0.7-0.1,1.3,0.3,1.3,0.8C137.6,159.2,137,159.7,136.3,159.8z M143.9,154.9
		c-0.4,0.4-0.7,0.8-1,1c-0.7,0.6-1.3,0.9-2.1,1.1c-1.2,0.4-2,0.3-2.5,0.1c-0.5-0.2-0.6-0.4-0.6-0.4l0,0c0,0,0,0,0,0l0,0
		c0,0,0.1-0.2,0.2-0.5c0.2-0.3,0.4-0.6,0.9-0.9c0.5-0.3,1.1-0.7,2.1-0.9c0.5-0.1,1-0.3,1.7-0.4c0.6-0.1,1.4-0.3,2.2-0.6l0,0
		c0,0,0,0,0,0c0,0,0,0,0,0C144.7,154,144.3,154.5,143.9,154.9z M145.7,151.5c-0.2,0.3-0.5,0.5-0.8,0.7c-0.3,0.2-0.6,0.2-0.9,0.2
		c-0.1,0-0.2-0.1-0.3-0.1c-0.1,0-0.2-0.1-0.3-0.2c-0.1-0.1-0.2-0.2-0.2-0.3c0-0.2,0-0.3,0.1-0.5c0.2-0.4,0.5-0.7,0.9-0.8
		c0.4-0.2,0.7-0.2,1-0.2c0.3,0,0.5,0.2,0.6,0.4C145.9,150.9,145.9,151.2,145.7,151.5z M150.7,146.3c-0.3,0.4-0.5,0.7-0.7,1
		c-0.5,0.6-1,1-1.7,1.2c-1,0.5-1.8,0.5-2.3,0.4c-0.4-0.2-0.6-0.4-0.6-0.4c0,0,0,0,0,0c0,0,0,0,0,0l0,0c0,0,0-0.2,0.2-0.5
		c0.1-0.3,0.3-0.6,0.7-1c0.3-0.4,0.8-0.7,1.6-1.1c0.4-0.2,0.9-0.4,1.5-0.6c0.6-0.2,1.3-0.4,2.2-0.5l0,0c0,0,0,0,0,0c0,0,0,0,0,0
		C151.2,145.4,151,145.9,150.7,146.3z M152,139.1c-0.2,0.6-0.4,1.1-0.6,1.5c-0.4,0.9-0.9,1.6-1.6,2.3c-1,1.2-2,1.7-2.6,1.8
		c-0.6,0.1-0.9,0-0.9,0c0,0,0,0,0,0c0,0,0,0,0,0l0,0c0,0,0-0.2,0.1-0.5c0.1-0.3,0.2-0.8,0.5-1.4c0.3-0.6,0.8-1.3,1.7-2.2
		c0.4-0.5,1-1,1.6-1.6c0.6-0.6,1.4-1.2,2.4-1.8l0,0c0,0,0,0,0,0c0,0,0,0,0,0C152.4,137.9,152.2,138.6,152,139.1z M174.4,63.7
		c-0.3,0.7-0.9,1.1-1.2,1.9c-0.3,0.7-0.7,1.4-1.1,1.9c-0.7,0.4-1.7,0.6-2.5,1c-0.5,0.3-1.1,0.6-1.5,1.1c-0.4,0.4-1.1,0.6-1.4,1.1
		c-0.2,0.6-0.1,1.3-0.3,1.9c-0.8,1.1-2.7,1.3-3.7,2.3c-0.9,0.8-1.7,1.7-2.6,2.4c-1.8,1.5-4.5,2.3-5.9,4.2c-0.9,0.8-1.8,1.6-2.5,2.5
		c-0.3,0.3-0.4,0.8-0.5,1.3c-0.4,0.4-0.9,0.7-1.2,1.2c-0.3,0.4-0.4,1-0.7,1.5c-0.3,0.3-0.8,0.5-1.2,0.7c-0.6,0.6-1.3,1.1-2,1.6
		c-0.9,0.4-2.1,0.6-2.8,1.1c-0.7,0.6-1.2,1.4-1.6,2.2c-0.4,0.8-0.8,1.7-1,2.7c0,1.8,0.1,3.1,0.7,4.2c0.5,1,1.3,1.6,1.9,2.4
		c0.7,0.7,1.3,1.6,2.1,2.2c0.1,0.3,0.3,0.4,0.5,0.6c0.1,0.3,0.3,0.4,0.5,0.6c0.3,0.4,0.7,0.8,1,1.1c0.3,0.5,0.7,0.7,0.9,1.2
		c0.5,0.2,0.6,0.8,1,1.1c0.3,0.7,0.6,1.3,0.8,2.1c-1.2,0.2-2.4,0.2-3.4,0.2c-0.7-0.2-1.3-0.5-2.2-0.6c-0.4,0-0.8,0.1-1.2,0.1
		c-1.8,0.5-2.7,1.9-4,2.9c-0.5,0.1-0.6,0.5-1.2,0.5c-0.6,0-0.8-0.4-1.2-0.6c-0.4-0.2-0.8-0.4-1.2-0.6c-0.8-0.3-1.6-0.7-2.7-0.8
		c-1,0.1-1.8,0.5-2.6,0.8c-1,0.2-2,0.3-2.7,0.7c-1,0.7-1.3,1.9-1.8,3c0.2,1-0.1,1.7-0.3,2.6c-0.2,0.4,0.6,0.3,0.3,1
		c-0.1,1-0.5,1.6-0.9,2.2c0,0.2-0.2,0.4-0.2,0.6c0,0.2,0.1,0.6-0.2,0.6c-0.6,0.2-1.3-0.1-2.1,0.1c-0.8,0.3-1.1,1-1.7,1.6
		c-0.7,0.4-1.2,1-1.8,1.4c-0.7,0.3-1.5,0.5-2.2,0.7c-2.1,0.9-3.8,2.2-5.5,3.5c-1,0.4-2,0.5-2.9,1c-0.6,0.3-1.1,0.9-1.6,1.2
		c-1.9,0.1-3.5,0-5.5,0.2c-2.1,0.7-4.2,1.2-5.8,2.4c-0.8,0.7-1.4,1.5-1.9,2.5c0,0.1,0,0.3-0.1,0.4c-0.1,1.1,0.2,1.8,0.3,2.6
		c0.1,0.3,0.3,0.6,0.5,0.9c0,0.3,0.4,0.7,0.3,0.9c-0.5,0.4-1.3,0.2-1.8,0.1c-0.4,0.1-0.8,0.2-1.3,0.2c-0.9,0.3-1.6,0.8-2.6,1
		c0-2,0.1-4.1-0.8-5.2c-0.3-0.5-0.9-0.7-1.4-1c-0.5-0.3-1-0.6-1.6-0.7c-1.4,0.2-2.6,0.6-3.9,0.9c-0.6,0.2-1,0.6-1.5,0.9
		c-1.1,0.1-1.9,0.5-2.8,0.8c-1-0.1-1.4-0.9-2.2-1.1c-0.7,0-1.2,0.3-1.7,0.2c-0.7,0-0.6-0.9-1.1-1.1c-1.1-0.3-2.5-0.4-3.4-0.9
		c-0.9,0-1.9,0-2.8-0.1c-1.3-0.6-2.2-1.6-3.4-2.4c-0.6-1.1-1.1-2.1-1.7-3.1c0-0.5-0.1-0.9-0.2-1.3c0-0.5,0.2-0.9,0.3-1.3
		c-0.3-0.8-1.5-0.7-2.4-0.9c-0.6-1.4-0.8-3.4-1.4-4.8c0-0.5,0.1-1,0.1-1.6c-0.3-0.9-1.1-1.1-1.5-1.7c-0.4-1.2-1-2.1-1.6-3
		c-0.2-0.8-0.4-1.6-0.7-2.4c0-1,0-1.9-0.1-2.8c0-0.2,0.1-0.2,0.1-0.1c0,0.1,0.1,0.1,0.2,0.2c0,0.2,0.1,0.3,0.3,0.3
		c0,0.4,0.4,0.4,0.4,0.7c1.1,0.7,2.1,1.4,3.3,2c1.6,0.4,4,0.8,5.9-0.2c0.8-0.5,1.1-1.4,1.7-2c0.4-0.8,1-1.5,1.4-2.3
		c0.4-0.8,0.8-1.6,1.3-2.4c0.4-0.8,0.9-1.5,1.6-2c0.7-0.1,1,0.1,1.5,0.1c1-0.3,1.7-0.9,2.5-1.3c1.5-0.1,3.1-0.3,4.2,0.1
		c1.2,0.2,2.2,0.7,3.3,1c1.2,0.1,2.6,0,4-0.2c0.3-0.2,0.7-0.2,0.9-0.4c1.7-0.9,2.6-2.5,3-4.6c0.1-0.6,0-0.7,0-1.3
		c0.1-0.6,0.5-1,0.9-1.4c-0.1-0.3-0.3-0.6-0.3-1.1c0.1-0.6,0.3-1.1,0.3-1.8c-0.2-0.8-0.9-1.1-1.1-1.9c-0.1-1.6,0.2-2.9,0.3-4.4
		c-0.1,0,0-0.3-0.2-0.3c0-0.1,0.1-0.1,0.1,0c1.9,1.2,4,2.2,6.7,2.5c1.4-0.2,2.7-0.3,4-0.2c0.5,0.1,1,0.2,1.5,0.3
		c1.1,0.1,2.3,0.1,3.4,0.2c1.7,0.1,3.3,0.2,5.2,0.1c1.2,0,2.1-0.1,3,0.3c1.4-0.4,2.8-0.7,4.1-1c1.4-0.4,2.7-0.7,4.2-0.9
		c1.2-0.3,2.3-0.7,3.4-1.1c1,0.1,1.8-0.2,2.8-0.4c0.8-0.4,1.5-1,2.1-1.7c0.7-0.5,1.4-1,2.2-1.4c2-1.2,4.5-1.8,6.8-2.6
		c0.6-0.2,1.2-0.4,1.7-0.6c0,0,0.1-0.2,0.2-0.2c0.2-0.1,0.4-0.1,0.6-0.2c0.7-0.4,1.4-0.8,2.2-1.3c0.5-0.3,0.9-0.6,1.4-0.9
		c0.6-0.6,1.4-1,2.2-1.5c0.8-0.6,1.5-1.4,2.5-1.9c0.5-0.1,1.1-0.2,1.6-0.3c0.9-0.5,1.5-1.1,2.5-1.6c1.3-0.8,2.6-1.5,3.8-2.3
		c1.2-0.8,2.3-1.8,3.6-2.5c0.4-0.4,0.5,0.2,0.9,0.1c0.4-0.3,0.8-0.4,1.2-0.6c0.4-0.3,0.7-0.7,0.9-1.1c0.9-0.5,1.4-1.3,2.2-1.9
		c0.7-0.7,1.4-1.3,2.2-1.8c0.5-0.2,0.9,0.1,1.3-0.1c1.3-0.4,2.1-1.1,3.1-1.7c0.9-0.7,1.9-1.3,2.8-1.9
		C174.7,61.6,174.5,62.8,174.4,63.7z"/>
	<path fill="#445522" d="M122.3,167.9L122.3,167.9C122.3,167.9,122.3,167.9,122.3,167.9C122.3,167.9,122.3,167.9,122.3,167.9z"/>
	<path fill="#445522" d="M122.3,167.9c-1-0.1-1.8-0.3-2.6-0.4c-0.7-0.1-1.4-0.3-2-0.3c-1.1-0.2-2-0.1-2.7,0c-1.3,0.3-1.8,1-1.8,1
		c0,0,0.1,0.3,0.5,0.6c0.4,0.3,1.2,0.7,2.5,0.8c0.9,0.2,1.7,0.1,2.6-0.1C119.8,169.3,121,168.8,122.3,167.9
		C122.3,167.9,122.3,167.9,122.3,167.9C122.3,167.9,122.3,167.9,122.3,167.9z"/>
	<polygon fill="#445522" points="111.4,166.8 111.4,166.8 111.4,166.8 	"/>
	<polygon fill="#445522" points="118.7,160.7 118.7,160.7 118.8,160.7 	"/>
	<path fill="#445522" d="M116.2,161.9c-0.7,0.4-1.4,0.7-1.9,1.1c-1.1,0.7-1.8,1.4-2.2,2c-0.8,1.2-0.7,1.9-0.7,1.9l0,0l0,0
		c0,0,0.3,0.1,0.8,0c0.6-0.1,1.4-0.4,2.5-1.3c0.8-0.5,1.4-1,2-1.8c0.6-0.8,1.3-1.7,2-3.1c0,0,0,0,0,0c0,0,0,0,0,0
		C117.8,161.1,116.9,161.5,116.2,161.9z"/>
	<polygon fill="#445522" points="117.2,165.6 117.2,165.6 117.2,165.6 	"/>
	<path fill="#445522" d="M126.8,161.2L126.8,161.2C126.8,161.2,126.8,161.2,126.8,161.2C126.8,161.2,126.8,161.2,126.8,161.2z"/>
	<path fill="#445522" d="M126.8,161.2C126.8,161.2,126.8,161.2,126.8,161.2C126.8,161.2,126.8,161.2,126.8,161.2
		c-1.1,0.4-2.1,0.6-3,0.8c-0.9,0.2-1.6,0.3-2.3,0.5c-1.4,0.4-2.4,0.8-3,1.3c-0.7,0.5-1,1-1.2,1.3c-0.2,0.3-0.2,0.5-0.2,0.5v0
		c0,0,0,0,0,0c0,0,0.3,0.1,0.8,0.1c0.6,0,1.5-0.1,2.9-0.6c1-0.2,1.8-0.6,2.7-1.1c0.5-0.3,1-0.7,1.5-1.1
		C125.7,162.5,126.3,161.9,126.8,161.2z"/>
	<polygon fill="#445522" points="130.9,155.3 130.9,155.3 130.9,155.3 	"/>
	<polygon fill="#445522" points="123.9,160.1 123.9,160.1 123.9,160.1 	"/>
	<path fill="#445522" d="M130.9,155.3C130.9,155.3,130.9,155.3,130.9,155.3C130.9,155.3,130.9,155.3,130.9,155.3
		c-1.8,0.7-3.1,1.3-4.1,1.8c-0.9,0.5-1.5,1-2,1.4c-0.8,0.8-1,1.6-1,1.6v0c0,0,0,0,0,0c0,0,0.2,0.2,0.7,0.3c0.5,0.1,1.4,0,2.6-0.7
		c0.8-0.4,1.4-0.9,2-1.6C129.7,157.5,130.2,156.6,130.9,155.3z"/>
	<polygon fill="#445522" points="129.4,159.7 129.4,159.7 129.4,159.7 	"/>
	<polygon fill="#445522" points="137.4,155.1 137.4,155.1 137.4,155.1 	"/>
	<path fill="#445522" d="M129.6,159.2c-0.1,0.3-0.2,0.5-0.2,0.5v0c0,0,0,0,0,0c0,0,0.2,0.2,0.8,0.3c0.6,0,1.4-0.1,2.7-0.7
		c1.6-0.7,2.6-1.7,4.5-4.1c0,0,0,0,0,0c0,0,0,0,0,0c-2,0.4-3.5,0.9-4.6,1.4c-1.1,0.5-1.8,1-2.3,1.5
		C129.9,158.4,129.7,158.9,129.6,159.2z"/>
	<polygon fill="#445522" points="127.3,163.1 127.3,163.1 127.3,163.1 	"/>
	<path fill="#445522" d="M136.5,160.7C136.5,160.7,136.5,160.7,136.5,160.7C136.5,160.7,136.5,160.7,136.5,160.7L136.5,160.7z"/>
	<path fill="#445522" d="M131.6,160.9c-1.2,0.2-2.1,0.5-2.7,0.8c-0.6,0.3-1,0.6-1.2,0.9c-0.2,0.3-0.3,0.4-0.3,0.4c0,0,0,0,0,0
		c0,0,0,0,0,0c0,0,0.1,0.3,0.6,0.5c0.5,0.2,1.4,0.4,2.9,0.1c0.9-0.1,1.7-0.4,2.6-0.8c0.9-0.5,1.8-1.1,3.1-2.1c0,0,0,0,0,0
		c0,0,0,0,0,0C134.4,160.6,132.8,160.7,131.6,160.9z"/>
	<path fill="#445522" d="M145,153.3L145,153.3C144.9,153.4,144.9,153.4,145,153.3C144.9,153.3,145,153.3,145,153.3z"/>
	<polygon fill="#445522" points="137.7,156.7 137.7,156.7 137.7,156.7 	"/>
	<path fill="#445522" d="M144.9,153.4c-0.9,0.3-1.6,0.4-2.2,0.6c-0.7,0.1-1.2,0.3-1.7,0.4c-1,0.3-1.6,0.6-2.1,0.9
		c-0.5,0.3-0.7,0.7-0.9,0.9c-0.2,0.3-0.2,0.5-0.2,0.5c0,0,0,0,0,0l0,0c0,0,0.1,0.3,0.6,0.4c0.5,0.2,1.3,0.3,2.5-0.1
		c0.8-0.2,1.4-0.5,2.1-1.1c0.3-0.3,0.7-0.6,1-1C144.3,154.5,144.7,154,144.9,153.4C145,153.4,145,153.4,144.9,153.4
		C144.9,153.4,144.9,153.4,144.9,153.4z"/>
	<polygon fill="#445522" points="144.3,146.9 144.3,146.9 144.3,146.9 	"/>
	<polygon fill="#445522" points="138.2,153.7 138.2,153.7 138.2,153.7 	"/>
	<path fill="#445522" d="M138.7,151.8c-0.7,1.1-0.5,1.9-0.5,1.9v0c0,0,0,0,0,0s0.3,0.1,0.8,0c0.5-0.1,1.3-0.5,2.4-1.4
		c0.7-0.5,1.3-1.2,1.7-2c0.5-0.8,0.9-1.9,1.2-3.4c0,0,0,0,0,0c0,0,0,0,0,0c-0.8,0.7-1.5,1.2-2.2,1.6c-0.6,0.5-1.2,0.9-1.6,1.3
		C139.6,150.5,139.1,151.2,138.7,151.8z"/>
	<polygon fill="#445522" points="139,147.1 139,147.1 139,147.1 	"/>
	<polygon fill="#445522" points="135.4,153.5 135.4,153.5 135.4,153.5 	"/>
	<path fill="#445522" d="M137.4,148.8c-0.4,0.5-0.8,0.9-1.1,1.3c-0.6,0.8-0.9,1.3-1,1.8c-0.3,1,0.1,1.6,0.1,1.6c0,0,0,0,0,0
		c0,0,0,0,0,0c0,0,0.3,0.1,0.7-0.1c0.5-0.1,1.1-0.6,1.8-1.5c0.5-0.6,0.8-1.2,0.9-1.9c0.2-0.7,0.2-1.7,0.1-2.9c0,0,0,0,0,0
		c0,0,0,0,0,0C138.4,147.7,137.8,148.3,137.4,148.8z"/>
	<path fill="#445522" d="M145.4,139.5C145.4,139.5,145.4,139.5,145.4,139.5C145.4,139.5,145.4,139.5,145.4,139.5L145.4,139.5z"/>
	<polygon fill="#445522" points="143.2,146 143.2,146 143.2,146 	"/>
	<path fill="#445522" d="M144.1,141.3c-0.4,0.5-0.6,1-0.8,1.4c-0.4,0.8-0.5,1.4-0.5,1.9c0,0.5,0.1,0.8,0.2,1.1
		c0.1,0.2,0.2,0.4,0.2,0.4l0,0l0,0c0,0,0.3,0.1,0.7-0.2c0.4-0.2,1-0.8,1.4-1.8c0.3-0.6,0.5-1.2,0.5-1.9c0-0.7-0.2-1.5-0.4-2.6
		c0,0,0,0,0,0c0,0,0,0,0,0C144.9,140.2,144.4,140.8,144.1,141.3z"/>
	<path fill="#445522" d="M152.7,137.2L152.7,137.2C152.7,137.2,152.7,137.2,152.7,137.2C152.7,137.2,152.7,137.2,152.7,137.2z"/>
	<polygon fill="#445522" points="146.4,144.7 146.4,144.7 146.4,144.7 	"/>
	<path fill="#445522" d="M152.7,137.2c-0.9,0.6-1.7,1.2-2.4,1.8c-0.6,0.6-1.2,1.1-1.6,1.6c-0.9,1-1.4,1.7-1.7,2.2
		c-0.3,0.6-0.5,1-0.5,1.4c-0.1,0.3-0.1,0.5-0.1,0.5c0,0,0,0,0,0c0,0,0,0,0,0c0,0,0.3,0.2,0.9,0c0.6-0.1,1.5-0.6,2.6-1.8
		c0.7-0.7,1.2-1.4,1.6-2.3c0.2-0.4,0.4-0.9,0.6-1.5C152.2,138.6,152.4,137.9,152.7,137.2C152.7,137.2,152.7,137.2,152.7,137.2
		C152.7,137.2,152.7,137.2,152.7,137.2z"/>
	<polygon fill="#445522" points="151.6,144.9 151.6,144.9 151.6,144.9 	"/>
	<polygon fill="#445522" points="145.4,148.5 145.5,148.5 145.5,148.5 	"/>
	<path fill="#445522" d="M151.6,144.9c-0.8,0.1-1.5,0.3-2.2,0.5c-0.6,0.2-1.1,0.4-1.5,0.6c-0.8,0.4-1.3,0.7-1.6,1.1
		c-0.3,0.4-0.5,0.7-0.7,1c-0.1,0.3-0.2,0.4-0.2,0.5c0,0,0,0,0,0c0,0,0,0,0,0c0,0,0.1,0.2,0.6,0.4c0.4,0.1,1.2,0.2,2.3-0.4
		c0.7-0.3,1.2-0.7,1.7-1.2c0.2-0.3,0.5-0.6,0.7-1C151,145.9,151.2,145.4,151.6,144.9C151.6,144.9,151.6,144.9,151.6,144.9
		L151.6,144.9z"/>
	<path fill="#445522" d="M126.6,164.8c-0.3-0.1-0.7-0.2-1.1-0.1c-0.9,0.1-1.7,0.6-1.7,1.1c0,0.5,0.7,0.9,1.6,0.8
		c0.5,0,0.9-0.2,1.2-0.4c0.3-0.2,0.5-0.5,0.4-0.8C127,165.1,126.8,164.9,126.6,164.8z"/>
	<path fill="#445522" d="M122,161.1c0.3-0.3,0.5-0.6,0.5-0.9c0.1-0.3,0-0.6-0.2-0.8c-0.2-0.2-0.5-0.2-0.8-0.1
		c-0.3,0.1-0.6,0.3-0.9,0.6c-0.3,0.3-0.5,0.7-0.6,1c-0.1,0.3,0,0.6,0.2,0.8C120.8,161.9,121.5,161.7,122,161.1z"/>
	<path fill="#445522" d="M133.8,154.9c0.6-0.5,0.8-1.2,0.4-1.6c-0.3-0.4-1-0.3-1.6,0.1c-0.6,0.5-0.8,1.2-0.4,1.6
		C132.6,155.4,133.2,155.4,133.8,154.9z"/>
	<path fill="#445522" d="M134.4,159l0.5-0.1l0,0C134.8,159,134.6,159,134.4,159z"/>
	<path fill="#445522" d="M136.3,157.8c-0.7,0.1-1.3,0.6-1.3,1.1c0,0,0,0,0,0l0,0c0,0.5,0.6,0.9,1.3,0.8c0.7-0.1,1.3-0.6,1.3-1.1
		C137.6,158.1,137,157.8,136.3,157.8z"/>
	<path fill="#445522" d="M145.2,150.3c-0.3,0-0.6,0-1,0.2c-0.4,0.2-0.7,0.5-0.9,0.8c-0.1,0.2-0.1,0.4-0.1,0.5c0,0.2,0.1,0.3,0.2,0.3
		c0.1,0.1,0.2,0.1,0.3,0.2c0.1,0,0.2,0.1,0.3,0.1c0.2,0,0.5,0,0.9-0.2c0.3-0.2,0.6-0.4,0.8-0.7c0.2-0.3,0.2-0.6,0.1-0.8
		C145.7,150.4,145.5,150.3,145.2,150.3z"/>
	<path fill="#445522" d="M141.9,147c0.1-0.3,0.1-0.6,0-0.8c0-0.1-0.1-0.2-0.2-0.3c-0.1-0.1-0.2-0.2-0.3-0.3
		c-0.1-0.1-0.2-0.1-0.4-0.1c-0.1,0-0.3,0.1-0.4,0.2c-0.3,0.2-0.5,0.5-0.6,0.9c-0.2,0.7,0.1,1.2,0.6,1.4
		C141.2,148.2,141.8,147.6,141.9,147z"/>
	<path fill="#445522" d="M102.7,172.1c0.1,0.1,0.4,0.4,0.6,0.8c0.2,0.5,0.3,1,0.2,1.4c0.5-0.7,1.7-2.5,3.9-4.2
		c-0.4-0.2-0.7-0.3-1.1-0.5C104.1,170.6,103,171.8,102.7,172.1z"/>
	<path fill="#445522" d="M108.2,168.9c0.3,0.1,0.6,0.1,0.8,0.2c0.5-0.3,1.1-0.6,1.6-0.8C109.8,168.4,109,168.6,108.2,168.9z"/>
	<path fill="#445522" d="M108.2,168.9c0.7-0.2,1.5-0.5,2.5-0.7c-0.6,0.3-1.1,0.5-1.6,0.8c0.1,0,0.3,0,0.4,0.1
		c0.8-0.4,1.6-0.8,2.5-1.1l0-0.2c-1.6,0.2-3,0.6-4.2,1C107.9,168.8,108.1,168.8,108.2,168.9z"/>
	<path fill="#445522" d="M107.5,170.1c-2.2,1.6-3.5,3.4-3.9,4.2c0-0.4,0-0.9-0.2-1.4c-0.2-0.3-0.5-0.6-0.6-0.8
		c0.3-0.3,1.4-1.4,3.6-2.5c-0.1,0-0.2-0.1-0.3-0.1c-2.4,1.2-3.4,2.4-3.5,2.5l-0.1,0.1l0.1,0.1c0,0,0.3,0.4,0.6,0.8
		c0.3,0.7,0.2,1.5,0.1,1.8c0,0.1,0,0.2,0,0.2l0,0l0.1,0c0.1,0,0.1,0,0.2-0.3l0-0.1c0.2-0.3,1.5-2.5,4.1-4.4
		C107.6,170.2,107.6,170.1,107.5,170.1z"/>
	<polygon fill="#445522" points="102.2,169.3 102.2,169.3 102.2,169.3 	"/>
	<path fill="#445522" d="M93.2,171C93.2,171,93.2,171,93.2,171C93.2,171,93.2,171,93.2,171L93.2,171z"/>
	<path fill="#445522" d="M102.2,169.3c0,0-0.5-0.6-1.8-0.6c-0.7,0-1.5,0.2-2.7,0.6c-0.6,0.2-1.2,0.5-2,0.8c-0.7,0.3-1.6,0.6-2.6,1
		c0,0,0,0,0,0c0,0,0,0,0,0c1.3,0.6,2.5,0.8,3.4,0.9c1,0,1.8-0.1,2.6-0.5c1.4-0.4,2.1-1,2.5-1.4C102.1,169.6,102.2,169.3,102.2,169.3
		C102.2,169.3,102.2,169.3,102.2,169.3L102.2,169.3z"/>
	
		<line fill="none" stroke="#006C55" stroke-width="0" stroke-linecap="round" stroke-linejoin="round" x1="104.1" y1="167.6" x2="104.1" y2="167.6"/>
	<polygon fill="#445522" points="96.7,163 96.7,163 96.7,163 	"/>
	<path fill="#445522" d="M98.7,165.7c0.6,0.6,1.2,1,2,1.3c1.1,0.6,2,0.8,2.5,0.8c0.6,0,0.8-0.2,0.8-0.2c0,0,0,0,0,0
		c0,0,0.2-0.8-0.6-1.8c-0.4-0.5-1.1-1-2.2-1.5c-0.5-0.2-1.2-0.5-1.9-0.7c-0.7-0.2-1.6-0.4-2.6-0.6c0,0,0,0,0,0c0,0,0,0,0,0
		C97.4,164.2,98.1,165.1,98.7,165.7z"/>
	<path fill="#445522" d="M88.6,165.2C88.6,165.2,88.6,165.2,88.6,165.2C88.6,165.2,88.6,165.2,88.6,165.2L88.6,165.2z"/>
	<polygon fill="#445522" points="98.3,167.6 98.3,167.6 98.3,167.6 	"/>
	<path fill="#445522" d="M97.4,167.9c0.6-0.1,0.8-0.3,0.8-0.3c0,0,0,0,0,0v0c0,0,0-0.2-0.2-0.5c-0.2-0.3-0.5-0.7-1.2-1.1
		c-0.7-0.4-1.7-0.6-3-0.7c-0.7,0-1.5,0-2.3,0c-0.9,0-1.8,0.1-2.9-0.1c0,0,0,0,0,0c0,0,0,0,0,0c0.5,0.6,1.1,1.1,1.6,1.4
		c0.5,0.3,1,0.6,1.5,0.8c1,0.4,1.8,0.5,2.7,0.6C96,168.2,96.9,168.1,97.4,167.9z"/>
	<polygon fill="#445522" points="91.6,163.5 91.6,163.5 91.6,163.5 	"/>
	<polygon fill="#445522" points="84.6,160.2 84.6,160.2 84.6,160.2 	"/>
	<path fill="#445522" d="M90.9,164c0.5-0.2,0.7-0.5,0.7-0.5c0,0,0,0,0,0c0,0,0,0,0,0c0,0-0.1-0.8-1-1.4c-0.4-0.3-1-0.6-2-1
		c-0.9-0.3-2.2-0.7-4.1-1c0,0,0,0,0,0c0,0,0,0,0,0c0.7,1.1,1.2,1.9,1.8,2.5c0.6,0.6,1.2,0.9,2,1.1C89.5,164.3,90.4,164.2,90.9,164z"
		/>
	<polygon fill="#445522" points="86,164.2 86,164.2 86,164.2 	"/>
	<polygon fill="#445522" points="78.1,161.4 78.1,161.4 78.1,161.4 	"/>
	<path fill="#445522" d="M78.1,161.4C78.1,161.4,78.1,161.4,78.1,161.4C78.1,161.4,78.1,161.4,78.1,161.4c1.9,2,2.9,2.8,4.5,3.1
		c1.2,0.4,2.1,0.3,2.7,0.2c0.6-0.2,0.8-0.4,0.8-0.4c0,0,0,0,0,0c0,0,0,0,0,0c0,0,0-0.2-0.2-0.5c-0.1-0.3-0.4-0.6-0.9-1
		c-0.5-0.4-1.2-0.7-2.3-1C81.6,161.5,80.1,161.3,78.1,161.4z"/>
	<polygon fill="#445522" points="88.1,167.2 88.1,167.2 88.1,167.2 	"/>
	<polygon fill="#445522" points="78.9,166.8 78.9,166.8 78.9,166.8 	"/>
	<path fill="#445522" d="M87.8,166.8c-0.2-0.2-0.6-0.5-1.2-0.6c-0.6-0.2-1.5-0.3-2.7-0.3c-1.2,0.1-2.9,0.2-5,0.8c0,0,0,0,0,0
		c0,0,0,0,0,0c1.3,0.7,2.3,1.1,3.1,1.4c0.9,0.3,1.6,0.4,2.6,0.3c1.4,0,2.4-0.3,2.9-0.7c0.5-0.3,0.6-0.6,0.6-0.6c0,0,0,0,0,0l0,0
		C88.1,167.2,88,167,87.8,166.8z"/>
	<polygon fill="#445522" points="77.7,163 77.7,163 77.7,163 	"/>
	<path fill="#445522" d="M70.5,161.2C70.5,161.2,70.5,161.2,70.5,161.2C70.5,161.2,70.5,161.2,70.5,161.2L70.5,161.2z"/>
	<path fill="#445522" d="M77.5,162.6c-0.2-0.2-0.4-0.5-0.9-0.8c-0.5-0.2-1.1-0.4-2.1-0.5c-0.5,0-1-0.1-1.7-0.1c-0.6,0-1.4,0-2.2-0.1
		c0,0,0,0,0,0c0,0,0,0,0,0c0.3,0.6,0.7,1,1,1.3c0.4,0.3,0.7,0.6,1,0.8c0.7,0.4,1.3,0.6,2.1,0.6c1.2,0.1,2-0.1,2.5-0.4
		c0.5-0.3,0.6-0.6,0.6-0.6c0,0,0,0,0,0l0,0C77.7,163,77.7,162.8,77.5,162.6z"/>
	<polygon fill="#445522" points="77.2,160.1 77.2,160.1 77.2,160.1 	"/>
	<polygon fill="#445522" points="71.1,154.6 71.1,154.6 71.1,154.6 	"/>
	<path fill="#445522" d="M71.1,154.6C71.1,154.6,71.1,154.6,71.1,154.6C71.1,154.6,71.1,154.6,71.1,154.6c0.3,1.4,0.7,2.4,1.2,3.1
		c0.5,0.7,1,1.2,1.7,1.6c1,0.7,1.8,0.9,2.4,0.9c0.5,0,0.8-0.2,0.8-0.2s0,0,0,0c0,0,0,0,0,0c0,0,0.2-0.8-0.5-1.8
		c-0.4-0.5-0.9-1-1.8-1.6c-0.5-0.3-1-0.6-1.6-0.9C72.7,155.5,71.9,155.1,71.1,154.6z"/>
	<path fill="#445522" d="M76.5,153.7C76.5,153.7,76.5,153.7,76.5,153.7C76.5,153.7,76.5,153.7,76.5,153.7L76.5,153.7z"/>
	<polygon fill="#445522" points="80,159.3 80,159.3 80,159.3 	"/>
	<path fill="#445522" d="M76.5,156.6c0.2,0.7,0.5,1.3,0.9,1.7c0.7,0.8,1.3,1.1,1.8,1.1c0.5,0.1,0.7-0.1,0.7-0.1c0,0,0,0,0,0l0,0
		c0,0,0.3-0.7,0.1-1.6c-0.1-0.5-0.4-1-1-1.6c-0.3-0.3-0.6-0.7-1.1-1c-0.4-0.4-1-0.8-1.5-1.3c0,0,0,0,0,0c0,0,0,0,0,0
		C76.3,154.9,76.4,155.8,76.5,156.6z"/>
	<polygon fill="#445522" points="70,147.5 70,147.5 70,147.5 	"/>
	<polygon fill="#445522" points="72.2,153.5 72.2,153.5 72.2,153.5 	"/>
	<path fill="#445522" d="M69.6,150.2c0,0.7,0.1,1.2,0.5,1.8c0.4,0.9,1,1.4,1.4,1.5c0.4,0.1,0.7,0,0.7,0c0,0,0,0,0,0l0,0
		c0,0,0.1-0.2,0.2-0.4c0.1-0.3,0.2-0.6,0.2-1.1c0-0.5-0.1-1-0.5-1.8c-0.2-0.4-0.5-0.8-0.8-1.2c-0.3-0.5-0.8-1-1.4-1.5c0,0,0,0,0,0
		c0,0,0,0,0,0C69.8,148.7,69.6,149.5,69.6,150.2z"/>
	<polygon fill="#445522" points="62.8,146.6 62.8,146.7 62.8,146.7 	"/>
	<polygon fill="#445522" points="69,152.9 69,152.9 69,152.9 	"/>
	<path fill="#445522" d="M65.6,151.8c1,1,2,1.2,2.6,1.2c0.6,0,0.9-0.2,0.9-0.2c0,0,0,0,0,0v0c0,0,0-0.2-0.1-0.5
		c-0.1-0.3-0.2-0.7-0.5-1.2c-0.3-0.5-0.8-1.1-1.7-1.9c-0.4-0.4-1-0.8-1.6-1.3c-0.6-0.4-1.4-0.9-2.4-1.3c0,0,0,0,0,0c0,0,0,0,0,0
		c0.3,0.7,0.5,1.3,0.7,1.8c0.2,0.5,0.4,1,0.6,1.4C64.4,150.7,64.9,151.3,65.6,151.8z"/>
	<polygon fill="#445522" points="63.9,154.2 63.9,154.2 63.9,154.2 	"/>
	<polygon fill="#445522" points="70,156.5 70,156.5 70,156.5 	"/>
	<path fill="#445522" d="M70,156.5C70,156.5,70,156.5,70,156.5L70,156.5c0,0,0-0.2-0.2-0.4c-0.1-0.3-0.3-0.6-0.7-0.8
		c-0.3-0.3-0.8-0.5-1.6-0.7c-0.4-0.1-0.9-0.2-1.5-0.3c-0.6-0.1-1.3-0.1-2.1,0c0,0,0,0,0,0c0,0,0,0,0,0c0.4,0.4,0.6,0.8,0.9,1.2
		c0.2,0.3,0.5,0.6,0.7,0.9c0.5,0.5,1,0.8,1.7,0.9c1,0.3,1.8,0.1,2.3-0.1C69.9,156.7,70,156.5,70,156.5z"/>
	<path fill="#445522" d="M90,168.4c-0.4,0.1-0.8,0.2-1.1,0.4c-0.3,0.2-0.5,0.4-0.5,0.7c0,0.3,0.1,0.5,0.4,0.7
		c0.3,0.2,0.8,0.2,1.2,0.2c0.9-0.1,1.6-0.6,1.6-1.2C91.7,168.6,90.9,168.3,90,168.4z"/>
	<path fill="#445522" d="M95.1,164.3c0.2-0.2,0.3-0.5,0.2-0.8c-0.1-0.3-0.3-0.6-0.6-0.9c-0.3-0.2-0.6-0.4-0.9-0.4
		c-0.3,0-0.6,0.1-0.8,0.3c-0.2,0.2-0.2,0.5-0.2,0.8c0.1,0.3,0.3,0.6,0.5,0.8C94,164.6,94.6,164.6,95.1,164.3z"/>
	<path fill="#445522" d="M83.2,160.2c0.3-0.5,0.1-1.1-0.4-1.5c-0.5-0.3-1.2-0.2-1.6,0.2c-0.3,0.5-0.1,1.1,0.4,1.5
		C82.2,160.8,82.9,160.7,83.2,160.2z"/>
	<path fill="#445522" d="M81,164.6c-0.2,0-0.3,0-0.5,0.1l0,0L81,164.6z"/>
	<path fill="#445522" d="M80.5,164.7L80.5,164.7C80.5,164.7,80.5,164.7,80.5,164.7c0-0.5-0.6-0.9-1.3-0.8c-0.7,0.1-1.3,0.6-1.3,1.1
		c0,0.5,0.6,0.9,1.3,0.8C79.9,165.7,80.5,165.2,80.5,164.7z"/>
	<path fill="#445522" d="M71.5,160c0.1,0,0.2-0.1,0.3-0.2c0.1-0.1,0.2-0.1,0.3-0.2c0.1-0.1,0.2-0.2,0.2-0.4c0-0.2,0-0.3-0.1-0.5
		c-0.2-0.3-0.5-0.5-0.9-0.6c-0.4-0.1-0.7-0.1-1,0c-0.3,0.1-0.5,0.3-0.6,0.5c-0.1,0.2-0.1,0.5,0.1,0.8c0.2,0.2,0.5,0.4,0.8,0.5
		C70.9,160.1,71.2,160.1,71.5,160z"/>
	<path fill="#445522" d="M74.8,155c0.5-0.2,0.8-0.8,0.6-1.5c-0.1-0.3-0.3-0.6-0.6-0.7c-0.1-0.1-0.3-0.1-0.4-0.1
		c-0.1,0-0.3,0.1-0.4,0.2c-0.1,0.1-0.2,0.2-0.3,0.3c-0.1,0.1-0.2,0.2-0.2,0.3c-0.1,0.2-0.1,0.5,0,0.8
		C73.7,154.8,74.3,155.2,74.8,155z"/>
	<path fill="#445522" d="M104.7,168.8c4.3,0.9,6.5,3.6,7.2,4.5c0-0.4,0-0.9,0.2-1.5c0.2-0.4,0.5-0.7,0.6-0.9
		C112.3,170.6,109.9,168.8,104.7,168.8z"/>
	<path fill="#445522" d="M109.5,169.1c-0.1,0-0.3-0.1-0.4-0.1c-0.3-0.1-0.5-0.1-0.8-0.2c-0.2,0-0.3-0.1-0.5-0.1
		c-1.2-0.2-2.5-0.2-4.2-0.1l0,0.2c0.9,0.1,1.7,0.3,2.5,0.6c0.1,0,0.2,0.1,0.3,0.1c0.4,0.1,0.8,0.3,1.1,0.5c0.1,0,0.2,0.1,0.2,0.1
		c2.6,1.4,3.9,3.3,4.1,3.6l0,0.1c0.1,0.2,0.2,0.2,0.2,0.2l0.1,0l0-0.1c0-0.1,0-0.1,0-0.2c-0.1-0.3-0.3-1,0.1-1.8
		c0.3-0.5,0.6-0.9,0.6-0.9l0.1-0.1l-0.1-0.1C112.9,170.8,111.9,169.8,109.5,169.1z M111.9,173.4c-0.6-0.9-2.9-3.6-7.2-4.5
		c5.2-0.1,7.6,1.8,8,2.2c-0.1,0.2-0.4,0.5-0.6,0.9C111.9,172.5,111.9,173,111.9,173.4z"/>
	<path fill="#CC7700" d="M171.8,62.8c-1,0.6-1.8,1.4-3.1,1.7c-0.4,0.3-0.8,0-1.3,0.1c-0.8,0.5-1.6,1.1-2.2,1.8
		c-0.7,0.6-1.3,1.4-2.2,1.9c-0.3,0.5-0.5,0.8-0.9,1.1c-0.4,0.3-0.8,0.3-1.2,0.6c-0.4,0.1-0.5-0.4-0.9-0.1c-1.3,0.7-2.4,1.7-3.6,2.5
		c-1.2,0.8-2.5,1.5-3.8,2.3c-1,0.4-1.6,1.1-2.5,1.6c-0.5,0.2-1.1,0.2-1.6,0.3c-1,0.5-1.7,1.3-2.5,1.9c-0.7,0.5-1.6,0.9-2.2,1.5
		c-0.5,0.3-0.9,0.6-1.4,0.9c-0.7,0.5-1.4,0.9-2.2,1.3c-0.2,0.1-0.4,0.2-0.6,0.2c0,0-0.1,0.2-0.2,0.2c-0.5,0.3-1.1,0.4-1.7,0.6
		c-2.3,0.8-4.8,1.4-6.8,2.6c-0.8,0.4-1.5,0.9-2.2,1.4c-0.6,0.7-1.2,1.2-2.1,1.7c-1,0.2-1.8,0.5-2.8,0.4c-1,0.5-2.2,0.8-3.4,1.1
		c-1.5,0.2-2.9,0.5-4.2,0.9c-1.4,0.4-2.7,0.7-4.1,1c-0.9-0.3-1.9-0.3-3-0.3c-1.9,0-3.5,0-5.2-0.1c-1.1-0.1-2.3,0-3.4-0.2
		c-0.5-0.1-1-0.2-1.5-0.3c-1.2-0.1-2.5,0-4,0.2c-2.7-0.3-4.8-1.3-6.7-2.5c0,0-0.1-0.1-0.1,0c0.2,0,0.1,0.3,0.2,0.3
		c0,1.5-0.4,2.8-0.3,4.4c0.3,0.8,0.9,1.1,1.1,1.9c0,0.7-0.2,1.2-0.3,1.8c-0.1,0.5,0.1,0.8,0.3,1.1c-0.3,0.4-0.7,0.8-0.9,1.4
		c0,0.6,0.1,0.7,0,1.3c-0.4,2.1-1.3,3.7-3,4.6c-0.2,0.2-0.7,0.2-0.9,0.4c-1.4,0.1-2.8,0.2-4,0.2c-1.1-0.3-2.1-0.8-3.3-1
		c-1.1-0.3-2.7-0.2-4.2-0.1c-0.8,0.4-1.5,1-2.5,1.3c-0.6,0-0.9-0.2-1.5-0.1c-0.8,0.5-1.2,1.2-1.6,2c-0.5,0.8-0.9,1.6-1.3,2.4
		c-0.4,0.8-1,1.5-1.4,2.3c-0.6,0.6-1,1.5-1.7,2c-1.8,1-4.2,0.6-5.9,0.2c-1.2-0.6-2.2-1.3-3.3-2c-0.1-0.4-0.4-0.4-0.4-0.7
		c-0.1-0.1-0.3-0.1-0.3-0.3c-0.1,0-0.1-0.1-0.2-0.2c0-0.1-0.1-0.1-0.1,0.1c0,0.9,0.1,1.8,0.1,2.8c0.3,0.7,0.5,1.5,0.7,2.4
		c0.6,0.9,1.2,1.9,1.6,3c0.5,0.6,1.3,0.9,1.5,1.7c0.1,0.6-0.1,1-0.1,1.6c0.6,1.4,0.8,3.3,1.4,4.8c0.9,0.2,2.1,0,2.4,0.9
		c-0.1,0.4-0.3,0.8-0.3,1.3c0.1,0.4,0.2,0.7,0.2,1.3c0.6,1,1.2,2,1.7,3.1c1.1,0.8,2.1,1.8,3.4,2.4c0.9,0.1,1.9,0.1,2.8,0.1
		c1,0.5,2.3,0.6,3.4,0.9c0.6,0.2,0.4,1.1,1.1,1.1c0.5,0.1,1.1-0.2,1.7-0.2c0.9,0.2,1.3,1,2.2,1.1c0.8-0.3,1.7-0.7,2.8-0.8
		c0.5-0.3,0.9-0.7,1.5-0.9c1.3-0.3,2.5-0.7,3.9-0.9c0.7,0.1,1.1,0.4,1.6,0.7c0.5,0.3,1.1,0.5,1.4,1c0.9,1.1,0.8,3.2,0.8,5.2
		c1-0.2,1.7-0.7,2.6-1c0.5,0,0.9-0.1,1.3-0.2c0.5,0.1,1.3,0.3,1.8-0.1c0.2-0.3-0.2-0.6-0.3-0.9c-0.2-0.3-0.4-0.6-0.5-0.9
		c-0.1-0.9-0.4-1.6-0.3-2.6c0.1,0,0.1-0.2,0.1-0.4c0.5-0.9,1.1-1.8,1.9-2.5c1.5-1.2,3.7-1.7,5.8-2.4c2-0.3,3.6-0.1,5.5-0.2
		c0.6-0.3,1-0.9,1.6-1.2c0.9-0.5,1.9-0.6,2.9-1c1.7-1.3,3.4-2.6,5.5-3.5c0.8-0.2,1.5-0.4,2.2-0.7c0.7-0.4,1.2-1,1.8-1.4
		c0.6-0.5,0.9-1.3,1.7-1.6c0.8-0.2,1.5,0.1,2.1-0.1c0.2,0,0.2-0.4,0.2-0.6c0-0.2,0.2-0.4,0.2-0.6c0.5-0.6,0.9-1.2,0.9-2.2
		c0.2-0.7-0.6-0.6-0.3-1c0.2-0.9,0.4-1.6,0.3-2.6c0.5-1.1,0.9-2.3,1.8-3c0.7-0.4,1.7-0.6,2.7-0.7c0.8-0.3,1.6-0.7,2.6-0.8
		c1,0.1,1.8,0.4,2.7,0.8c0.4,0.2,0.8,0.4,1.2,0.6c0.4,0.2,0.6,0.6,1.2,0.6c0.6,0,0.7-0.4,1.2-0.5c1.2-1.1,2.1-2.4,4-2.9
		c0.4,0,0.8-0.1,1.2-0.1c0.8,0.1,1.4,0.4,2.2,0.6c1,0.1,2.2,0,3.4-0.2c-0.2-0.8-0.5-1.4-0.8-2.1c-0.4-0.3-0.6-0.9-1-1.1
		c-0.3-0.5-0.7-0.7-0.9-1.2c-0.4-0.3-0.7-0.7-1-1.1c-0.2-0.1-0.4-0.3-0.5-0.6c-0.2-0.2-0.5-0.2-0.5-0.6c-0.8-0.6-1.4-1.5-2.1-2.2
		c-0.6-0.8-1.4-1.4-1.9-2.4c-0.5-1.1-0.7-2.4-0.7-4.2c0.3-1,0.6-1.9,1-2.7c0.5-0.8,0.9-1.7,1.6-2.2c0.8-0.5,1.9-0.7,2.8-1.1
		c0.7-0.5,1.4-1,2-1.6c0.4-0.3,0.9-0.4,1.2-0.7c0.3-0.5,0.4-1,0.7-1.5c0.3-0.5,0.8-0.8,1.2-1.2c0.2-0.4,0.3-0.9,0.5-1.3
		c0.7-0.9,1.6-1.7,2.5-2.5c1.5-1.8,4.1-2.7,5.9-4.2c0.9-0.8,1.7-1.7,2.6-2.4c1-1,2.9-1.2,3.7-2.3c0.2-0.5,0.2-1.3,0.3-1.9
		c0.3-0.5,1-0.7,1.4-1.1c0.4-0.5,0.9-0.8,1.5-1.1c0.8-0.4,1.8-0.5,2.5-1c0.5-0.6,0.8-1.2,1.1-1.9c0.3-0.7,0.9-1.1,1.2-1.9
		c0.1-0.8,0.4-2,0.3-2.8C173.7,61.5,172.7,62.1,171.8,62.8z"/>
</g>
<path d="M181.4,0c-25.5,0-55.7,18.8-74,50.2C102.5,38.9,84.9,26.5,64,26.5c-16.8,0-64,21-64,88.9C0,203,88.6,221,106.5,248.2
	c1.2,1.9,5.2,3.3,6.7-1.2c14.3-42.2,125.1-89.8,125.1-175.7C238.4,23.2,206.9,0,181.4,0z M24.2,111.4C24.8,57.1,53,40.2,68.4,40.2
	c21.5,0,30.3,16.4,31.8,23.6c1.4,7.2,9.6,13,12.2,1.2c2.6-11.9,27.9-48.1,58.9-48.1c28.4,0,38.3,29.3,37.4,54.2
	c-2.3,67.9-89.7,122-101.3,156.2C97.1,206.6,23.5,176.6,24.2,111.4z"/>
</svg>
