<?xml version="1.0" encoding="utf-8"?>
<!-- Generator: Adobe Illustrator 23.0.1, SVG Export Plug-In . SVG Version: 6.00 Build 0)  -->
<svg version="1.1" id="Livello_1" xmlns="http://www.w3.org/2000/svg" xmlns:xlink="http://www.w3.org/1999/xlink" x="0px" y="0px"
	 viewBox="0 0 238.4 250" enable-background="new 0 0 238.4 250" xml:space="preserve">
<g>
	<path fill-rule="evenodd" clip-rule="evenodd" fill="#DD1122" d="M34.1,174.2c0,0,69.5-50.6,85-52.7c15.5-2.1,73.3-10,87.9-11.8
		c14.6-1.8-98.1,118-98,123.6C109.2,239,34.1,174.2,34.1,174.2L34.1,174.2z"/>
	<path fill-rule="evenodd" clip-rule="evenodd" fill="#FFFFFF" d="M119.2,121.5l86.5-11.8c0,0,32.8-69.6,5.3-87.2
		c-27.5-17.6-62.1-12.7-60.3-8.8c1.8,3.9-43.7,28.9-42.2,41c1.5,12.1-25.5-29.9-32.8-24S33,35.8,28.3,56.5
		C13,83,119.2,121.5,119.2,121.5L119.2,121.5z"/>
	<polygon fill-rule="evenodd" clip-rule="evenodd" fill="#114477" points="28.3,63.5 119.2,121.5 40,181.8 14.2,117.4 28.3,63.5 	
		"/>
	<path fill-rule="evenodd" clip-rule="evenodd" d="M24.2,111.4C24.8,57.1,53,40.2,68.4,40.2c21.5,0,30.3,16.4,31.8,23.6
		c1.4,7.3,9.6,13,12.2,1.2c2.6-11.9,27.9-48.1,58.9-48.1c28.4,0,38.3,29.3,37.4,54.2c-2.3,67.9-89.7,122-101.3,156.2
		C97.1,206.6,23.5,176.6,24.2,111.4L24.2,111.4z M181.4,0c-25.5,0-55.7,18.8-74,50.2C102.5,38.9,84.9,26.5,64,26.5
		c-16.8,0-64,21-64,88.9C0,203,88.6,221,106.5,248.2c1.2,1.9,5.2,3.3,6.7-1.2c14.3-42.2,125.1-89.8,125.1-175.7
		C238.4,23.2,206.9,0,181.4,0L181.4,0z"/>
</g>
</svg>
