<?xml version="1.0" encoding="utf-8"?>
<!-- Generator: Adobe Illustrator 23.0.1, SVG Export Plug-In . SVG Version: 6.00 Build 0)  -->
<svg version="1.1" id="Livello_1" xmlns="http://www.w3.org/2000/svg" xmlns:xlink="http://www.w3.org/1999/xlink" x="0px" y="0px"
	 viewBox="0 0 238.4 250" enable-background="new 0 0 238.4 250" xml:space="preserve">
<g>
	<g>
		<path fill="#003388" d="M76.3,41v64.8l-52.1,5.5c0,0,0,0,0,0.1c-0.2,16.5,4.4,30.8,11.5,43.2l40.5-4.3v48.3
			c14.5,11.8,27.3,20.9,31.1,28.7c2.1-6.3,6.9-13.3,13.2-21v-60.7l59.5-6.3c11-14.7,20.3-30.4,25.1-47.1l-84.6,8.9V49
			c-4.5,6.4-7.4,12.3-8.2,15.9c-2.6,11.9-10.7,6.1-12.2-1.2C98.9,57.5,92.1,44.4,76.3,41z"/>
		<path fill="#FFFFFF" d="M205.2,92.2c2-6.9,3.2-14,3.4-21.2c0.9-24.9-9-54.2-37.4-54.2c-21.6,0-40.4,17.5-50.7,32.2v52.1
			L205.2,92.2z"/>
		<path fill="#FFFFFF" d="M35.7,154.6c10.4,18.2,26.3,32.4,40.5,44v-48.3L35.7,154.6z"/>
		<path fill="#FFFFFF" d="M120.6,206.3c15.4-18.7,40.2-41.2,59.5-67l-59.5,6.3V206.3z"/>
		<path fill="#FFFFFF" d="M76.3,41c-2.4-0.5-5-0.8-7.9-0.8c-15.4,0-43.6,17-44.2,71.1l52.1-5.5V41z"/>
	</g>
	<path d="M181.4,0c-25.5,0-55.7,18.8-74,50.2C102.5,38.9,84.9,26.5,64,26.5c-16.8,0-64,21-64,88.9C0,203,88.6,221,106.5,248.2
		c1.2,1.9,5.2,3.3,6.7-1.2c14.3-42.2,125.1-89.8,125.1-175.7C238.4,23.2,206.9,0,181.4,0z M24.2,111.4C24.8,57.1,53,40.2,68.4,40.2
		c21.5,0,30.3,16.4,31.8,23.6c1.4,7.2,9.6,13,12.2,1.2c2.6-11.9,27.9-48.1,58.9-48.1c28.4,0,38.3,29.3,37.4,54.2
		c-2.3,67.9-89.7,122-101.3,156.2C97.1,206.6,23.5,176.6,24.2,111.4z"/>
</g>
</svg>
