<?xml version="1.0" encoding="utf-8"?>
<!-- Generator: Adobe Illustrator 23.0.1, SVG Export Plug-In . SVG Version: 6.00 Build 0)  -->
<svg version="1.1" id="Livello_1" xmlns="http://www.w3.org/2000/svg" xmlns:xlink="http://www.w3.org/1999/xlink" x="0px" y="0px"
	 viewBox="0 0 238.4 250" enable-background="new 0 0 238.4 250" xml:space="preserve">
<g>
	<g>
		<path fill="#002277" d="M132.1,193.2c8.2-8.9,17.5-18.4,26.8-28.6L134,151.3L132.1,193.2z"/>
		<path fill="#002277" d="M59.2,183.7c9,8.7,18.5,16.1,26.7,22.7l2.2-46.2L59.2,183.7z"/>
		<path fill="#002277" d="M208.4,74.7c0.1-1.2,0.2-2.4,0.2-3.6c0.1-3,0-6.1-0.2-9.2l-19,15.5L208.4,74.7z"/>
		<path fill="#002277" d="M197.4,29.3c-6-7.5-14.5-12.5-26.1-12.5c-13.7,0-26.3,7.1-36.3,16.1L134,81L197.4,29.3z"/>
		<path fill="#002277" d="M88.8,46.7c-4.9-3.8-11.6-6.6-20.4-6.6c-8.4,0-20.7,5.1-30.1,18.6l49.8,26.5L88.8,46.7z"/>
		<path fill="#003876" d="M25.5,93.5c-0.3,2.3-0.6,4.7-0.8,7.2L36,99.1L25.5,93.5z"/>
		<path fill="#CF142B" d="M77.1,155.2l-10.3,1.5l-18.7,15.3c2.3,2.7,4.8,5.4,7.3,7.9l32-26.1L77.1,155.2z"/>
		<path fill="#CF142B" d="M148.4,83.2l10.3-1.5L205,43.9c-1.2-3.6-2.7-7-4.6-10.1l-62.3,50.9L148.4,83.2z"/>
		<path fill="#CF142B" d="M56.5,96.2l10.3-1.5L30,75.1c-1.3,3.7-2.4,7.7-3.3,12.1l19.6,10.4L56.5,96.2z"/>
		<path fill="#CF142B" d="M158.6,143.7l12.7,6.7c2.6-3.2,5.2-6.4,7.7-9.6l-10.1,1.4L158.6,143.7z"/>
		<path fill="#FFFFFF" d="M32.8,149.1c4.1,8.4,9.4,15.9,15.3,22.8l18.7-15.3l10.3-1.5l10.3-1.5l-32,26.1c1.3,1.3,2.5,2.6,3.8,3.8
			l28.9-23.6l-2.2,46.2c3.1,2.5,6,4.8,8.6,7l2.7-73.4L32.8,149.1z"/>
		<path fill="#FFFFFF" d="M158.6,81.7l-10.3,1.5l-10.3,1.5l62.3-50.9c-0.9-1.6-1.9-3-3-4.4L134,81l0.9-48.2c-3.4,3-6.5,6.3-9.2,9.5
			l-0.9,56.5l81.7-11.6c1-4.2,1.6-8.4,2-12.7l-19,2.7l19-15.5c-0.4-6.1-1.6-12.3-3.5-17.9L158.6,81.7z"/>
		<path fill="#FFFFFF" d="M122.3,204.2c3-3.5,6.3-7.2,9.8-11l1.9-41.9l24.9,13.3c4.2-4.6,8.3-9.3,12.4-14.2l-12.7-6.7l10.3-1.5
			l10.1-1.4c3.4-4.5,6.7-9.1,9.7-13.8l-63.9,9.1L122.3,204.2z"/>
		<path fill="#FFFFFF" d="M98,57.7c-1.8-3.6-4.8-7.7-9.1-11l-0.7,38.6L38.3,58.8c-3.2,4.5-6,9.9-8.3,16.4l36.8,19.6l-10.3,1.5
			l-10.3,1.5L26.6,87.2c-0.4,2-0.8,4.1-1.1,6.3L36,99.1l-11.3,1.6c-0.3,3.4-0.5,6.9-0.5,10.7c0,0.6,0,1.2,0,1.8l73-10.4L98,57.7z"/>
		<path fill="#CF142B" d="M125.7,42.4c-7.4,8.8-12.3,17.7-13.3,22.6c-2.6,11.9-10.7,6.1-12.2-1.2c-0.3-1.6-1.1-3.8-2.2-6.1
			l-0.7,45.1l-73,10.4c0.1,13.4,3.4,25.3,8.6,36l64.4-9.1l-2.7,73.4c5.3,4.4,9.5,8.5,11.8,12.2l1.8-0.2c2.6-6.4,7.7-13.4,14.2-21.1
			l2.5-68.1l63.9-9.1c8.1-12.6,14.5-25.8,17.7-39.7l-81.7,11.6L125.7,42.4z"/>
	</g>
	<path d="M181.4,0c-25.5,0-55.7,18.8-74,50.2C102.5,38.9,84.9,26.5,64,26.5c-16.8,0-64,21-64,88.9C0,203,88.6,221,106.5,248.2
		c1.2,1.9,5.2,3.3,6.7-1.2c14.3-42.2,125.1-89.8,125.1-175.7C238.4,23.2,206.9,0,181.4,0z M24.2,111.4C24.8,57.1,53,40.2,68.4,40.2
		c21.5,0,30.3,16.4,31.8,23.6c1.4,7.2,9.6,13,12.2,1.2c2.6-11.9,27.9-48.1,58.9-48.1c28.4,0,38.3,29.3,37.4,54.2
		c-2.3,67.9-89.7,122-101.3,156.2C97.1,206.6,23.5,176.6,24.2,111.4z"/>
</g>
</svg>
