<?xml version="1.0" encoding="utf-8"?>
<!-- Generator: Adobe Illustrator 23.0.1, SVG Export Plug-In . SVG Version: 6.00 Build 0)  -->
<svg version="1.1" id="Livello_1" xmlns="http://www.w3.org/2000/svg" xmlns:xlink="http://www.w3.org/1999/xlink" x="0px" y="0px"
	 viewBox="0 0 238.4 250" enable-background="new 0 0 238.4 250" xml:space="preserve">
<g>
	<path fill="#FFFFFF" d="M94,51.8c-5-6.1-13.2-11.6-25.7-11.6c-15.4,0-43.6,17-44.2,71.2c0,1.1,0,2.2,0,3.2l70.2-7.4L94,51.8z
		 M72.7,91.4c-2.9-0.2-5.8-0.2-8.8-0.1c0.1,3,0.5,5.9,1,8.7c-1.4,0-2.9,0-4.4,0.2c-1.5,0.2-3,0.4-4.4,0.7c0.5-2.9,0.9-5.9,1-8.9
		c-3,0.5-5.9,1.1-8.8,1.9c0.2-1.5,0.3-2.9,0.3-4.4c0-1.5-0.1-3-0.3-4.4c2.9,0.2,5.8,0.2,8.8,0.1c-0.1-3-0.5-5.9-1-8.7
		c1.4,0,2.9,0,4.4-0.2c1.5-0.2,3-0.4,4.4-0.7c-0.5,2.9-0.9,5.9-1,8.9c3-0.5,5.9-1.1,8.8-1.9c-0.2,1.5-0.3,2.9-0.3,4.4
		C72.5,88.5,72.5,90,72.7,91.4z"/>
	<path fill="#FFFFFF" d="M118.9,129.1l-0.5,79.9c18.5-23.4,53.5-53.2,74.1-88L118.9,129.1z M154.8,151.5c0.1,3,0.5,5.9,1,8.7
		c-1.4,0-2.9,0-4.4,0.2c-1.5,0.2-3,0.4-4.4,0.7c0.5-2.9,0.9-5.9,1-8.9c-3,0.5-5.9,1.1-8.8,1.9c0.2-1.5,0.3-2.9,0.3-4.4
		c0-1.5-0.1-3-0.3-4.4c2.9,0.2,5.8,0.2,8.8,0.1c-0.1-3-0.5-5.9-1-8.7c1.4,0,2.9,0,4.4-0.2c1.5-0.2,3-0.4,4.4-0.7
		c-0.5,2.9-0.9,5.9-1,8.9c3-0.5,5.9-1.1,8.8-1.9c-0.2,1.5-0.3,2.9-0.3,4.4c0,1.5,0.1,3,0.3,4.4C160.7,151.3,157.8,151.3,154.8,151.5
		z"/>
	<path fill="#FFFFFF" d="M28.5,138.6C40.4,174,74.3,196.4,94,212.9l0.5-81.2L28.5,138.6z M66.8,161c0.1,3,0.5,5.9,1,8.7
		c-1.4,0-2.9,0-4.4,0.2c-1.5,0.2-3,0.4-4.4,0.7c0.5-2.9,0.9-5.9,1-8.9c-3,0.5-5.9,1.1-8.8,1.9c0.2-1.5,0.3-2.9,0.3-4.4
		c0-1.5-0.1-3-0.3-4.4c2.9,0.2,5.8,0.2,8.8,0.1c-0.1-3-0.5-5.9-1-8.7c1.4,0,2.9,0,4.4-0.2c1.5-0.2,3-0.4,4.4-0.7
		c-0.5,2.9-0.9,5.9-1,8.9c3-0.5,5.9-1.1,8.8-1.9c-0.2,1.5-0.3,2.9-0.3,4.4c0,1.5,0.1,3,0.3,4.4C72.7,160.9,69.7,160.8,66.8,161z"/>
	<path fill="#FFFFFF" d="M204.3,95.2c2.5-7.8,4.1-15.9,4.3-24.1c0.9-24.9-9-54.2-37.4-54.2c-23.1,0-43.1,20.2-52.8,35.3l0.4,52.4
		L204.3,95.2z M140.1,76.6c2.9,0.2,5.8,0.2,8.8,0.1c-0.1-3-0.5-5.9-1-8.7c1.4,0,2.9,0,4.4-0.2c1.5-0.2,3-0.4,4.4-0.7
		c-0.5,2.9-0.9,5.9-1,8.9c3-0.5,5.9-1.1,8.8-1.9c-0.2,1.5-0.3,2.9-0.3,4.4c0,1.5,0.1,3,0.3,4.4c-2.9-0.2-5.8-0.2-8.8-0.1
		c0.1,3,0.5,5.9,1,8.7c-1.4,0-2.9,0-4.4,0.2c-1.5,0.2-3,0.4-4.4,0.7c0.5-2.9,0.9-5.9,1-8.9c-3,0.5-5.9,1.1-8.8,1.9
		c0.2-1.5,0.3-2.9,0.3-4.4C140.4,79.5,140.3,78,140.1,76.6z"/>
	<path fill="#E8112D" d="M192.5,120.9c4.9-8.3,9-16.9,11.8-25.8l-85.5,9.4l-0.4-52.4c-3.3,5.2-5.5,9.8-6.1,12.8
		c-2.6,11.9-10.7,6.1-12.2-1.2c-0.6-3-2.5-7.7-6.1-12l0.4,55.4l-70.2,7.4c0.2,8.6,1.8,16.6,4.3,24l66-7L94,212.9
		c6.4,5.4,11.3,10.1,13.4,14.4c1.9-5.6,5.8-11.7,11-18.3l0.5-79.9L192.5,120.9z"/>
	<path fill="#E8112D" d="M148.9,83.5c-0.1,3-0.5,6-1,8.9c1.4-0.3,2.9-0.6,4.4-0.7c1.5-0.2,3-0.2,4.4-0.2c-0.5-2.8-0.9-5.7-1-8.7
		c3-0.2,5.9-0.1,8.8,0.1c-0.2-1.4-0.3-2.9-0.3-4.4c0-1.5,0.1-3,0.3-4.4c-2.9,0.8-5.8,1.5-8.8,1.9c0.1-3,0.5-6,1-8.9
		c-1.4,0.3-2.9,0.6-4.4,0.7c-1.5,0.2-3,0.2-4.4,0.2c0.5,2.8,0.9,5.7,1,8.7c-3,0.2-5.9,0.1-8.8-0.1c0.2,1.4,0.3,2.9,0.3,4.4
		c0,1.5-0.1,3-0.3,4.4C143,84.6,145.9,84,148.9,83.5z"/>
	<path fill="#E8112D" d="M63.9,84.5c0.1-3,0.5-6,1-8.9c-1.4,0.3-2.9,0.6-4.4,0.7c-1.5,0.2-3,0.2-4.4,0.2c0.5,2.8,0.9,5.7,1,8.7
		c-3,0.2-5.9,0.1-8.8-0.1c0.2,1.4,0.3,2.9,0.3,4.4c0,1.5-0.1,3-0.3,4.4c2.9-0.8,5.8-1.5,8.8-1.9c-0.1,3-0.5,6-1,8.9
		c1.4-0.3,2.9-0.6,4.4-0.7c1.5-0.2,3-0.2,4.4-0.2c-0.5-2.8-0.9-5.7-1-8.7c3-0.2,5.9-0.1,8.8,0.1c-0.2-1.4-0.3-2.9-0.3-4.4
		c0-1.5,0.1-3,0.3-4.4C69.8,83.4,66.9,84.1,63.9,84.5z"/>
	<path fill="#E8112D" d="M163.6,142.7c-2.9,0.8-5.8,1.5-8.8,1.9c0.1-3,0.5-6,1-8.9c-1.4,0.3-2.9,0.6-4.4,0.7c-1.5,0.2-3,0.2-4.4,0.2
		c0.5,2.8,0.9,5.7,1,8.7c-3,0.2-5.9,0.1-8.8-0.1c0.2,1.4,0.3,2.9,0.3,4.4c0,1.5-0.1,3-0.3,4.4c2.9-0.8,5.8-1.5,8.8-1.9
		c-0.1,3-0.5,6-1,8.9c1.4-0.3,2.9-0.6,4.4-0.7c1.5-0.2,3-0.2,4.4-0.2c-0.5-2.8-0.9-5.7-1-8.7c3-0.2,5.9-0.1,8.8,0.1
		c-0.2-1.4-0.3-2.9-0.3-4.4C163.3,145.7,163.4,144.2,163.6,142.7z"/>
	<path fill="#E8112D" d="M75.6,152.2c-2.9,0.8-5.8,1.5-8.8,1.9c0.1-3,0.5-6,1-8.9c-1.4,0.3-2.9,0.6-4.4,0.7c-1.5,0.2-3,0.2-4.4,0.2
		c0.5,2.8,0.9,5.7,1,8.7c-3,0.2-5.9,0.1-8.8-0.1c0.2,1.4,0.3,2.9,0.3,4.4c0,1.5-0.1,3-0.3,4.4c2.9-0.8,5.8-1.5,8.8-1.9
		c-0.1,3-0.5,6-1,8.9c1.4-0.3,2.9-0.6,4.4-0.7c1.5-0.2,3-0.2,4.4-0.2c-0.5-2.8-0.9-5.7-1-8.7c3-0.2,5.9-0.1,8.8,0.1
		c-0.2-1.4-0.3-2.9-0.3-4.4C75.3,155.2,75.4,153.7,75.6,152.2z"/>
</g>
<path d="M181.4,0c-25.5,0-55.7,18.8-74,50.2C102.5,38.9,84.9,26.5,64,26.5c-16.8,0-64,21-64,88.9C0,203,88.6,221,106.5,248.2
	c1.2,1.9,5.2,3.3,6.7-1.2c14.3-42.2,125.1-89.8,125.1-175.7C238.4,23.2,206.9,0,181.4,0z M24.2,111.4C24.8,57.1,53,40.2,68.4,40.2
	c21.5,0,30.3,16.4,31.8,23.6c1.4,7.2,9.6,13,12.2,1.2c2.6-11.9,27.9-48.1,58.9-48.1c28.4,0,38.3,29.3,37.4,54.2
	c-2.3,67.9-89.7,122-101.3,156.2C97.1,206.6,23.5,176.6,24.2,111.4z"/>
</svg>
