<?xml version="1.0" encoding="utf-8"?>
<!-- Generator: Adobe Illustrator 23.0.1, SVG Export Plug-In . SVG Version: 6.00 Build 0)  -->
<svg version="1.1" id="Livello_1" xmlns="http://www.w3.org/2000/svg" xmlns:xlink="http://www.w3.org/1999/xlink" x="0px" y="0px"
	 viewBox="0 0 238.4 250" enable-background="new 0 0 238.4 250" xml:space="preserve">
<g>
	<g>
		<path fill="#FFFFFF" d="M126.7,112.4l74.1-7.8c3.2-7.6,5.6-15.4,6.9-23.4l-81,8.5V112.4z"/>
		<path fill="#FFFFFF" d="M87.2,207.4l35.5-3.7c6.6-7.8,14.7-16.2,23.2-25.1l-83,8.7C71.3,194.9,79.9,201.5,87.2,207.4z"/>
		<path fill="#FFFFFF" d="M81.4,139.9V94.5l45.2-4.8V67l-15.6,1.6c-2.2,4.3-5.6,3.6-8.1,0.9l-21.6,2.3V42.6c-3.7-1.5-8-2.4-13-2.4
			c-2.8,0-6.1,0.6-9.6,1.9v32.2l-29.6,3.1c-2.1,6.6-3.7,14.3-4.5,23.2l34.1-3.6v45.4L31,145.2c3.3,7.7,7.7,14.8,12.7,21.4l125-13.2
			c6.7-7.9,13.1-16.1,18.8-24.7l-61,6.4L81.4,139.9z"/>
		<path fill="#FFFFFF" d="M126.7,67l81.5-8.6c-0.9-7.8-2.9-15.4-6.3-22l-75.2,7.9V67z"/>
		<path fill="#1166AA" d="M63,187.2l83-8.7c7.5-7.9,15.3-16.3,22.8-25.1l-125,13.2C49.6,174.2,56.2,181.1,63,187.2z"/>
		<path fill="#1166AA" d="M107.4,227.3c2.4-7,8-14.9,15.4-23.6l-35.5,3.7C96.9,215.1,104.6,221.5,107.4,227.3z"/>
		<path fill="#1166AA" d="M58.8,42C48.2,46,35.9,56.5,29.2,77.3l29.6-3.1V42z"/>
		<path fill="#1166AA" d="M58.8,96.9l-34.1,3.6c-0.3,3.4-0.5,7.1-0.5,10.9c-0.1,12.5,2.5,23.8,6.8,33.9l27.8-2.9V96.9z"/>
		<path fill="#1166AA" d="M103,69.5c-1.3-1.5-2.4-3.5-2.8-5.7c-1.1-5.6-6.6-16.4-18.7-21.2v29.3L103,69.5z"/>
		<path fill="#1166AA" d="M161.8,17.9c-26.6,6.2-47.1,36.4-49.4,47c-0.3,1.5-0.8,2.8-1.3,3.7l15.6-1.6V44.3l75.2-7.9
			c-5.7-11.2-15.2-19.2-29.7-19.6L161.8,17.9z"/>
		<path fill="#1166AA" d="M126.7,89.7l-45.2,4.8v45.4l45.2-4.8l61-6.4c5.1-7.8,9.7-15.8,13.2-24.1l-74.1,7.8V89.7z"/>
		<path fill="#1166AA" d="M126.7,89.7l81-8.5c0.5-3.3,0.9-6.7,1-10.1c0.1-4.1,0-8.4-0.5-12.6L126.7,67V89.7z"/>
	</g>
	<path d="M181.4,0c-25.5,0-55.7,18.8-74,50.2C102.5,38.9,84.9,26.5,64,26.5c-16.8,0-64,21-64,88.9C0,203,88.6,221,106.5,248.2
		c1.2,1.9,5.2,3.3,6.7-1.2c14.3-42.2,125.1-89.8,125.1-175.7C238.4,23.2,206.9,0,181.4,0z M24.2,111.4C24.8,57.1,53,40.2,68.4,40.2
		c21.5,0,30.3,16.4,31.8,23.6c1.4,7.2,9.6,13,12.2,1.2c2.6-11.9,27.9-48.1,58.9-48.1c28.4,0,38.3,29.3,37.4,54.2
		c-2.3,67.9-89.7,122-101.3,156.2C97.1,206.6,23.5,176.6,24.2,111.4z"/>
</g>
</svg>
