<?xml version="1.0" encoding="utf-8"?>
<!-- Generator: Adobe Illustrator 23.0.1, SVG Export Plug-In . SVG Version: 6.00 Build 0)  -->
<svg version="1.1" id="Livello_1" xmlns="http://www.w3.org/2000/svg" xmlns:xlink="http://www.w3.org/1999/xlink" x="0px" y="0px"
	 viewBox="0 0 238.4 250" enable-background="new 0 0 238.4 250" xml:space="preserve">
<g>
	<g>
		<path fill="#FFFFFF" d="M107.4,227.3c2.9-8.5,10.5-18.3,20.3-29.2l-46,5C93.9,212.7,104,220.5,107.4,227.3z"/>
		<polygon fill="#FFFFFF" points="95.4,113 85.7,114 90.6,122.1 		"/>
		<polygon fill="#FFFFFF" points="101.5,140.3 117.3,138.6 125.2,123.8 117.3,110.6 101.5,112.3 93.6,127.2 		"/>
		<polygon fill="#FFFFFF" points="109.4,97.5 104.5,106.6 114.2,105.6 		"/>
		<path fill="#FFFFFF" d="M24.2,111.4C23.9,139.1,37,160.4,53,177.4l104.5-11.3c25-27.3,49.9-59.3,51.2-95.1c0-0.7,0-1.4,0-2.1
			L26.4,88.6C25.1,95.3,24.3,102.9,24.2,111.4z M98.5,107.3l10.9-20.6l10.9,18.2l21.9-2.4l-10.9,20.6l10.9,18.2l-21.9,2.4
			l-10.9,20.6l-10.9-18.2l-21.9,2.4l10.9-20.6l-10.9-18.2L98.5,107.3z"/>
		<path fill="#FFFFFF" d="M68.4,40.2c-8.4,0-20.6,5.1-30,18.4l56.3-6.1C89.8,46.2,81.4,40.2,68.4,40.2z"/>
		<path fill="#FFFFFF" d="M171.2,16.8c-22,0-41,18.2-51.2,33l83.8-9C198.4,27.2,188.1,16.8,171.2,16.8z"/>
		<polygon fill="#FFFFFF" points="133.1,108.9 123.4,110 128.2,118.1 		"/>
		<polygon fill="#FFFFFF" points="123.4,138 133.1,136.9 128.2,128.9 		"/>
		<polygon fill="#FFFFFF" points="109.4,153.5 114.2,144.4 104.5,145.4 		"/>
		<polygon fill="#FFFFFF" points="85.7,142 95.4,141 90.6,132.9 		"/>
		<path fill="#0033BB" d="M112.3,65c-2.6,11.9-10.7,6.1-12.2-1.2c-0.6-2.9-2.3-7.1-5.5-11.3l-56.3,6.1c-5.2,7.3-9.5,17.1-12,30
			l182.3-19.6c0.1-9.5-1.4-19.5-4.8-28.1l-83.8,9C115.8,55.9,113.1,61.5,112.3,65z"/>
		<path fill="#0033BB" d="M81.7,203l46-5c8.8-9.7,19.3-20.4,29.8-31.9L53,177.4C62.3,187.3,72.6,195.7,81.7,203z"/>
		<path fill="#0033BB" d="M76.6,148.4l21.9-2.4l10.9,18.2l10.9-20.6l21.9-2.4l-10.9-18.2l10.9-20.6l-21.9,2.4l-10.9-18.2l-10.9,20.6
			l-21.9,2.4l10.9,18.2L76.6,148.4z M85.7,142l4.9-9.1l4.9,8.1L85.7,142z M109.4,153.5l-4.9-8.1l9.7-1L109.4,153.5z M133.1,136.9
			l-9.7,1l4.8-9.1L133.1,136.9z M133.1,108.9l-4.9,9.1l-4.8-8.1L133.1,108.9z M109.4,97.5l4.8,8.1l-9.7,1L109.4,97.5z M101.5,112.3
			l15.8-1.7l7.9,13.2l-7.9,14.9l-15.8,1.7l-7.9-13.2L101.5,112.3z M85.7,114l9.7-1l-4.9,9.1L85.7,114z"/>
	</g>
	<path d="M181.4,0c-25.5,0-55.7,18.8-74,50.2C102.5,38.9,84.9,26.5,64,26.5c-16.8,0-64,21-64,88.9C0,203,88.6,221,106.5,248.2
		c1.2,1.9,5.2,3.3,6.7-1.2c14.3-42.2,125.1-89.8,125.1-175.7C238.4,23.2,206.9,0,181.4,0z M24.2,111.4C24.8,57.1,53,40.2,68.4,40.2
		c21.5,0,30.3,16.4,31.8,23.6c1.4,7.2,9.6,13,12.2,1.2c2.6-11.9,27.9-48.1,58.9-48.1c28.4,0,38.3,29.3,37.4,54.2
		c-2.3,67.9-89.7,122-101.3,156.2C97.1,206.6,23.5,176.6,24.2,111.4z"/>
</g>
</svg>
