<?xml version="1.0" encoding="utf-8"?>
<!-- Generator: Adobe Illustrator 23.0.1, SVG Export Plug-In . SVG Version: 6.00 Build 0)  -->
<svg version="1.1" id="Livello_1" xmlns="http://www.w3.org/2000/svg" xmlns:xlink="http://www.w3.org/1999/xlink" x="0px" y="0px"
	 viewBox="0 0 238.4 250" enable-background="new 0 0 238.4 250" xml:space="preserve">
<g>
	<g>
		<path fill="#003399" d="M205.3,92c1.9-6.8,3.1-13.8,3.4-21c0.9-24.9-9-54.2-37.4-54.2c-22.9,0-42.6,19.7-52.5,34.9v49.5L205.3,92z
			"/>
		<path fill="#003399" d="M35.4,153.9c10.1,17.9,25.5,32,39.6,43.6v-47.8L35.4,153.9z"/>
		<path fill="#003399" d="M118.8,208.5c15.3-19.3,41.7-42.8,61.9-69.9l-61.9,6.5V208.5z"/>
		<path fill="#003399" d="M74.9,40.7c-2-0.4-4.2-0.6-6.5-0.6c-15.3,0-43.5,16.9-44.2,70.9l50.7-5.4V40.7z"/>
		<path fill="#FFFFFF" d="M30.3,143.5c1.5,3.6,3.2,7.1,5.1,10.5l39.6-4.2v47.8c3.8,3.1,7.5,6,11,8.8v-68.7L30.3,143.5z"/>
		<path fill="#FFFFFF" d="M201.3,103.4c1.5-3.8,2.9-7.6,4-11.4l-86.5,9.1V51.7c-3.5,5.4-5.7,10.2-6.4,13.3c-1,4.4-2.7,6.4-4.5,6.7
			v41.6L201.3,103.4z"/>
		<path fill="#FFFFFF" d="M85.9,44.7c-3.1-1.8-6.7-3.3-11-4v65l-50.7,5.4c0,0.1,0,0.2,0,0.3c0,3.7,0.2,7.2,0.6,10.7l61.1-6.4V44.7z"
			/>
		<path fill="#FFFFFF" d="M107.8,226.1c2.1-5.4,5.9-11.3,11-17.6v-63.4l61.9-6.5c2.9-3.9,5.7-7.8,8.3-11.9l-81.1,8.6V226.1z"/>
		<path fill="#DD2222" d="M107.8,135.3l81.1-8.6c4.8-7.5,9.1-15.3,12.4-23.3l-93.5,9.9V71.7c-3.2,0.7-6.7-3.3-7.6-7.9
			c-1-4.8-5.2-13.7-14.3-19.1v70.9L24.8,122c0.9,7.6,2.8,14.8,5.5,21.4l55.6-5.9v68.7c10.3,8.2,18.5,14.9,21.5,20.9
			c0.1-0.4,0.3-0.8,0.4-1.1V135.3z"/>
	</g>
	<path d="M181.4,0c-25.5,0-55.7,18.8-74,50.2C102.5,38.9,84.9,26.5,64,26.5c-16.8,0-64,21-64,88.9C0,203,88.6,221,106.5,248.2
		c1.2,1.9,5.2,3.3,6.7-1.2c14.3-42.2,125.1-89.8,125.1-175.7C238.4,23.2,206.9,0,181.4,0z M24.2,111.4C24.8,57.1,53,40.2,68.4,40.2
		c21.5,0,30.3,16.4,31.8,23.6c1.4,7.2,9.6,13,12.2,1.2c2.6-11.9,27.9-48.1,58.9-48.1c28.4,0,38.3,29.3,37.4,54.2
		c-2.3,67.9-89.7,122-101.3,156.2C97.1,206.6,23.5,176.6,24.2,111.4z"/>
</g>
</svg>
