<svg id="svg10" xmlns="http://www.w3.org/2000/svg" viewBox="0 0 238.3 250">
  <defs>
    <style>
      .cls-1 {
        fill: #00abc2;
      }

      .cls-2, .cls-3 {
        fill: #ffec2d;
      }

      .cls-3 {
        stroke: #00afca;
        stroke-miterlimit: 10;
        stroke-width: 0.05px;
      }
    </style>
  </defs>
  <g id="g967">
    <path id="path2" class="cls-1" d="M4.55,135.52l104.29,104.4,117.92-130L211.64,18.15l-61.47-5L105.82,58.47,77.6,33.27,25.68,52Q15.12,93.76,4.55,135.52Z"/>
    <g id="g105">
      <g id="g23">
        <ellipse id="circle4" class="cls-2" cx="109.5" cy="118.24" rx="17.08" ry="17.09"/>
        <g id="c">
          <g id="b">
            <path id="a" class="cls-2" d="M108,98.87a1.28,1.28,0,0,0,1.29-1.51,51.45,51.45,0,0,0-1.83-5.73,51.67,51.67,0,0,0-1,5.94A1.28,1.28,0,0,0,108,98.87Z"/>
            <g id="use7">
              <path id="a-2" data-name="a" class="cls-2" d="M128.86,116.78a1.28,1.28,0,0,0,1.51,1.29,51.16,51.16,0,0,0,5.73-1.84,49.86,49.86,0,0,0-5.94-1A1.28,1.28,0,0,0,128.86,116.78Z"/>
            </g>
            <g id="use9">
              <path id="a-3" data-name="a" class="cls-2" d="M111,137.6a1.28,1.28,0,0,0-1.28,1.51,49.42,49.42,0,0,0,1.83,5.73,49.86,49.86,0,0,0,1-5.94A1.27,1.27,0,0,0,111,137.6Z"/>
            </g>
            <g id="use11">
              <path id="a-4" data-name="a" class="cls-2" d="M90.14,119.69a1.29,1.29,0,0,0-1.51-1.29,51.16,51.16,0,0,0-5.73,1.84,49.52,49.52,0,0,0,5.94,1A1.28,1.28,0,0,0,90.14,119.69Z"/>
            </g>
          </g>
          <g id="use14">
            <g id="b-2" data-name="b">
              <path id="a-5" data-name="a" class="cls-2" d="M115.56,99.79a1.29,1.29,0,0,0,1.77-.9,52.15,52.15,0,0,0,.5-6A51.3,51.3,0,0,0,114.67,98,1.29,1.29,0,0,0,115.56,99.79Z"/>
              <g id="use7-2" data-name="use7">
                <path id="a-6" data-name="a" class="cls-2" d="M127.94,124.3a1.28,1.28,0,0,0,.9,1.77,52.15,52.15,0,0,0,6,.5,50.48,50.48,0,0,0-5.13-3.16A1.28,1.28,0,0,0,127.94,124.3Z"/>
              </g>
              <g id="use9-2" data-name="use9">
                <path id="a-7" data-name="a" class="cls-2" d="M103.43,136.68a1.27,1.27,0,0,0-1.76.91,49.67,49.67,0,0,0-.5,6,51.51,51.51,0,0,0,3.15-5.12A1.28,1.28,0,0,0,103.43,136.68Z"/>
              </g>
              <g id="use11-2" data-name="use11">
                <path id="a-8" data-name="a" class="cls-2" d="M91.05,112.17a1.28,1.28,0,0,0-.9-1.77,51.83,51.83,0,0,0-6-.5,50.15,50.15,0,0,0,5.12,3.16A1.27,1.27,0,0,0,91.05,112.17Z"/>
              </g>
            </g>
          </g>
          <g id="use16">
            <g id="b-3" data-name="b">
              <path id="a-9" data-name="a" class="cls-2" d="M122.16,103.51a1.27,1.27,0,0,0,2-.15A49.12,49.12,0,0,0,126.89,98a50,50,0,0,0-4.87,3.52A1.28,1.28,0,0,0,122.16,103.51Z"/>
              <g id="use7-3" data-name="use7">
                <path id="a-10" data-name="a" class="cls-2" d="M124.21,130.9a1.29,1.29,0,0,0,.16,2,50.6,50.6,0,0,0,5.35,2.75,50.35,50.35,0,0,0-3.53-4.87A1.28,1.28,0,0,0,124.21,130.9Z"/>
              </g>
              <g id="use9-3" data-name="use9">
                <path id="a-11" data-name="a" class="cls-2" d="M96.84,133a1.28,1.28,0,0,0-2,.16,51,51,0,0,0-2.76,5.34A49.91,49.91,0,0,0,97,134.94,1.28,1.28,0,0,0,96.84,133Z"/>
              </g>
              <g id="use11-3" data-name="use11">
                <path id="a-12" data-name="a" class="cls-2" d="M94.78,105.57a1.28,1.28,0,0,0-.16-2,50.6,50.6,0,0,0-5.35-2.75,50.35,50.35,0,0,0,3.53,4.87A1.28,1.28,0,0,0,94.78,105.57Z"/>
              </g>
            </g>
          </g>
          <g id="use18">
            <g id="b-4" data-name="b">
              <path id="a-13" data-name="a" class="cls-2" d="M126.82,109.48a1.29,1.29,0,0,0,1.89.61,50.45,50.45,0,0,0,4.6-3.89,50.54,50.54,0,0,0-5.86,1.4A1.28,1.28,0,0,0,126.82,109.48Z"/>
              <g id="use7-4" data-name="use7">
                <path id="a-14" data-name="a" class="cls-2" d="M118.25,135.57a1.29,1.29,0,0,0-.61,1.89,51.67,51.67,0,0,0,3.88,4.59,49.61,49.61,0,0,0-1.39-5.85A1.27,1.27,0,0,0,118.25,135.57Z"/>
              </g>
              <g id="use9-4" data-name="use9">
                <path id="a-15" data-name="a" class="cls-2" d="M92.17,127a1.29,1.29,0,0,0-1.89-.61,50.09,50.09,0,0,0-4.59,3.89,50.46,50.46,0,0,0,5.85-1.4A1.27,1.27,0,0,0,92.17,127Z"/>
              </g>
              <g id="use11-4" data-name="use11">
                <path id="a-16" data-name="a" class="cls-2" d="M100.74,100.9a1.27,1.27,0,0,0,.61-1.88,49,49,0,0,0-3.88-4.6,49.61,49.61,0,0,0,1.39,5.85A1.27,1.27,0,0,0,100.74,100.9Z"/>
              </g>
            </g>
          </g>
        </g>
        <g id="use21">
          <g id="c-2" data-name="c">
            <g id="b-5" data-name="b">
              <path id="a-17" data-name="a" class="cls-2" d="M111.85,99a1.27,1.27,0,0,0,1.55-1.23,48.92,48.92,0,0,0-.68-6,49.86,49.86,0,0,0-2.09,5.64A1.28,1.28,0,0,0,111.85,99Z"/>
              <g id="use7-5" data-name="use7">
                <path id="a-18" data-name="a" class="cls-2" d="M128.77,120.58a1.28,1.28,0,0,0,1.23,1.56,48.92,48.92,0,0,0,6-.68,50.61,50.61,0,0,0-5.64-2.09A1.28,1.28,0,0,0,128.77,120.58Z"/>
              </g>
              <g id="use9-5" data-name="use9">
                <path id="a-19" data-name="a" class="cls-2" d="M107.15,137.51a1.28,1.28,0,0,0-1.56,1.23,51,51,0,0,0,.68,6,49.86,49.86,0,0,0,2.09-5.64A1.27,1.27,0,0,0,107.15,137.51Z"/>
              </g>
              <g id="use11-5" data-name="use11">
                <path id="a-20" data-name="a" class="cls-2" d="M90.23,115.89A1.29,1.29,0,0,0,89,114.33a51,51,0,0,0-6,.68,49.86,49.86,0,0,0,5.64,2.09A1.28,1.28,0,0,0,90.23,115.89Z"/>
              </g>
            </g>
            <g id="use14-2" data-name="use14">
              <g id="b-6" data-name="b">
                <path id="a-21" data-name="a" class="cls-2" d="M119,101.33a1.29,1.29,0,0,0,1.91-.54A50.64,50.64,0,0,0,122.61,95a51.28,51.28,0,0,0-4.09,4.41A1.28,1.28,0,0,0,119,101.33Z"/>
                <g id="use7-6" data-name="use7">
                  <path id="a-22" data-name="a" class="cls-2" d="M126.4,127.78a1.28,1.28,0,0,0,.54,1.91,50.64,50.64,0,0,0,5.79,1.66,51.28,51.28,0,0,0-4.41-4.09A1.28,1.28,0,0,0,126.4,127.78Z"/>
                </g>
                <g id="use9-6" data-name="use9">
                  <path id="a-23" data-name="a" class="cls-2" d="M100,135.14a1.29,1.29,0,0,0-1.91.55,50,50,0,0,0-1.66,5.78,51.14,51.14,0,0,0,4.1-4.41A1.28,1.28,0,0,0,100,135.14Z"/>
                </g>
                <g id="use11-6" data-name="use11">
                  <path id="a-24" data-name="a" class="cls-2" d="M92.59,108.69a1.28,1.28,0,0,0-.54-1.91,50,50,0,0,0-5.78-1.66,49.81,49.81,0,0,0,4.41,4.09A1.27,1.27,0,0,0,92.59,108.69Z"/>
                </g>
              </g>
            </g>
            <g id="use16-2" data-name="use16">
              <g id="b-7" data-name="b">
                <path id="a-25" data-name="a" class="cls-2" d="M124.78,106.27a1.28,1.28,0,0,0,2,.23,51,51,0,0,0,3.75-4.71A49.81,49.81,0,0,0,125,104.3,1.28,1.28,0,0,0,124.78,106.27Z"/>
                <g id="use7-7" data-name="use7">
                  <path id="a-26" data-name="a" class="cls-2" d="M121.46,133.53a1.28,1.28,0,0,0-.23,2,51,51,0,0,0,4.71,3.75,49.81,49.81,0,0,0-2.51-5.47A1.28,1.28,0,0,0,121.46,133.53Z"/>
                </g>
                <g id="use9-7" data-name="use9">
                  <path id="a-27" data-name="a" class="cls-2" d="M94.21,130.2a1.28,1.28,0,0,0-2-.23,51,51,0,0,0-3.75,4.71A49.81,49.81,0,0,0,94,132.17,1.28,1.28,0,0,0,94.21,130.2Z"/>
                </g>
                <g id="use11-7" data-name="use11">
                  <path id="a-28" data-name="a" class="cls-2" d="M97.53,102.94a1.28,1.28,0,0,0,.23-2,49.7,49.7,0,0,0-4.71-3.75,51.78,51.78,0,0,0,2.51,5.48A1.27,1.27,0,0,0,97.53,102.94Z"/>
                </g>
              </g>
            </g>
            <g id="use18-2" data-name="use18">
              <g id="b-8" data-name="b">
                <path id="a-29" data-name="a" class="cls-2" d="M128.2,113a1.28,1.28,0,0,0,1.73,1,50,50,0,0,0,5.27-2.92,49.2,49.2,0,0,0-6,.23A1.27,1.27,0,0,0,128.2,113Z"/>
                <g id="use7-8" data-name="use7">
                  <path id="a-30" data-name="a" class="cls-2" d="M114.7,136.94a1.3,1.3,0,0,0-1,1.74,52.63,52.63,0,0,0,2.92,5.26,49,49,0,0,0-.23-6A1.27,1.27,0,0,0,114.7,136.94Z"/>
                </g>
                <g id="use9-8" data-name="use9">
                  <path id="a-31" data-name="a" class="cls-2" d="M90.79,123.44a1.28,1.28,0,0,0-1.73-1,51.51,51.51,0,0,0-5.26,2.92,50.79,50.79,0,0,0,6-.22A1.28,1.28,0,0,0,90.79,123.44Z"/>
                </g>
                <g id="use11-8" data-name="use11">
                  <path id="a-32" data-name="a" class="cls-2" d="M104.29,99.53a1.28,1.28,0,0,0,1-1.73,50.17,50.17,0,0,0-2.91-5.27,50.73,50.73,0,0,0,.22,6A1.27,1.27,0,0,0,104.29,99.53Z"/>
                </g>
              </g>
            </g>
          </g>
        </g>
      </g>
      <g id="g35">
        <path id="path25" class="cls-2" d="M109.23,155.38a5.34,5.34,0,0,0-1.31.32c-.59.13-1.15.37-1.73.52l-.23.05-.4.07a1.3,1.3,0,0,1,.07.33,1.13,1.13,0,0,1,0,.32.72.72,0,0,1-.15.27,1,1,0,0,1-.26.25.75.75,0,0,1-.32.1.82.82,0,0,1-.35,0,1,1,0,0,1-.33-.17l-.35.09a1.27,1.27,0,0,1-.33,0,2.49,2.49,0,0,1-.37-.09,2.52,2.52,0,0,1-.34-.15,3,3,0,0,0-1.1,1,1.38,1.38,0,0,0-.16.69,1.82,1.82,0,0,0,.25.87c0,.07.06-.3.2-.36a2.23,2.23,0,0,1,.81-.49c.25-.15.23,0,.14.21s-.14.51,0,.3a8.42,8.42,0,0,1,2.69-.74c1.34-.24,2.68-.37,4-.49s2.54-.15,3.81-.2a9.12,9.12,0,0,0,1.81-.09c.14,0,.36-.07.44-.16a2.12,2.12,0,0,0-.9-.13l-2.41.18a7.25,7.25,0,0,1-2-.18c-.18-.05-.35-.2-.49,0a3.3,3.3,0,0,1-.74.22,2.78,2.78,0,0,1-1.31-.13c.26-.43.59-.81.88-1.22-.26,0-.52-.06-.78-.1.43-.35.83-.74,1.25-1.11Z"/>
        <path id="path27" class="cls-2" d="M129.28,158.27c-.88.62-1.65-.31-2.44-.54-.52.34-.5,1.34-1,1.85-.56.74-1.37-.1-1.37-.79-.69.67-.95,2.1-2.15,2-.59-.41-1.08-1.34-1.43-.22-.31.57-1.18,1.4-1.72.63-.21-.71-.63-1.52-.93-.36a1.52,1.52,0,0,1-1.87,1.19c-.48-.34.23-1.77-.34-1.63-.81.64-1.21,2.09-2.42,2.07-.5-.49.18-1.44-.38-2-.54.82-1.13,2-2.17,2.17-.53-.37-.09-1.59-.43-1.74-1,.73-2.07,2-3.44,1.7.37-2.05,2.51-2.92,4.35-3.21,3.14-.63,6.54-.17,9.51-1.54.47-.34,1.64-.86,1.16-1.52s1-.41,1-1.06c-.15-.81.57-.75,1.25-.88,3.08-.36,6.17.06,9.26-.06a2.08,2.08,0,0,1-2.61,2.3c-.63.15-1.71-1.35-1.44-.22-.08.61.07,1.39-.45,1.84m-26.49-1.1c.76.6,1.21-.21,1.85-.55a25.33,25.33,0,0,0,5.86-3.92c1.1-1,2-2.38,3.56-2.81,3-1.16,6.25-1.29,9.25-2.38,2.1-3.37,6-4.81,9.17-6.91a2.06,2.06,0,0,0,1.16-1.62,15.48,15.48,0,0,1,4.67-5.37,4.74,4.74,0,0,1,3.18-.83,5.41,5.41,0,0,1-1.48,3.49c.74-.07,1.34-.59,2.09-.62.35,1.32-1,2.13-1.75,3,.44.06,2.09.06,1.23.56a38.78,38.78,0,0,0-3.33,2.52c1,.1,1.11.3.15.72-.51.41-1.52.61-1.57,1.32.77.4-.27.93-.67,1.1-.78.25-1.58.65-.49,1.18a2.08,2.08,0,0,1-1.89.81c.26.66.62,1.4-.24,1.77A13.62,13.62,0,0,1,127,152a14.6,14.6,0,0,0,8.81-2.7c.32-.44,2.12-1,1.07-1.3-.5-.16-1.56-.31-1.66-.67,1.38-1,3.21-.82,4.72-1.46,0-.5-1.21-.27-1.67-.35-1.09,0-1-.29,0-.47,1.3-.45,2.78-.63,3.83-1.58-.94-.35-2,.11-3-.16,1.58-.84,3.5-1.06,4.89-2.24.61-.8-.9-.45-1.34-.4-.9.23-1.35-.17-.35-.63,1.66-1.42,3.82-2.43,4.92-4.4.26-.45.56-1.74-.34-1.22-1.2.5-2.17,2-3.6,1.64A30.68,30.68,0,0,0,149.9,128c0-.86-1.31-.85-1.61-.15-1.64,1.83-3.09,4-5.27,5.2a35.26,35.26,0,0,0,5-7.55c.28-.79,1.11-1.78.56-2.59-.84-.59-1.78.08-2.13.89-1.24,1.9-2.12,4.07-3.78,5.67,1.32-3.07,2.69-6.34,2.47-9.75-.06-.7-.27-1.72-1.22-1.52-.74.2-.48,1.31-.74,1.91-.51,2.38-.65,4.92-1.9,7.06.18-1.91.58-3.92,0-5.8-.26-.84-1.61-.37-1.37.46a30.22,30.22,0,0,1-13.07,21,31.29,31.29,0,0,1-10.62,4.49,27.58,27.58,0,0,0-3.08.68c-2.23,2-3.44,5.15-6.37,6.33-1.3.77-3,1-3.91,2.36a1.06,1.06,0,0,0-.06.53"/>
        <path id="path29" class="cls-2" d="M111.14,148a16,16,0,0,1-1.09,2.55c-1.83-1.43-4.31-1.19-6.49-1.13-1.81,0-3.77,0-5.25-1.16s-2.86-2.55-4.57-3.4a10.59,10.59,0,0,1-4.34-1.62c-2.71-1.89-4.41-4.88-7.08-6.84a14.19,14.19,0,0,0-1.66-1.12c-.5.17-.19,1.24-.85.73-.36-.21-1.2-.17-1.26.17a6.84,6.84,0,0,1,1.9,3.32c-.52.1-1.46,0-1.7.22a10.91,10.91,0,0,0,2.79,2.5c-.48.11-1.43.14-1.6.35a7.4,7.4,0,0,0,3.52,1.6c.3.34-.31,1.07.27,1.33.33.11,1.41.25.7.67a.6.6,0,0,0,.41,1.09c.43.17,1.34.16,1.44.51-.33.39-1.42.91-.44,1.18a6.47,6.47,0,0,0,3,.63c-.48.47-1.09.76-1.59,1.21A40.74,40.74,0,0,0,95,153.41a26.68,26.68,0,0,0,3.18.63,25.69,25.69,0,0,1-9-1.68c-1.51-.53-3-1-4.55-1.47.63-.39,1.38-.53,2-.88a12.33,12.33,0,0,1-4.27-.83c.17-.36.88-.43,1.27-.63.73-.24,1.18-.49.12-.47-1.08-.21-2.29,0-3.28-.56,0-.39,1-.33,1.41-.53a3,3,0,0,0,1.43-.61c-1.7-.55-3.81.09-5.21-1.27-.34-.53.91-.17,1.25-.29a6.81,6.81,0,0,0,2.67-.28c-2.48-.87-5.12-1.66-7.09-3.47-.23-.3-.9-1.11-.42-1.25,1.44.08,2.58,1.56,4.09,1.2.18-.29-.94-.65-1.24-1a29.61,29.61,0,0,1-6.42-6c-.17-.83,1.13-1,1.53-.44,1.82,1.51,3.49,3.3,5.69,4.26.78.31-.46-.4-.64-.67a38.19,38.19,0,0,1-5.73-6.95c-.28-.46-.75-1.3,0-1.62a1.45,1.45,0,0,1,1.89.63c1.57,1.7,2.79,3.78,4.69,5.15-1.75-2.84-3.61-5.84-3.9-9.24,0-.66,0-1.66.85-1.7.74-.17.69.8,1,1.24.93,2.45,1.46,5.13,3.11,7.22a16.59,16.59,0,0,1-.92-5.61.74.74,0,0,1,1.2-.53c.43.88.59,2,1,2.92a30.16,30.16,0,0,0,13,15.23,31,31,0,0,0,16,4.19l1.51,0"/>
        <circle id="circle31" class="cls-2" cx="104.71" cy="156.92" r="0.3"/>
        <circle id="circle33" class="cls-3" cx="104.68" cy="156.87" r="0.12"/>
      </g>
    </g>
    <g id="g48">
      <g id="f">
        <g id="e">
          <path id="path37" class="cls-2" d="M38.47,51.22S36.78,50,36.3,50.74c-.77,1.15,3.2,6.18,3.37,8.06.26,3.09-1.73,4.1-4.23,4.76a18.19,18.19,0,0,1-4.49.26,1.92,1.92,0,0,1,1.66-1.11,3.72,3.72,0,0,1-2.27-3.17c-.22-2.65.78-3.84.52-6.83a8.84,8.84,0,0,0-1.69-3.66,3.25,3.25,0,0,1,3.29,4,1.19,1.19,0,0,0,1-.4,1.78,1.78,0,0,1-.34,1.6c.31.13.52,0,1-.12a2.17,2.17,0,0,1-1,1.65A2.62,2.62,0,0,1,36.86,58a1.92,1.92,0,0,1-1.47,2.19,1.66,1.66,0,0,1-.9-.2,1.37,1.37,0,0,0,.18,1.09c-.61-.11-1-.43-.82-1.19a1.51,1.51,0,0,1-1.11-.4,1.26,1.26,0,0,1,1-.59c-.39-.66-.05-1.08.46-1.44,0,0-.22,1.42.66,1.35.4,0,.75-.2.7-.78A1.29,1.29,0,0,0,34,57c-1,.14-1.8.87-1.66,2.52s1.42,2.16,3,2.07a2.22,2.22,0,0,0,2.36-2.46c-.17-2-3.44-6.29-3.59-8.07a2.2,2.2,0,0,1,2.19-2.28A4.39,4.39,0,0,1,39.27,50l-.79,1.19Z"/>
          <path id="d" class="cls-2" d="M41.9,87.24A5.23,5.23,0,0,1,37,92.75c-3.17.27-5-1.48-5.23-4a7.43,7.43,0,0,1,.59-3.71s4.3-11.32,6-15.69a4.39,4.39,0,0,0,.16-2,2.66,2.66,0,0,0-5.29.5c.14,1.66,1.06,2.33,2,2.25,1.08-.09,1.48-.58,1.41-1.34,0-.53-.32-.74-.69-.71-.93.08-.56,1.31-.56,1.31a.86.86,0,0,1-.73-1.11,1.7,1.7,0,0,1-1-.46,1.7,1.7,0,0,1,.86-.57.84.84,0,0,1,.6-1.28,1.31,1.31,0,0,0,0,.78,1.91,1.91,0,0,1,2.68,1.67,2.71,2.71,0,0,1-3.16,3.07,1.57,1.57,0,0,1,1,1.27,3,3,0,0,0-.86-.1,2.81,2.81,0,0,1,.75,1.69c-.43-.15-.84-.46-1.34-.2,1,1.56.14,3.88-2.4,4.64a5.42,5.42,0,0,0,1.11-3.62c-.33-3.87-1.46-4.42-1.69-7.11a4,4,0,0,1,1.45-3.31v0A2.25,2.25,0,0,1,31,63.82a10.4,10.4,0,0,1,5.59-.43,4.22,4.22,0,0,1,3.13,1.72,6,6,0,0,1,.4,4.76c-.84,2.24-4.8,12.93-6,16.28a5,5,0,0,0-.33,2.25,2.74,2.74,0,0,0,3.07,2.42,2.41,2.41,0,0,0,2.3-2.32c-.06-.74-.5-1.15-1.09-1.1-1.39.12-1.2,1.29-.86,2a1.73,1.73,0,0,1-1.38-1.71A2.18,2.18,0,0,1,34.29,87a1.72,1.72,0,0,1,1.32-.88c-.37-1.12.35-1.66,1.07-2-.16.85-.24,1.82,1.18,1.7a2.62,2.62,0,0,1,2.4.65c0-.9-.27-4.45-.27-4.45-.05-1.33-1.89-1.14-3-.64.31-1.57,1.15-2.48,3.26-2.45A1.67,1.67,0,0,1,39,77.46a4.28,4.28,0,0,1,1.42-3.19l1.45,13Z"/>
          <g id="use40">
            <path id="d-2" data-name="d" class="cls-2" d="M42.76,97.24A5.24,5.24,0,0,0,37,92.65c-3.17.27-4.69,2.31-4.48,4.79A7.44,7.44,0,0,0,33.72,101l8.55,14.45a4.47,4.47,0,0,1,.51,2,2.67,2.67,0,0,1-5.31.41c-.14-1.66.66-2.47,1.54-2.55,1.09-.09,1.56.32,1.63,1.08,0,.54-.19.79-.56.82-.94.08-.78-1.2-.78-1.2a.86.86,0,0,0-.53,1.22,1.73,1.73,0,0,0-.86.62,1.71,1.71,0,0,0,1,.41.85.85,0,0,0,.81,1.17,1.31,1.31,0,0,1-.16-.77,1.91,1.91,0,0,0,2.36-2.1A2.71,2.71,0,0,0,38.23,114a1.57,1.57,0,0,0,.73-1.42,3.13,3.13,0,0,1-.83.25,2.8,2.8,0,0,0,.45-1.8c-.39.23-.74.61-1.29.43.69-1.7-.52-3.85-3.15-4.16a5.41,5.41,0,0,1,1.71,3.38c.33,3.86-.69,4.61-.46,7.29a4,4,0,0,0,2,3v0A2.28,2.28,0,0,0,36,122.18a10.24,10.24,0,0,0,5.58-.53,4.16,4.16,0,0,0,2.79-2.22,6.07,6.07,0,0,0-.41-4.76c-1.21-2.06-6.94-11.92-8.73-15a5.15,5.15,0,0,1-.7-2.15,2.74,2.74,0,0,1,2.61-2.91,2.42,2.42,0,0,1,2.67,1.89c.06.74-.31,1.22-.89,1.27-1.39.12-1.4-1.07-1.19-1.84a1.78,1.78,0,0,0-1.08,1.93,2.2,2.2,0,0,0-1.31.9,1.7,1.7,0,0,0,1.45.64c-.18,1.16.62,1.58,1.39,1.78-.31-.81-.55-1.76.87-1.88a2.65,2.65,0,0,0,2.26-1c.1.89.49,4.43.49,4.43.17,1.32-1.67,1.44-2.88,1.15.58,1.49,1.55,2.25,3.63,1.86a1.65,1.65,0,0,0-.91,1.7,4.25,4.25,0,0,0,1.94,2.9l-.78-13Z"/>
          </g>
        </g>
        <g id="use43">
          <g id="e-2" data-name="e">
            <path id="path37-2" data-name="path37" class="cls-2" d="M38.47,51.22s1.47-1.46,2.06-.84c1,1-2.1,6.64-1.94,8.51.27,3.09,2.4,3.75,5,4a18.35,18.35,0,0,0,4.48-.5,2,2,0,0,0-1.83-.82A3.68,3.68,0,0,0,47.9,58c-.23-2.65-1.41-3.65-1.67-6.64a8.89,8.89,0,0,1,1-3.89A3.24,3.24,0,0,0,44.71,52a1.16,1.16,0,0,1-1.05-.23,1.75,1.75,0,0,0,.61,1.52c-.29.19-.52.11-1,.05a2.2,2.2,0,0,0,1.22,1.47,2.62,2.62,0,0,0-3.27,2.82,1.91,1.91,0,0,0,1.83,1.9,1.63,1.63,0,0,0,.84-.34,1.36,1.36,0,0,1,0,1.1c.59-.21.94-.6.6-1.32a1.48,1.48,0,0,0,1-.58,1.28,1.28,0,0,0-1.11-.4c.27-.72-.13-1.08-.7-1.34,0,0,.46,1.36-.42,1.43-.4,0-.77-.06-.82-.65a1.28,1.28,0,0,1,1.37-1.29c1,0,1.93.55,2.07,2.19s-1,2.38-2.64,2.56a2.22,2.22,0,0,1-2.74-2c-.17-2,2.32-6.79,2.17-8.56a2.21,2.21,0,0,0-2.55-1.88,4.42,4.42,0,0,0-2.68,1.75l1,1Z"/>
            <path id="d-3" data-name="d" class="cls-2" d="M41.23,87.3A5.24,5.24,0,0,0,47,91.89c3.17-.27,4.69-2.31,4.48-4.79a7.34,7.34,0,0,0-1.22-3.56L41.72,69.09a4.47,4.47,0,0,1-.51-2,2.67,2.67,0,0,1,5.31-.41c.14,1.66-.66,2.47-1.54,2.55-1.09.09-1.56-.32-1.63-1.08,0-.54.2-.79.57-.82.93-.08.77,1.2.77,1.2a.86.86,0,0,0,.53-1.22,1.69,1.69,0,0,0,.86-.62,1.68,1.68,0,0,0-.95-.41.85.85,0,0,0-.81-1.17,1.31,1.31,0,0,1,.16.77A1.91,1.91,0,0,0,42.12,68a2.72,2.72,0,0,0,3.64,2.49A1.59,1.59,0,0,0,45,71.93a3.13,3.13,0,0,1,.83-.25,2.86,2.86,0,0,0-.45,1.8c.39-.23.75-.6,1.29-.43-.69,1.7.52,3.85,3.15,4.16a5.41,5.41,0,0,1-1.71-3.38c-.33-3.86.69-4.61.46-7.29a4,4,0,0,0-2-3v0A2.33,2.33,0,0,0,48,62.36a10.28,10.28,0,0,0-5.59.53,4.12,4.12,0,0,0-2.78,2.22,6,6,0,0,0,.4,4.76c1.22,2.06,6.94,11.92,8.73,15A5.15,5.15,0,0,1,49.5,87,2.74,2.74,0,0,1,46.89,90a2.41,2.41,0,0,1-2.66-1.89c-.07-.74.3-1.22.88-1.27,1.39-.12,1.41,1.07,1.19,1.84a1.77,1.77,0,0,0,1.08-1.93,2.2,2.2,0,0,0,1.32-.9,1.74,1.74,0,0,0-1.46-.64c.18-1.16-.62-1.58-1.39-1.78.31.81.55,1.76-.87,1.88a2.65,2.65,0,0,0-2.26,1c-.1-.89-.49-4.43-.49-4.43-.17-1.32,1.67-1.44,2.88-1.15-.58-1.49-1.55-2.25-3.63-1.86a1.65,1.65,0,0,0,.91-1.7,4.25,4.25,0,0,0-1.94-2.9l.78,13Z"/>
            <g id="use40-2" data-name="use40">
              <path id="d-4" data-name="d" class="cls-2" d="M42.09,97.3A5.23,5.23,0,0,1,47,91.79c3.17-.27,5,1.48,5.23,4a7.43,7.43,0,0,1-.59,3.71s-4.29,11.32-6,15.69a4.39,4.39,0,0,0-.16,2,2.66,2.66,0,0,0,5.29-.5c-.14-1.66-1.06-2.33-1.95-2.25-1.08.09-1.48.58-1.41,1.34,0,.53.32.74.69.71.93-.08.56-1.31.56-1.31a.86.86,0,0,1,.73,1.11,1.7,1.7,0,0,1,.95.46,1.7,1.7,0,0,1-.86.57.84.84,0,0,1-.6,1.28,1.31,1.31,0,0,0,0-.78,1.91,1.91,0,0,1-2.68-1.67,2.71,2.71,0,0,1,3.16-3.07,1.57,1.57,0,0,1-1-1.27,3,3,0,0,0,.86.1,2.87,2.87,0,0,1-.75-1.69c.43.15.84.46,1.35.2-1-1.56-.15-3.88,2.39-4.64a5.42,5.42,0,0,0-1.11,3.62c.34,3.87,1.46,4.42,1.69,7.11a4,4,0,0,1-1.45,3.31v0a2.28,2.28,0,0,1,1.61,1,10.39,10.39,0,0,1-5.59.43,4.18,4.18,0,0,1-3.12-1.72,6,6,0,0,1-.41-4.76c.84-2.24,4.8-12.93,6-16.28a5.18,5.18,0,0,0,.32-2.25,2.74,2.74,0,0,0-3.07-2.42A2.41,2.41,0,0,0,44.91,96c.06.74.51,1.15,1.09,1.1,1.39-.12,1.2-1.29.86-2a1.75,1.75,0,0,1,1.39,1.71,2.18,2.18,0,0,1,1.45.66,1.72,1.72,0,0,1-1.32.88c.37,1.12-.35,1.66-1.07,2,.17-.85.24-1.82-1.18-1.7a2.62,2.62,0,0,1-2.4-.65c.05.9.27,4.45.27,4.45,0,1.33,1.89,1.14,3,.64-.31,1.57-1.15,2.48-3.26,2.45A1.67,1.67,0,0,1,45,107.08a4.28,4.28,0,0,1-1.42,3.19l-1.45-13Z"/>
            </g>
          </g>
        </g>
      </g>
      <g id="use46">
        <g id="f-2" data-name="f">
          <g id="e-3" data-name="e">
            <path id="path37-3" data-name="path37" class="cls-2" d="M50.52,191.68s-1.46,1.46-2.06.84c-1-1,2.11-6.63,1.95-8.51-.27-3.09-2.4-3.75-5-4a18.05,18.05,0,0,0-4.47.51,2,2,0,0,0,1.83.81,3.69,3.69,0,0,0-1.69,3.51c.22,2.65,1.41,3.65,1.67,6.64a8.89,8.89,0,0,1-1,3.89,3.23,3.23,0,0,0,2.55-4.5,1.2,1.2,0,0,1,1.06.23,1.78,1.78,0,0,0-.61-1.52c.29-.18.52-.11,1-.05a2.18,2.18,0,0,0-1.23-1.46,2.63,2.63,0,0,0,3.28-2.83,1.91,1.91,0,0,0-1.83-1.9,1.57,1.57,0,0,0-.84.35,1.34,1.34,0,0,1,0-1.11c-.59.21-.94.6-.6,1.32a1.52,1.52,0,0,0-1,.58,1.24,1.24,0,0,0,1.11.4c-.27.72.13,1.08.7,1.35,0,0-.46-1.37.42-1.44.4,0,.77.06.82.65a1.27,1.27,0,0,1-1.37,1.29c-1,.05-1.93-.55-2.07-2.19s1-2.37,2.63-2.56a2.21,2.21,0,0,1,2.74,2c.18,2-2.31,6.79-2.16,8.57a2.21,2.21,0,0,0,2.55,1.87,4.42,4.42,0,0,0,2.68-1.75l-1-1Z"/>
            <path id="d-5" data-name="d" class="cls-2" d="M47.76,155.6A5.21,5.21,0,0,0,42,151c-3.17.27-4.69,2.31-4.48,4.79a7.34,7.34,0,0,0,1.22,3.55s6.15,10.42,8.55,14.45a4.48,4.48,0,0,1,.51,2,2.67,2.67,0,0,1-5.31.41c-.14-1.66.66-2.48,1.54-2.55,1.09-.1,1.56.31,1.62,1.08,0,.53-.19.78-.56.81-.93.08-.78-1.19-.78-1.19a.86.86,0,0,0-.52,1.22,1.61,1.61,0,0,0-.86.61,1.76,1.76,0,0,0,.95.42c-.16.74.16,1.06.81,1.16a1.23,1.23,0,0,1-.16-.77,1.9,1.9,0,0,0,2.35-2.1,2.7,2.7,0,0,0-3.63-2.49A1.56,1.56,0,0,0,44,171a3.13,3.13,0,0,1-.83.25,2.9,2.9,0,0,0,.45-1.8c-.39.22-.75.6-1.29.42.68-1.69-.52-3.85-3.15-4.15a5.41,5.41,0,0,1,1.71,3.37c.33,3.87-.69,4.61-.46,7.29a4,4,0,0,0,2,3v0A2.34,2.34,0,0,0,41,180.55a10.47,10.47,0,0,0,5.59-.53,4.17,4.17,0,0,0,2.78-2.23,6,6,0,0,0-.41-4.75C47.71,171,42,161.11,40.2,158a5,5,0,0,1-.7-2.15A2.74,2.74,0,0,1,42.11,153a2.41,2.41,0,0,1,2.66,1.89c.07.75-.3,1.23-.88,1.28-1.39.12-1.41-1.07-1.19-1.84a1.75,1.75,0,0,0-1.08,1.92,2.25,2.25,0,0,0-1.32.9,1.76,1.76,0,0,0,1.45.65c-.18,1.16.63,1.57,1.4,1.77-.31-.81-.55-1.76.87-1.88a2.62,2.62,0,0,0,2.25-1c.11.89.5,4.43.5,4.43.17,1.33-1.67,1.45-2.88,1.15.57,1.5,1.55,2.25,3.63,1.86a1.66,1.66,0,0,0-.91,1.7,4.25,4.25,0,0,0,1.94,2.9l-.79-13Z"/>
            <g id="use40-3" data-name="use40">
              <path id="d-6" data-name="d" class="cls-2" d="M46.91,145.61a5.23,5.23,0,0,1-4.91,5.5c-3.17.27-5-1.48-5.23-4a7.45,7.45,0,0,1,.59-3.71s4.29-11.31,6-15.69a4.39,4.39,0,0,0,.16-2,2.67,2.67,0,0,0-5.3.5c.15,1.66,1.07,2.33,2,2.25,1.09-.09,1.49-.57,1.42-1.34,0-.53-.32-.74-.69-.71-.93.08-.56,1.32-.56,1.32a.87.87,0,0,1-.73-1.12,1.64,1.64,0,0,1-.95-.46,1.77,1.77,0,0,1,.86-.57.84.84,0,0,1,.6-1.28,1.31,1.31,0,0,0,0,.78,1.91,1.91,0,0,1,2.68,1.67,2.72,2.72,0,0,1-3.17,3.07,1.59,1.59,0,0,1,1,1.27,3.12,3.12,0,0,0-.87-.1,2.84,2.84,0,0,1,.76,1.7c-.43-.16-.84-.47-1.35-.21,1,1.56.14,3.89-2.39,4.64a5.35,5.35,0,0,0,1.1-3.62c-.33-3.87-1.46-4.42-1.69-7.11a4,4,0,0,1,1.45-3.31v0a2.29,2.29,0,0,1-1.61-1,10.4,10.4,0,0,1,5.59-.44,4.15,4.15,0,0,1,3.12,1.73,6,6,0,0,1,.41,4.75c-.84,2.24-4.8,12.93-6,16.29a5.11,5.11,0,0,0-.32,2.24,2.74,2.74,0,0,0,3.07,2.42,2.41,2.41,0,0,0,2.3-2.32c-.07-.74-.51-1.15-1.09-1.1-1.39.12-1.2,1.29-.86,2a1.77,1.77,0,0,1-1.39-1.71,2.24,2.24,0,0,1-1.45-.67,1.72,1.72,0,0,1,1.32-.88c-.38-1.12.34-1.66,1.07-2-.17.85-.24,1.83,1.18,1.7a2.63,2.63,0,0,1,2.4.66c-.05-.9-.27-4.45-.27-4.45,0-1.34-1.89-1.14-3-.65.31-1.57,1.15-2.48,3.26-2.45A1.66,1.66,0,0,1,44,135.82a4.25,4.25,0,0,1,1.42-3.19l1.45,13Z"/>
            </g>
          </g>
          <g id="use43-2" data-name="use43">
            <g id="e-4" data-name="e">
              <path id="path37-4" data-name="path37" class="cls-2" d="M50.52,191.68s1.7,1.19,2.18.48c.77-1.15-3.21-6.18-3.37-8.06-.26-3.08,1.72-4.1,4.23-4.76a18.19,18.19,0,0,1,4.49-.26,2,2,0,0,1-1.66,1.12,3.66,3.66,0,0,1,2.26,3.16c.23,2.66-.77,3.84-.51,6.83a8.87,8.87,0,0,0,1.68,3.66,3.24,3.24,0,0,1-3.28-4,1.2,1.2,0,0,0-1,.4,1.79,1.79,0,0,1,.34-1.6c-.31-.13-.53,0-1,.12a2.16,2.16,0,0,1,1-1.65,2.62,2.62,0,0,1-3.71-2.22,1.92,1.92,0,0,1,1.47-2.19,1.68,1.68,0,0,1,.9.2,1.37,1.37,0,0,0-.18-1.09c.61.11,1,.43.81,1.19a1.53,1.53,0,0,1,1.12.41,1.28,1.28,0,0,1-1,.58c.39.66.05,1.08-.46,1.44,0,0,.22-1.42-.66-1.34-.4,0-.75.19-.7.78a1.29,1.29,0,0,0,1.58,1c1-.13,1.8-.87,1.66-2.51s-1.42-2.17-3-2.08a2.22,2.22,0,0,0-2.36,2.46c.17,2,3.44,6.29,3.59,8.07a2.2,2.2,0,0,1-2.19,2.28,4.4,4.4,0,0,1-2.93-1.26l.79-1.2Z"/>
              <path id="d-7" data-name="d" class="cls-2" d="M47.1,155.66a5.22,5.22,0,0,1,4.91-5.5c3.17-.28,5,1.47,5.23,4a7.33,7.33,0,0,1-.6,3.71s-4.29,11.32-6,15.7a4.47,4.47,0,0,0-.17,2,2.67,2.67,0,0,0,5.3-.5c-.14-1.66-1.07-2.32-2-2.25-1.09.1-1.48.58-1.42,1.34.05.54.33.74.7.71.93-.08.56-1.31.56-1.31a.86.86,0,0,1,.73,1.11,1.74,1.74,0,0,1,1,.46,1.63,1.63,0,0,1-.87.57.85.85,0,0,1-.6,1.29,1.27,1.27,0,0,0,0-.79,1.91,1.91,0,0,1-2.68-1.66,2.71,2.71,0,0,1,3.16-3.08,1.56,1.56,0,0,1-1-1.27,3.26,3.26,0,0,0,.86.11,2.87,2.87,0,0,1-.75-1.7c.42.15.84.47,1.34.2-1-1.56-.14-3.88,2.4-4.63a5.4,5.4,0,0,0-1.11,3.62c.33,3.86,1.46,4.42,1.69,7.1a4,4,0,0,1-1.45,3.31v0a2.32,2.32,0,0,1,1.61,1,10.3,10.3,0,0,1-5.59.43,4.17,4.17,0,0,1-3.13-1.72,6,6,0,0,1-.4-4.75c.84-2.24,4.8-12.93,6-16.29a5.14,5.14,0,0,0,.33-2.24,2.75,2.75,0,0,0-3.07-2.43,2.42,2.42,0,0,0-2.3,2.32c.06.74.5,1.16,1.08,1.11,1.39-.12,1.21-1.3.87-2a1.74,1.74,0,0,1,1.38,1.71,2.25,2.25,0,0,1,1.46.67,1.77,1.77,0,0,1-1.32.88c.37,1.11-.35,1.66-1.07,2,.16-.86.23-1.83-1.19-1.71a2.61,2.61,0,0,1-2.39-.65c0,.9.26,4.45.26,4.45.06,1.34,1.9,1.14,3,.64-.31,1.57-1.14,2.48-3.26,2.45A1.66,1.66,0,0,1,50,165.45a4.24,4.24,0,0,1-1.41,3.18l-1.45-13Z"/>
              <g id="use40-4" data-name="use40">
                <path id="d-8" data-name="d" class="cls-2" d="M46.24,145.66A5.23,5.23,0,0,0,52,150.25c3.16-.27,4.69-2.31,4.48-4.79a7.44,7.44,0,0,0-1.22-3.56s-6.16-10.42-8.55-14.44a4.56,4.56,0,0,1-.51-2,2.67,2.67,0,0,1,5.31-.41c.14,1.66-.66,2.47-1.54,2.55-1.09.09-1.56-.32-1.63-1.08,0-.53.19-.79.56-.82.94-.08.78,1.2.78,1.2a.86.86,0,0,0,.53-1.22,1.71,1.71,0,0,0,.86-.62,1.71,1.71,0,0,0-1-.41.84.84,0,0,0-.81-1.16,1.27,1.27,0,0,1,.16.76,1.92,1.92,0,0,0-2.36,2.1,2.71,2.71,0,0,0,3.64,2.49,1.6,1.6,0,0,0-.74,1.42,3.15,3.15,0,0,1,.84-.25,2.81,2.81,0,0,0-.45,1.8c.39-.22.74-.6,1.29-.43-.69,1.7.52,3.85,3.15,4.16a5.41,5.41,0,0,1-1.71-3.38c-.33-3.86.69-4.6.46-7.29a4,4,0,0,0-2-3v0A2.3,2.3,0,0,0,53,120.72a10.34,10.34,0,0,0-5.58.53,4.14,4.14,0,0,0-2.79,2.23,6,6,0,0,0,.41,4.75c1.21,2.06,6.94,11.92,8.73,15a5.35,5.35,0,0,1,.7,2.15,2.75,2.75,0,0,1-2.61,2.92,2.43,2.43,0,0,1-2.67-1.9c-.06-.74.3-1.22.89-1.27,1.39-.12,1.4,1.07,1.19,1.84a1.74,1.74,0,0,0,1.07-1.92,2.19,2.19,0,0,0,1.32-.91,1.73,1.73,0,0,0-1.45-.64c.18-1.16-.62-1.58-1.39-1.78.31.82.54,1.76-.88,1.88a2.62,2.62,0,0,0-2.25,1.06l-.49-4.44c-.18-1.32,1.67-1.44,2.87-1.15-.57-1.49-1.55-2.24-3.63-1.85a1.66,1.66,0,0,0,.92-1.71,4.27,4.27,0,0,0-1.94-2.9l.78,13Z"/>
              </g>
            </g>
          </g>
        </g>
      </g>
    </g>
    <path id="path8" d="M24.19,111.36C24.8,57.14,53,40.16,68.37,40.16c21.46,0,30.32,16.39,31.77,23.64s9.57,13,12.18,1.16,27.85-48.14,58.88-48.14c28.41,0,38.25,29.3,37.4,54.23-2.33,67.86-89.73,122-101.23,156.22C97.12,206.56,23.47,176.62,24.19,111.36ZM181.35,0c-25.52,0-55.7,18.85-74,50.17C102.46,38.86,84.9,26.53,64,26.53c-16.82,0-64,21-64,88.89C0,203,88.59,221,106.5,248.21c1.23,1.88,5.19,3.29,6.7-1.18,14.29-42.19,125.1-89.85,125.1-175.69C238.3,23.2,206.86,0,181.35,0Z"/>
  </g>
</svg>
