<?xml version="1.0" encoding="utf-8"?>
<!-- Generator: Adobe Illustrator 23.0.1, SVG Export Plug-In . SVG Version: 6.00 Build 0)  -->
<svg version="1.1" id="Livello_1" xmlns="http://www.w3.org/2000/svg" xmlns:xlink="http://www.w3.org/1999/xlink" x="0px" y="0px"
	 viewBox="0 0 238.3 250" enable-background="new 0 0 238.3 250" xml:space="preserve">
<g>
	<path fill="#0099DD" d="M107.4,227.3c6.5-19.4,37.6-45.3,63.6-76.5L41.4,163.4C63.7,194.6,100.4,213.1,107.4,227.3z"/>
	<path fill="#EE2233" d="M171.2,16.8c-31,0-56.3,36.3-58.9,48.1c-2.6,11.9-10.7,6.1-12.2-1.2c-1.4-7.3-10.3-23.6-31.8-23.6
		c-13.5,0-36.9,13.1-42.8,53l182.8-18c0.1-1.4,0.2-2.7,0.3-4.1C209.5,46.1,199.7,16.8,171.2,16.8z"/>
	<path fill="#FFFFFF" d="M25.6,93.2c-0.8,5.5-1.3,11.6-1.4,18.2c-0.2,20.6,7,37.7,17.2,52L171,150.8c18.8-22.6,35-47.9,37.4-75.6
		L25.6,93.2z"/>
	<path d="M181.4,0c-25.5,0-55.7,18.8-74,50.2C102.5,38.9,84.9,26.5,64,26.5c-16.8,0-64,21-64,88.9C0,203,88.6,221,106.5,248.2
		c1.2,1.9,5.2,3.3,6.7-1.2c14.3-42.2,125.1-89.8,125.1-175.7C238.4,23.2,206.9,0,181.4,0z M24.2,111.4C24.8,57.1,53,40.2,68.4,40.2
		c21.5,0,30.3,16.4,31.8,23.6c1.4,7.2,9.6,13,12.2,1.2c2.6-11.9,27.9-48.1,58.9-48.1c28.4,0,38.3,29.3,37.4,54.2
		c-2.3,67.9-89.7,122-101.3,156.2C97.1,206.6,23.5,176.6,24.2,111.4z"/>
</g>
</svg>
