<?xml version="1.0" encoding="utf-8"?>
<!-- Generator: Adobe Illustrator 23.0.1, SVG Export Plug-In . SVG Version: 6.00 Build 0)  -->
<svg version="1.1" id="Livello_1" xmlns="http://www.w3.org/2000/svg" xmlns:xlink="http://www.w3.org/1999/xlink" x="0px" y="0px"
	 viewBox="0 0 238.4 250" enable-background="new 0 0 238.4 250" xml:space="preserve">
<g>
	<g>
		<path fill="#993333" d="M107.4,227.3c7.4-22.1,46.5-52.5,73.8-89.5L35,153.2C55.7,190.7,99.7,211.6,107.4,227.3z"/>
		<path fill="#993333" d="M171.2,16.8c-31,0-56.3,36.3-58.9,48.1c-2.6,11.9-10.7,6.1-12.2-1.2c-1.4-7.3-10.3-23.6-31.8-23.6
			c-15.4,0-43.6,17-44.2,71.2c0,0.5,0,1,0,1.5l180.5-19c2.3-7.4,3.6-15,3.9-22.8C209.5,46.1,199.7,16.8,171.2,16.8z"/>
		<path fill="#FFFFFF" d="M35,153.2l146.2-15.4c10.2-13.8,18.8-28.5,23.5-44l-180.5,19C24.3,128.2,28.5,141.5,35,153.2z"/>
	</g>
	<path d="M181.4,0c-25.5,0-55.7,18.8-74,50.2C102.5,38.9,84.9,26.5,64,26.5c-16.8,0-64,21-64,88.9C0,203,88.6,221,106.5,248.2
		c1.2,1.9,5.2,3.3,6.7-1.2c14.3-42.2,125.1-89.8,125.1-175.7C238.4,23.2,206.9,0,181.4,0z M24.2,111.4C24.8,57.1,53,40.2,68.4,40.2
		c21.5,0,30.3,16.4,31.8,23.6c1.4,7.2,9.6,13,12.2,1.2c2.6-11.9,27.9-48.1,58.9-48.1c28.4,0,38.3,29.3,37.4,54.2
		c-2.3,67.9-89.7,122-101.3,156.2C97.1,206.6,23.5,176.6,24.2,111.4z"/>
</g>
</svg>
