<?xml version="1.0" encoding="UTF-8" standalone="no"?>
<!-- Generator: Adobe Illustrator 23.0.1, SVG Export Plug-In . SVG Version: 6.00 Build 0)  -->

<svg
   xmlns:dc="http://purl.org/dc/elements/1.1/"
   xmlns:cc="http://creativecommons.org/ns#"
   xmlns:rdf="http://www.w3.org/1999/02/22-rdf-syntax-ns#"
   xmlns:svg="http://www.w3.org/2000/svg"
   xmlns="http://www.w3.org/2000/svg"
   xmlns:sodipodi="http://sodipodi.sourceforge.net/DTD/sodipodi-0.dtd"
   xmlns:inkscape="http://www.inkscape.org/namespaces/inkscape"
   version="1.1"
   id="Livello_1"
   x="0px"
   y="0px"
   viewBox="0 0 238.4 250"
   enable-background="new 0 0 238.4 250"
   xml:space="preserve"
   sodipodi:docname="EuroMónaco.svg"
   inkscape:version="0.92.3 (2405546, 2018-03-11)"><metadata
   id="metadata17"><rdf:RDF><cc:Work
       rdf:about=""><dc:format>image/svg+xml</dc:format><dc:type
         rdf:resource="http://purl.org/dc/dcmitype/StillImage" /></cc:Work></rdf:RDF></metadata><defs
   id="defs15" /><sodipodi:namedview
   pagecolor="#ffffff"
   bordercolor="#666666"
   borderopacity="1"
   objecttolerance="10"
   gridtolerance="10"
   guidetolerance="10"
   inkscape:pageopacity="0"
   inkscape:pageshadow="2"
   inkscape:window-width="1920"
   inkscape:window-height="1001"
   id="namedview13"
   showgrid="false"
   inkscape:zoom="2"
   inkscape:cx="205.59839"
   inkscape:cy="170.28296"
   inkscape:window-x="-9"
   inkscape:window-y="-9"
   inkscape:window-maximized="1"
   inkscape:current-layer="Livello_1" />

<g
   id="g837"
   transform="matrix(1.0078198,0,0,1.0080705,-231.56155,63.535516)"
   style="opacity:1"><path
     id="path2-0"
     d="m 238.7745,57.000247 200,-14 -101,132.000003 -69,-59 z"
     style="fill:#ffffff"
     inkscape:connector-curvature="0" /><path
     id="path4-8"
     d="m 257.7745,-9.9997528 43,-21.0000002 36,25.0000002 41,-40.0000002 58,-5 19.24806,97.040029 -213.74418,22.719978 z"
     style="fill:#cc1122;fill-opacity:1"
     inkscape:connector-curvature="0"
     sodipodi:nodetypes="cccccccc" /><path
     id="path6"
     d="m 253.7795,47.471247 c 0.6,-53.7919998 28.594,-70.628 43.839,-70.628 21.29,0 30.083,16.2530002 31.52,23.44900023 1.436,7.18999997 9.494,12.94099977 12.083,1.14699997 2.591,-11.7940002 27.637,-47.7580002 58.42,-47.7580002 28.192,0 37.956,29.073 37.111,53.8010002 -2.307,67.3179998 -89.028,121.0450028 -100.443,154.9700028 -10.164,-20.547 -83.247,-50.248 -82.53,-114.981003 z m 155.933,-110.471 c -25.317,0 -55.258,18.698 -73.381,49.771 -4.89,-11.222 -22.313,-23.451 -43.024,-23.451 -16.689,0 -63.533,20.858 -63.533,88.178 0,86.880003 87.901,104.725003 105.671,131.729003 1.221,1.857 5.154,3.26 6.655,-1.177 14.179,-41.845 124.125,-89.125003 124.125,-174.2790028 -0.001,-47.7560002 -31.197,-70.7710002 -56.513,-70.7710002 z"
     inkscape:connector-curvature="0" /></g></svg>