<?xml version="1.0" encoding="UTF-8" standalone="no"?>
<!-- Generator: Adobe Illustrator 23.0.1, SVG Export Plug-In . SVG Version: 6.00 Build 0)  -->

<svg
   xmlns:dc="http://purl.org/dc/elements/1.1/"
   xmlns:cc="http://creativecommons.org/ns#"
   xmlns:rdf="http://www.w3.org/1999/02/22-rdf-syntax-ns#"
   xmlns:svg="http://www.w3.org/2000/svg"
   xmlns="http://www.w3.org/2000/svg"
   xmlns:sodipodi="http://sodipodi.sourceforge.net/DTD/sodipodi-0.dtd"
   xmlns:inkscape="http://www.inkscape.org/namespaces/inkscape"
   version="1.1"
   id="Livello_1"
   x="0px"
   y="0px"
   viewBox="0 0 238.4 250"
   enable-background="new 0 0 238.4 250"
   xml:space="preserve"
   sodipodi:docname="EuroMoldova.svg"
   inkscape:version="0.92.3 (2405546, 2018-03-11)"><metadata
   id="metadata445"><rdf:RDF><cc:Work
       rdf:about=""><dc:format>image/svg+xml</dc:format><dc:type
         rdf:resource="http://purl.org/dc/dcmitype/StillImage" /><dc:title></dc:title></cc:Work></rdf:RDF></metadata><defs
   id="defs443">
	
	

		
		
		
		
		
		
		
		
		
		
		
		
		
		
		
		
		
		
		
		
		
		
		
		
		
		
		
		
		
		
		
		
		
		
		
		
		
		
		
		
		
		
		
		
		
		
		
		
		
		
		
		
		
		
		
		
		
		
		
		
		
		
		
		
		
		
		
		
		
		
		
		
		
		
		
		
		
		
		
		
		
		
		
		
		
		
		
		
		
		
		
		
		
		
		
		
		
		
		
		
		
		
		
		
		
		
		
		
		
		
		
		
		
		
		
		
		
		
		
		
		
		
		
		
		
		
		
		
		
		
		
		
		
		
		
		
		
		
		
		
		
		
		
		
		
		
		
		
		
		
		
		
		
		
		
		
		
		
		
		
		
		
		
		
		
		
		
		
		
		
		
		
		
		
		
			
		
		
		
		
			
		
		
		
		
		
		
		
			
		
			
		
		
		
		
		
		
		
		
			
		
			
		
		
		
		
			
		
		
		
		
		
			
		
		
		
		
		
		
		
		
		
		
		
	</defs><sodipodi:namedview
   pagecolor="#ffffff"
   bordercolor="#666666"
   borderopacity="1"
   objecttolerance="10"
   gridtolerance="10"
   guidetolerance="10"
   inkscape:pageopacity="0"
   inkscape:pageshadow="2"
   inkscape:window-width="1920"
   inkscape:window-height="1001"
   id="namedview441"
   showgrid="false"
   inkscape:zoom="2"
   inkscape:cx="78.568842"
   inkscape:cy="145.35392"
   inkscape:window-x="-9"
   inkscape:window-y="-9"
   inkscape:window-maximized="1"
   inkscape:current-layer="Livello_1" />
<polygon
   points=""
   id="polygon174"
   style="fill:#d90011" /><polygon
   points=""
   id="polygon270"
   style="fill:#13110c" /><polygon
   points=""
   id="polygon272"
   style="fill:#13110c" /><polygon
   points=""
   id="polygon382"
   style="fill:#e6e400" />
<g
   id="g5609"><g
     id="g5507"><path
       id="path2772"
       d="m 114.92475,52.271787 c -2.6,11.899998 -9.99289,14.762058 -11.49289,7.462058 -1.1,-5.5 -9.68198,-16.73033 -21.58198,-21.63033 V 209.46367 c 12.1,9.7 22.2,11.03604 25.6,17.83604 4.7,-13.9 22,-24.30571 41,-44.40571 l 0,-163.583378 c -19.7,10.9 -31.52513,24.161165 -33.52513,32.961165 z"
       inkscape:connector-curvature="0"
       style="fill:#ffd200;fill-opacity:1"
       sodipodi:nodetypes="cccccccc" /><path
       id="path2774"
       d="m 82.84988,209.04971 0,-169.087787 c -4,-1.8 -8.037087,-3.386136 -13.637087,-3.386136 -15.4,0 -51.864311,19.386485 -52.464311,73.586483 -0.5,44.4 41.101398,78.98744 66.101398,98.88744 z"
       inkscape:connector-curvature="0"
       style="fill:#0046ae;fill-opacity:1"
       sodipodi:nodetypes="ccscc" /><path
       id="path2776"
       d="m 171.34988,10.549709 c -8.2,0 -16,2.85 -23.1,6.75 V 186.44971 c 27.7,-29.3 66.2,-75.05 67.5,-115.450001 0.9,-24.9 -15.9,-60.45 -44.4,-60.45 z"
       inkscape:connector-curvature="0"
       style="fill:#cc092f;fill-opacity:1"
       sodipodi:nodetypes="scccs" /><g
       id="g5407"><polygon
         style="fill:#b07f55"
         id="polygon10"
         transform="matrix(0.14232116,-0.01245145,0,0.14232116,-12.936823,74.168033)"
         points="1011.2,546.5 1037.1,576.08 1042.6,575.4 1061.4,598.64 1061.2,276.63 1026.5,240.09 992.74,267.59 994.15,297.23 978.99,297.79 956.43,309.35 943.8,313.5 937.85,314.68 930.1,306.26 919.72,285.49 919.04,265.01 925.44,251.65 924.26,239.02 930,239.13 926.34,230.6 931.4,228.58 923.82,221.9 926.46,218.81 897.83,206.52 875.99,205.06 870.1,207.64 867.24,212.98 873.02,229.31 866.84,235.48 872.96,247.44 873.19,273.65 868.3,295.77 858.48,312.49 853.32,314.46 841.02,311.65 815.26,298.07 798.98,297.17 797.86,265.62 766.65,240.54 734.83,274.89 730.28,284.99 731.74,597.52 752.34,572.6 756.66,573.67 777.93,550.65 796.01,505.08 801.34,486.16 825.7,514.95 816.5,531.96 824.86,531.34 825.59,538.47 833.28,535.22 835.36,545.04 852.31,527.86 875.88,539.48 831.15,619.19 815.21,630.97 843.94,641.75 873.41,607.4 869.15,629.96 860.39,651.85 896.26,672.51 935.22,649.5 916.07,609.31 922.3,606.45 947.56,643.04 975.07,629.4 939.31,587.59 915.79,537.29 940.6,529.1 957.5,545.32 960.02,534.77 968.95,539.09 967.82,530.28 976.8,532.24 965.86,514.9 993.64,491.6 " /><path
         style="stroke-width:0.88556474"
         inkscape:connector-curvature="0"
         id="path12"
         d="m 107.70741,89.692001 c -0.4587,0.04013 -0.85933,0.192169 -1.09303,0.3945 0.37131,0.07568 0.6413,0.394486 0.6413,0.810916 v 1.056451 l -1.05631,0.09241 c -0.41373,0.03619 -0.75644,-0.19996 -0.86716,-0.558033 -0.18188,0.249604 -0.29873,0.660463 -0.29873,1.119019 0,0.458704 0.11685,0.849255 0.29873,1.06675 0.10831,-0.380935 0.45059,-0.68072 0.86716,-0.717165 l 1.05631,-0.09241 v 5.078159 c 0,0.399211 -0.24963,0.752232 -0.59747,0.904634 0.50396,0.02452 0.93763,0.662878 1.05646,1.022375 0.11913,-0.379462 0.55278,-1.094566 1.05659,-1.207242 -0.35153,-0.08908 -0.60501,-0.397658 -0.60501,-0.799431 v -5.078445 l 1.0566,-0.09244 c 0.41387,-0.03621 0.75643,0.199959 0.86716,0.558316 0.18174,-0.249592 0.2986,-0.660733 0.2986,-1.119148 0,-0.458701 -0.11671,-0.849125 -0.2986,-1.066764 -0.1083,0.380794 -0.45073,0.68045 -0.86716,0.716881 l -1.0566,0.09244 v -1.056306 c 0,-0.41387 0.266,-0.77971 0.63405,-0.922635 -0.23341,-0.161181 -0.63433,-0.243095 -1.09289,-0.202974 z" /><path
         style="fill:#f5d402;stroke-width:0.88556474"
         inkscape:connector-curvature="0"
         id="path14"
         d="m 107.70741,89.911176 c -0.23881,0.0209 -0.44917,0.08399 -0.6265,0.156712 0.23683,0.185218 0.39352,0.469959 0.39352,0.810816 v 1.056451 c 0,0.01509 -0.004,0.02984 -0.007,0.04448 v 0.167511 l -0.16766,0.01468 c -0.0143,0.0043 -0.0288,0.0098 -0.0437,0.01122 l -1.05659,0.09244 c -0.33687,0.02947 -0.63177,-0.09886 -0.8377,-0.31283 -0.0592,0.184362 -0.1093,0.393404 -0.1093,0.636204 0,0.238815 0.0447,0.445256 0.10189,0.617583 0.20594,-0.254841 0.50425,-0.437352 0.84511,-0.46717 l 1.27506,-0.111554 c -8.8e-4,0.02203 -0.007,0.04377 -0.007,0.06597 v 0.109302 c 0.003,0.01398 0.007,0.02798 0.007,0.04305 v 5.078163 c 0,0.329757 -0.17007,0.603947 -0.39352,0.828582 0.15983,0.08464 0.29745,0.196708 0.4153,0.328151 0.10489,0.116776 0.14659,0.236377 0.2186,0.35959 0.0722,-0.135541 0.11372,-0.262711 0.2186,-0.397843 0.116,-0.149337 0.25163,-0.281039 0.40804,-0.392782 -0.22543,-0.184792 -0.39351,-0.435944 -0.39351,-0.766983 v -5.289791 l 0.1749,-0.01531 c 0.0143,-0.0041 0.0286,-0.0096 0.0437,-0.01094 l 1.05645,-0.09243 c 0.33673,-0.02946 0.63162,0.09888 0.8377,0.312686 0.0591,-0.184206 0.10944,-0.393129 0.10944,-0.636071 0,-0.238674 -0.0448,-0.445245 -0.10203,-0.617571 -0.20594,0.25484 -0.50425,0.43735 -0.84511,0.46717 l -1.05645,0.09243 c -0.015,0.0013 -0.0295,-0.0019 -0.0437,-0.0035 l -0.16765,0.01467 V 91.93671 c -0.003,-0.01382 -0.007,-0.02797 -0.007,-0.04319 v -1.056307 c 0,-0.336874 0.15428,-0.645121 0.38612,-0.871628 -0.17918,-0.04324 -0.38369,-0.07573 -0.62649,-0.05449 l -1.4e-4,1.4e-5 z" /><polygon
         style="fill:#d10429"
         id="polygon16"
         transform="matrix(0.14232116,-0.01245145,0,0.14232116,-12.936823,74.168033)"
         points="788.16,565.19 777.37,570.27 773.87,582.02 775.46,587.42 787.21,600.12 796.74,594.72 804.36,586.47 806.26,579.16 833.57,543.6 832.3,534.71 826.26,538.52 824.04,531.22 820.23,532.49 798.64,565.51 " /><polygon
         style="fill:#d10429"
         id="polygon18"
         transform="matrix(0.14232116,-0.01245145,0,0.14232116,-12.936823,74.168033)"
         points="1020.6,583.29 1017.4,572.18 1004.4,564.24 994.55,565.19 972.64,532.49 968.83,530.9 967.25,537.25 960.89,535.35 958.35,542.33 987.24,581.39 990.11,589 1002.8,600.44 1006.6,599.48 " /><rect
         style="stroke-width:0.88556474"
         id="rect20"
         x="133.10448"
         y="95.109253"
         width="2.5362134"
         height="2.6739123"
         transform="matrix(0.90915557,0.41645667,-0.20920007,0.97787286,0,0)" /><path
         style="stroke-width:0.88556474"
         inkscape:connector-curvature="0"
         id="path22-0"
         d="m 90.374111,124.72368 -0.830582,0.45166 9.384084,19.73302 0.998244,-0.0873 -9.551889,-20.09692 v -1.4e-4 1.4e-4 z m 11.067179,23.27188 -0.67745,0.75878 0.42255,0.89567 0.82319,-0.45088 -0.56815,-1.20358 z" /><rect
         style="fill:#f5d402;stroke-width:0.88556474"
         id="rect24"
         x="133.5869"
         y="95.617874"
         width="1.5730879"
         height="1.6586266"
         transform="matrix(0.90915557,0.41645667,-0.20920007,0.97787286,0,0)" /><polygon
         style="fill:#0b45bb"
         id="polygon26"
         transform="matrix(0.14232116,-0.01245145,0,0.14232116,-12.936823,74.168033)"
         points="889.45,544.87 895.48,551.22 935.5,529.31 982.48,507.09 991.38,493.43 991.38,416.91 800.86,416.6 801.18,494.39 806.9,503.6 843.09,523.6 " /><path
         style="fill:#d10429;stroke-width:0.88556474"
         inkscape:connector-curvature="0"
         id="path28"
         d="m 100.72798,110.18631 0.34228,0.96815 c 0,0 -0.0801,12.72099 -0.0801,12.72099 0,0 0.47364,0.48301 0.47364,0.48301 0,0 3.91256,0.12409 3.91256,0.12409 l 4.23307,-0.98973 c 0,0 2.45802,0.16452 4.15321,0.27809 0.002,0.009 0.051,0.25044 0.051,0.25044 0,0 0.61497,-0.1476 0.80867,-0.19471 0.19042,0.0128 0.80141,0.0538 0.80141,0.0538 l 0.051,-0.25936 c 1.69505,-0.41016 4.15321,-1.0048 4.15321,-1.0048 l 4.23307,0.24904 c 0,0 3.91254,-0.80869 3.91254,-0.80869 0,0 0.47365,-0.56589 0.47365,-0.56589 0,0 -0.0802,-12.70696 -0.0802,-12.70696 l 0.34257,-1.02806 -4.68479,0.44601 c 0,0 -5.35427,0.52167 -9.20206,0.9 -3.84708,0.29487 -9.20946,0.7108 -9.20946,0.7108 l -4.68479,0.37371 -2.8e-4,2e-5 z" /><path
         style="stroke-width:0.88556474"
         inkscape:connector-curvature="0"
         id="path30"
         d="m 109.60883,123.49344 c 0,0 -2.90151,-0.45548 -3.98529,-1.79342 -1.89472,1.87021 -4.16033,2.65906 -4.16033,2.65906 0,0 2.36352,0.86035 4.16033,2.06232 0.82788,-1.25883 3.98529,-2.92796 3.98529,-2.92796 z m 10.01798,-0.87646" /><path
         style="stroke-width:0.88556474"
         inkscape:connector-curvature="0"
         id="path32"
         d="m 119.62681,122.61698 c 0,0 3.15753,1.11651 3.98556,2.2306 1.79652,-1.51635 4.15991,-2.79024 4.15991,-2.79024 0,0 -2.26533,-0.39259 -4.15991,-1.93112 -1.08378,1.52742 -3.98556,2.49076 -3.98556,2.49076 z" /><path
         style="stroke-width:0.88556474"
         inkscape:connector-curvature="0"
         id="path34"
         d="m 114.61425,110.03456 -0.8162,2.38855 -2.2222,-0.86218 1.05645,2.12991 -2.31685,1.02589 2.31685,0.62062 -1.05645,2.30738 2.2222,-1.25087 0.8162,2.24544 0.82333,-2.38888 2.22221,0.86203 -1.05631,-2.12253 2.31684,-1.02602 -2.31684,-0.62049 1.05631,-2.31476 -2.22221,1.25101 z" /><polygon
         style="fill:#f5d402"
         id="polygon36"
         transform="matrix(0.14232116,-0.01245145,0,0.14232116,-12.936823,74.168033)"
         points="869.26,445.63 875.54,451.92 869.71,457.76 863.64,451.7 " /><polygon
         style="fill:#f5d402"
         id="polygon38"
         transform="matrix(0.14232116,-0.01245145,0,0.14232116,-12.936823,74.168033)"
         points="923.37,444.96 917.08,451.47 922.7,457.53 929.43,451.7 " /><polygon
         style="fill:#f5d402"
         id="polygon40"
         transform="matrix(0.14232116,-0.01245145,0,0.14232116,-12.936823,74.168033)"
         points="913.72,470.78 913.49,488.74 918.21,498.84 924.49,501.54 923.6,477.96 927.86,461.57 916.63,464.27 " /><polygon
         style="fill:#f5d402"
         id="polygon42"
         transform="matrix(0.14232116,-0.01245145,0,0.14232116,-12.936823,74.168033)"
         points="868.81,501.09 874.42,497.05 878.24,488.29 878.91,473.03 875.99,463.82 864.77,461.8 868.81,481.78 " /><polygon
         style="fill:#f5d402"
         id="polygon44"
         transform="matrix(0.14232116,-0.01245145,0,0.14232116,-12.936823,74.168033)"
         points="956.15,480.44 967.82,477.74 954.8,471.45 942.23,474.15 935.72,481.78 935.04,494.13 944.25,504.91 946.49,505.58 946.27,493.9 " /><polygon
         style="fill:#f5d402"
         id="polygon46"
         transform="matrix(0.14232116,-0.01245145,0,0.14232116,-12.936823,74.168033)"
         points="854.21,502.21 858.48,495.7 855.56,489.64 852.42,487.17 856.91,484.7 858.71,477.29 852.64,470.33 846.81,471.23 843.89,473.47 842.54,468.09 835.58,464.04 829.74,466.29 826.82,472.35 828.4,477.74 822.33,477.07 817.39,481.78 816.72,488.07 820.09,492.11 824.8,493.68 827.5,493.46 825.25,499.07 827.05,504.68 832.66,507.82 838.95,506.26 842.32,499.97 847.7,503.56 " /><path
         style="fill:#ffd200;stroke-width:0.88556474"
         inkscape:connector-curvature="0"
         id="path48"
         d="m 114.62279,111.59365 0.5246,1.43339 1.4134,-0.80125 -0.67034,1.4793 1.47189,0.39597 -1.47189,0.65337 0.67034,1.35474 -1.4134,-0.54668 -0.53185,1.51828 -0.5246,-1.42585 -1.41339,0.79399 0.67033,-1.47204 -1.47174,-0.39583 1.47174,-0.6535 -0.67033,-1.36201 1.41339,0.55394 z" /><path
         style="stroke-width:0.88556474"
         inkscape:connector-curvature="0"
         id="path50"
         d="m 109.95182,110.09379 c -0.13364,0.94773 -4.8449,3.30587 -4.8449,7.22881 0,5.02266 4.6993,5.79649 4.6993,5.79649 l -0.19697,0.37417 -1.14369,2.18379 c 0,0 1.94197,-0.0727 2.97266,0.71639 1.24289,0.95126 1.12191,3.20782 1.12191,4.84167 0,1.28729 -0.16267,2.65998 -0.82318,3.27765 -0.88694,0.82964 -1.48654,0.93774 -1.48654,1.82056 0,0.73637 0.56601,0.83443 1.48654,1.23978 1.17941,0.51919 1.12448,1.35871 2.87774,1.20532 1.75353,-0.15341 1.70571,-0.98381 2.88527,-1.70952 0.92053,-0.56641 1.4864,-0.7635 1.4864,-1.49988 0,-0.88281 -0.59974,-0.886 -1.4864,-1.56044 -0.66051,-0.50239 -0.82318,-1.84648 -0.82318,-3.13363 0,-1.63385 -0.12084,-3.86924 1.12191,-5.03798 1.03083,-0.96931 2.97252,-1.23653 2.97267,-1.23653 l -1.14399,-1.98365 -0.19654,-0.33975 c 0,0 4.6993,-1.5961 4.6993,-6.61875 0,-3.9228 -4.71126,-5.45672 -4.84518,-6.38105 -0.46041,1.66004 1.57379,3.71922 1.57379,6.36853 0,3.42794 -2.5282,3.81323 -2.5282,3.81323 -0.59162,0.0517 -0.83129,0.49513 -1.06384,0.51548 -0.49771,-0.009 -0.73197,-0.62095 -1.22411,-0.5779 -0.46211,0.0404 -0.81692,0.78551 -1.4279,0.83895 -0.61086,0.0535 -0.95854,-0.63016 -1.4208,-0.58971 -0.49186,0.043 -0.72626,0.69658 -1.22396,0.79207 -0.23255,0.0203 -0.47237,-0.38108 -1.064,-0.32933 0,0 -2.52804,0.0571 -2.52804,-3.37086 0,-2.64932 2.03447,-5.06474 1.57364,-6.6439 z" /><path
         style="fill:#ffd200;stroke-width:0.88556474"
         inkscape:connector-curvature="0"
         id="path52"
         d="m 105.57971,122.41847 c 0.95768,1.01251 2.47738,1.29869 2.47738,1.29869 -2.7e-4,2e-5 -2.43355,2.01982 -2.43355,2.01982 l -0.0293,0.0389 -0.051,-0.0392 -2.69572,-1.4545 c 0,0 1.72024,-0.74356 2.73229,-1.86379 v 1.4e-4 z m 3.68755,-10.84443" /><path
         style="fill:#ffd200;stroke-width:0.88556474"
         inkscape:connector-curvature="0"
         id="path54"
         d="m 109.26726,111.57404 c 0.19312,0.39925 -1.5738,3.11932 -1.5738,5.22339 0,2.58 1.37582,3.98147 3.21305,3.82074 0.35039,-0.0306 0.73366,0.40945 1.06385,0.38057 0.53825,-0.0471 0.89634,-0.67589 1.22409,-0.70457 0.41658,-0.0365 0.69739,0.59467 1.42066,0.53139 0.72341,-0.0633 1.01148,-0.74416 1.42805,-0.78061 0.32762,-0.0287 0.68571,0.53747 1.22396,0.49038 0.33033,-0.029 0.71332,-0.53605 1.06386,-0.56673 1.83722,-0.16073 3.21318,-1.80294 3.21318,-4.38294 0,-2.10408 -1.76706,-4.51496 -1.57379,-4.94802 0,0 3.44617,2.17048 3.44617,5.08279 0,4.69134 -4.75766,6.26693 -4.75766,6.26693 l 1.07097,2.31779 c 0,0 -1.47473,0.35019 -2.3752,1.15509 -1.20105,1.07358 -1.21684,3.69168 -1.21684,5.46144 0,2.08472 0.0776,2.96132 0.83072,3.46101 0.79415,0.52727 1.39148,0.60353 1.39148,1.21167 0,0.52987 -0.61838,0.80073 -1.42079,1.22444 -0.91271,0.4822 -1.00366,1.1881 -2.32411,1.30362 -1.3206,0.11554 -1.40428,-0.57508 -2.31698,-0.89758 -0.80228,-0.28333 -1.4208,-0.44583 -1.4208,-0.97584 0,-0.60812 0.59732,-0.7889 1.39148,-1.45514 0.75315,-0.63148 0.83058,-1.52163 0.83058,-3.60636 0,-1.76975 -0.0157,-4.38511 -1.2167,-5.24852 -0.90061,-0.64762 -2.3752,-0.7395 -2.3752,-0.7395 l 1.07082,-2.50517 c 0,0 -4.75751,-0.74298 -4.75751,-5.43445 0,-2.91232 3.44617,-5.6858 3.44617,-5.6858 l 2.7e-4,-2e-5 z" /><path
         style="fill:#ffd200;stroke-width:0.88556474"
         inkscape:connector-curvature="0"
         id="path56"
         d="m 123.65592,120.83701 c 1.01219,0.94298 2.73228,1.38554 2.73228,1.38554 0,0 -1.79453,1.05078 -2.69599,1.92622 0.0339,0.16142 -0.0444,0.0421 -0.0508,0.0481 -0.042,0.0572 -0.016,-0.0187 -0.029,-0.0338 -0.85194,-0.90336 -2.43341,-1.59402 -2.43341,-1.59402 0,0 1.51941,-0.55206 2.4771,-1.73215 z" /><path
         style="stroke-width:0.88556474"
         inkscape:connector-curvature="0"
         id="path58"
         d="m 110.7972,126.47784 -1.12931,1.22799 1.12931,1.03051 1.12932,-1.22812 z m 7.64265,-0.66864 -1.12918,1.22796 1.12918,1.03054 1.12932,-1.22812 -1.12932,-1.03038" /><path
         style="stroke-width:0.88556474"
         inkscape:connector-curvature="0"
         id="path60-1"
         d="m 118.43985,125.8092 -1.12918,1.22796 1.12918,1.03054 1.12932,-1.22812 z" /><path
         style="fill:#ffd200;stroke-width:0.88556474"
         inkscape:connector-curvature="0"
         id="path62-7"
         d="m 110.7972,127.01724 0.59021,0.53829 -0.59021,0.64924 -0.59746,-0.54534 z m 7.64265,-0.66865 0.59761,0.53765 -0.59761,0.64989 -0.59006,-0.54599 0.59006,-0.64155" /><path
         style="fill:#ffd200;stroke-width:0.88556474"
         inkscape:connector-curvature="0"
         id="path64-4"
         d="m 118.43985,126.34859 0.59761,0.53765 -0.59761,0.64989 -0.59006,-0.54599 z" /><path
         style="stroke-width:0.88556474"
         inkscape:connector-curvature="0"
         id="path66"
         d="m 109.75541,128.82763 c 0.2243,0.53528 0.75758,2.20758 0.75758,4.26882 0,1.42676 -0.13834,2.19061 -0.13834,2.19061 0,0 1.592,-0.60794 1.9091,-2.25074 0.14858,-0.77015 0.31411,-3.57385 -0.45187,-3.98233 l -2.07633,-0.22638 z m 9.72624,-0.85094 -2.07662,0.58986" /><path
         style="stroke-width:0.88556474"
         inkscape:connector-curvature="0"
         id="path68-9"
         d="m 119.48165,127.97669 -2.07662,0.58986 c -0.76583,0.54236 -0.6003,3.31708 -0.45173,4.06137 0.31695,1.58734 1.90896,1.91672 1.90896,1.91672 0,0 -0.13834,-0.73964 -0.13834,-2.16641 0,-2.06124 0.53328,-3.82699 0.75786,-4.4014 v -1.4e-4 z" /><path
         style="stroke-width:0.88556474"
         inkscape:connector-curvature="0"
         id="path70-5"
         d="m 105.88712,129.61864 c -0.0889,0.0116 -0.18018,0.0297 -0.26969,0.0599 -0.71603,0.24226 -1.14868,1.00923 -0.96893,1.70951 0.0275,0.10718 0.0727,0.20442 0.12381,0.29516 -0.10431,-0.0256 -0.21319,-0.0391 -0.32789,-0.0369 -0.046,6e-4 -0.0932,0.006 -0.13835,0.012 -0.67759,0.0821 -1.24246,0.66419 -1.28957,1.35884 -0.0504,0.74079 0.50937,1.32585 1.24603,1.31179 0.10986,-0.003 0.21675,-0.0155 0.32036,-0.0427 -0.0633,0.0925 -0.11812,0.19007 -0.16011,0.29808 -0.27567,0.70911 0.0582,1.46807 0.74319,1.68382 0.68486,0.21547 1.46563,-0.19384 1.74117,-0.90279 0.0422,-0.10829 0.0656,-0.21239 0.0802,-0.32041 0.0631,0.082 0.13891,0.15563 0.22572,0.22063 0.5663,0.4241 1.4134,0.27498 1.88704,-0.3326 0.47379,-0.60761 0.39864,-1.44116 -0.16765,-1.86512 -0.0857,-0.0642 -0.18075,-0.11227 -0.27682,-0.15055 0.1029,-0.042 0.20295,-0.0963 0.29859,-0.16446 0.62551,-0.44681 0.8148,-1.29653 0.42255,-1.88772 -0.26955,-0.40636 -0.7432,-0.58595 -1.2167,-0.51278 -0.21533,0.0332 -0.43109,0.11911 -0.62664,0.2589 -0.0955,0.0683 -0.18033,0.14216 -0.2549,0.22625 1.4e-4,-0.1076 -0.009,-0.21752 -0.0365,-0.32457 -0.15712,-0.6129 -0.73309,-0.97552 -1.35518,-0.89434 l 1.5e-4,1.3e-4 v 1.4e-4 z" /><path
         style="fill:#ffd200;stroke-width:0.88556474"
         inkscape:connector-curvature="0"
         id="path72-7"
         d="m 110.4841,129.39008 1.1148,0.13574 c 0.41231,0.53293 0.34229,1.45901 0.34229,2.73891 0,1.29043 -0.96894,1.86962 -0.96894,1.86962 0,-3.10175 -0.31979,-3.81953 -0.48815,-4.74413 z m 8.26885,-0.72342" /><path
         style="fill:#ffd200;stroke-width:0.88556474"
         inkscape:connector-curvature="0"
         id="path74-1"
         d="m 118.75295,128.66666 c -0.16865,0.95435 -0.48801,1.72792 -0.48801,4.82953 0,0 -0.96906,-0.40964 -0.96906,-1.70007 0,-1.2799 -0.07,-2.19345 0.34242,-2.79868 z" /><path
         style="fill:#ffd200;stroke-width:0.88556474"
         inkscape:connector-curvature="0"
         id="path76"
         d="m 105.96682,130.17241 c 0.4829,-0.0631 0.92679,0.2185 1.0492,0.69496 0.029,0.11359 0.0321,0.22745 0.0218,0.34066 -0.009,0.0938 -0.0333,0.18052 -0.0654,0.26788 -0.16125,-0.0448 -0.33574,-0.0582 -0.51734,-0.0422 -0.44959,0.0393 -0.85208,0.27237 -1.12932,0.60902 -0.0727,-0.0579 -0.13591,-0.1236 -0.18929,-0.20205 -0.0598,-0.0871 -0.11029,-0.18376 -0.13847,-0.29387 -0.13976,-0.54468 0.20081,-1.13849 0.75771,-1.32683 0.0694,-0.0237 0.14232,-0.0388 0.21135,-0.0477 v 1.4e-4 l 1.4e-4,-10e-6 z" /><path
         style="stroke-width:0.88556474"
         inkscape:connector-curvature="0"
         id="path78"
         d="m 122.61413,129.14577 c -1.71042,0.14965 -2.96213,1.57734 -2.79021,3.1802 0.14474,1.35177 1.25357,2.39789 2.62284,2.60472 -0.23384,-0.36197 -0.38925,-0.77462 -0.43722,-1.22215 -0.17149,-1.60318 1.07994,-3.02359 2.7905,-3.17324 0.26955,-0.0236 0.53071,-0.0132 0.78675,0.026 -0.60302,-0.93594 -1.73846,-1.52374 -2.97266,-1.41575 l 1.4e-4,1.2e-4 -1.4e-4,2e-5 v -1.4e-4 z" /><path
         style="fill:#ffd200;stroke-width:0.88556474"
         inkscape:connector-curvature="0"
         id="path80-7"
         d="m 108.05041,130.79139 c 0.33403,-0.0182 0.65439,0.12691 0.84496,0.41423 0.30513,0.45976 0.15869,1.11643 -0.32777,1.46399 -0.10161,0.0725 -0.21035,0.12428 -0.32079,0.15928 -0.0919,0.0292 -0.18544,0.0354 -0.27682,0.0387 5.9e-4,-0.0148 0,-0.0286 0,-0.0438 0,-0.61895 -0.37216,-1.12166 -0.90345,-1.31243 0.0375,-0.0941 0.0817,-0.18447 0.14559,-0.26778 0.0686,-0.089 0.15128,-0.1712 0.24793,-0.24029 0.18245,-0.13039 0.38939,-0.20115 0.59006,-0.21188 l 1.4e-4,-1e-5 z m 14.56372,-1.04075" /><path
         style="fill:#ffd200;stroke-width:0.88556474"
         inkscape:connector-curvature="0"
         id="path82"
         d="m 122.61413,129.75064 c 0.53541,-0.0469 1.04975,0.0721 1.49366,0.30653 -1.66928,0.46883 -2.87062,2.04837 -2.69584,3.75503 -0.53201,-0.39408 -0.92126,-0.95351 -0.99084,-1.60366 -0.13535,-1.26606 0.79286,-2.3354 2.19316,-2.45792 z" /><path
         style="fill:#ffd200;stroke-width:0.88556474"
         inkscape:connector-curvature="0"
         id="path84"
         d="m 104.69162,131.94487 c 0.12112,-0.003 0.22971,0.0218 0.33503,0.0579 0.0842,0.0295 0.1621,0.07 0.23311,0.11807 -0.20237,0.27689 -0.3205,0.61441 -0.3205,0.96794 0,0.27738 0.0745,0.52776 0.20395,0.74002 -0.0879,0.0628 -0.18032,0.1144 -0.28393,0.1488 -0.10062,0.0333 -0.20481,0.0544 -0.31354,0.0565 -0.57269,0.0108 -1.00805,-0.44636 -0.96892,-1.02263 0.0393,-0.57628 0.5421,-1.05577 1.1148,-1.0666 z" /><path
         style="fill:#ffd200;stroke-width:0.88556474"
         inkscape:connector-curvature="0"
         id="path86"
         d="m 106.45498,131.9443 c 0.55605,-0.0487 1.0055,0.36873 1.0055,0.92507 0,0.55605 -0.44945,1.04482 -1.0055,1.09347 -0.55633,0.0486 -1.00564,-0.36147 -1.00564,-0.91753 0,-0.55632 0.44945,-1.05236 1.00564,-1.10101 z" /><path
         style="fill:#ffd200;stroke-width:0.88556474"
         inkscape:connector-curvature="0"
         id="path88"
         d="m 107.96217,132.96951 c 0.0995,0.003 0.19569,0.0179 0.29133,0.0474 0.0993,0.0309 0.19783,0.0705 0.28407,0.13539 0.44034,0.32995 0.49229,0.98093 0.12396,1.45364 -0.36847,0.47259 -1.02414,0.58915 -1.46449,0.25935 -0.0929,-0.0697 -0.16039,-0.15704 -0.2186,-0.25057 -0.0461,-0.0744 -0.0762,-0.15517 -0.1019,-0.23873 0.58622,-0.22065 1.02514,-0.77596 1.08563,-1.40633 v -1.4e-4 z" /><path
         style="fill:#ffd200;stroke-width:0.88556474"
         inkscape:connector-curvature="0"
         id="path90"
         d="m 105.19402,133.91191 c 0.27211,0.37924 0.73679,0.60587 1.26068,0.56003 0.11001,-0.01 0.21689,-0.033 0.32036,-0.0647 0.022,0.0937 0.0353,0.18905 0.0291,0.28907 -0.007,0.10846 -0.023,0.21664 -0.0656,0.32639 -0.21419,0.5513 -0.82248,0.86169 -1.35518,0.69411 -0.53257,-0.1676 -0.79729,-0.75258 -0.58295,-1.30418 0.0434,-0.11126 0.10333,-0.21015 0.17491,-0.29938 0.0631,-0.0786 0.13847,-0.14333 0.21861,-0.20129 l 1.4e-4,-1e-5 -1.4e-4,1e-5 z" /><path
         style="stroke-width:0.88556474"
         inkscape:connector-curvature="0"
         id="path92"
         d="m 112.81532,135.72294 c -0.93463,0.0817 -1.52995,0.33111 -1.52995,0.61476 0,0.28378 0.59546,0.42155 1.52995,0.33979 0.24905,-0.0218 0.53185,-0.19155 0.53185,-0.52017 0,-0.32862 -0.28294,-0.45615 -0.53185,-0.43438 z m 3.60642,-0.31552" /><path
         style="stroke-width:0.88556474"
         inkscape:connector-curvature="0"
         id="path94"
         d="m 116.42174,135.40742 c -0.24907,0.0218 -0.53186,0.19896 -0.53186,0.52744 -1.4e-4,0.32863 0.28279,0.4489 0.53186,0.42711 0.93475,-0.0817 1.52994,-0.32356 1.52994,-0.6075 0,-0.28378 -0.59533,-0.42882 -1.52994,-0.34705 z" /><path
         style="stroke-width:0.88556474"
         inkscape:connector-curvature="0"
         id="path96"
         d="m 143.63069,116.49492 -1.61748,1.32193 0.18232,0.37002 c 0,0 -0.29603,0.12753 -0.4301,0.40184 -0.13377,0.27457 0.0875,0.62638 0.0875,0.62638 0,0 -1.53764,2.8e-4 -1.77772,0.17745 -0.21748,0.15992 0.0921,1.19797 -0.0511,2.11011 -0.19953,1.2713 -0.69381,1.20923 -0.71402,1.45394 -0.0197,0.23783 0.18943,0.58815 0.18943,0.58815 0,0 -0.28834,0.11603 -0.34983,0.24196 -0.0989,0.20249 0.0689,0.54546 -0.051,0.7912 -0.66891,1.37115 -1.65662,3.39499 -2.30959,4.734 -0.0912,0.18688 -0.3363,0.27664 -0.45912,0.52832 -0.11329,0.23223 -0.0218,0.54828 -0.0218,0.54828 0,0 -0.43279,0.0638 -0.58295,0.37166 -0.15953,0.32706 -0.0656,0.74153 -0.0656,0.74153 0,0 -0.27369,0.059 -0.40817,0.33445 -0.14362,0.2945 0.0996,0.42109 0.0368,0.55054 -0.87798,1.79919 -1.91194,3.92 -2.54285,5.21339 -0.23213,0.4756 -1.04436,0.63788 -1.51572,1.60435 -0.45742,0.9375 0.19669,1.54192 0.19669,1.54192 0,0 -0.67916,0.12091 -0.85963,0.49065 -0.18387,0.37687 -0.0384,0.91194 0.45173,1.11882 0.49016,0.20676 1.02571,-0.0422 1.20973,-0.41908 0.18033,-0.36972 -0.18232,-0.92394 -0.18232,-0.92394 0,0 0.91983,0.0521 1.37697,-0.88558 0.47151,-0.96649 0.074,-1.63477 0.30599,-2.1105 0.63105,-1.29341 1.66515,-3.41409 2.54284,-5.21339 0.0633,-0.1295 0.32265,-0.0449 0.46625,-0.33938 0.13436,-0.27547 0,-0.50267 0,-0.50267 0,0 0.40163,-0.2102 0.56118,-0.53741 0.15029,-0.30789 -0.0802,-0.65592 -0.0802,-0.65592 0,0 0.31638,-0.1404 0.42981,-0.37263 0.12268,-0.25168 0.0325,-0.47961 0.12368,-0.66677 0.65325,-1.3389 1.6411,-3.36288 2.30973,-4.73373 0.11998,-0.24603 0.50595,-0.36035 0.60473,-0.56312 0.0615,-0.12578 -0.0363,-0.40472 -0.0363,-0.40472 0,0 0.42525,-0.0794 0.60457,-0.24973 0.18474,-0.17528 -0.19028,-0.48375 0.70691,-1.46072 0.64358,-0.70074 1.68181,-1.17071 1.66829,-1.42827 -0.015,-0.28476 -1.02727,-1.35995 -1.02727,-1.35995 0,0 0.42711,-0.0734 0.56102,-0.34767 0.13394,-0.27445 0.0438,-0.57226 0.0438,-0.57226 l 0.4224,-0.10983 v -2.00374 1.4e-4 l 1.5e-4,-2e-5 z m -15.20559,30.19021 c -0.20722,0.0391 -0.33673,0.1732 -0.37872,0.25914 -0.0638,0.13039 -0.0755,0.30206 0,0.44418 0,0 -0.50993,-0.11479 -0.68485,-0.0129 -0.1648,0.096 0,2.48464 0,2.48464 0,0 2.03448,-1.46145 2.00346,-1.63977 -0.0327,-0.18955 -0.45898,-0.47717 -0.45898,-0.47717 0.1648,-0.0409 0.29332,-0.15546 0.35708,-0.28614 0.0669,-0.1375 0.0759,-0.51444 -0.38626,-0.70956 -0.17306,-0.0731 -0.3272,-0.0858 -0.45187,-0.0623 z" /><path
         style="stroke-width:0.88556474"
         inkscape:connector-curvature="0"
         id="path98"
         d="m 112.6915,92.119452 c -0.50894,0.04453 -1.25827,0.124033 -1.69761,0.454655 -0.40206,0.302027 -0.36932,0.646285 -0.51008,0.780427 -0.3316,0.315928 -0.89961,0.355519 -1.17315,0.379451 -1.77047,0.154896 -1.83609,2.055072 -1.83609,2.055072 0,0 0.45273,-0.724598 1.25314,-0.794625 1.33085,-0.116436 2.33877,0.520369 2.33877,0.793484 0,0.110584 -0.1372,0.143079 -0.1456,0.143814 -0.86929,0.07605 -2.18121,-0.309571 -2.87816,-0.272789 v 0.276957 c 0.009,0.0053 0.0157,0.01286 0.0293,0.01935 -0.01,-0.0012 -0.0195,-0.0037 -0.0293,-0.0049 v 0.05096 c 1.55571,0.405141 3.13291,1.033412 3.13291,4.410702 0,2.1267 -0.25461,4.31894 -1.31859,6.11889 -0.37687,0.63741 -0.91343,1.20155 -1.55914,1.7176 -0.28735,-0.0616 -1.63855,-0.36332 -2.58655,-0.80825 -1.66886,-0.78363 -2.53417,-1.63287 -4.51728,-1.55017 v -1.50833 c 0,-0.80582 0.29163,-1.55731 0.29163,-2.32784 -0.836,-0.15101 -3.156401,-2.785182 -5.296914,-3.85717 -3.149567,2.31559 -5.588238,5.8779 -5.588238,7.41796 0,0 0.09464,33.08282 0,44.61911 0,0.66435 -0.400637,1.63801 -0.400637,1.63801 1.149815,-0.58705 3.257446,-3.65516 3.701206,-4.79013 v 0.52474 c 1.736462,-0.9438 3.007959,-3.13578 3.577384,-4.26197 0.01008,0.15468 0.03657,0.54303 0.03657,0.54303 1.551295,-1.4956 3.526139,-9.70711 3.526139,-9.70711 l -0.1019,-1.68143 c 0,0 -1.365852,6.68278 -2.921559,8.1681 v -28.26212 l 1.23136,1.03597 1.865119,-1.90448 v -1.32601 l -1.653912,1.68917 v -3.99993 c 0.249198,-0.39881 0.414436,-0.69464 0.539105,-0.9287 0.267697,0.44324 1.132867,1.79788 2.149187,2.58794 0.16723,-0.69464 1.2678,-1.43707 1.2678,-1.43707 0,0 0.39437,1.03405 0.99796,1.24596 0.21234,-0.3926 1.47928,-1.33147 1.47928,-1.33147 0,0 -1.08391,0.25949 -1.52284,0.70892 -0.37701,-0.0515 -0.47364,-1.53235 -0.47364,-1.53235 0,0 -1.59499,0.91648 -1.87238,1.49708 -0.30413,-0.0556 -0.77764,-1.21115 -0.96194,-1.68632 0.27823,-0.0547 0.67119,-0.12419 1.18767,-0.16937 0.45486,-0.0398 1.03681,0.12476 1.64651,0.35863 0.6699,0.25677 1.37069,0.59481 1.99648,0.82357 0.80156,0.29279 2.01427,0.26042 2.36779,0.24457 -0.4049,0.32007 -0.85008,0.6189 -1.33312,0.90353 0,0 1.90867,-0.18463 3.24948,-0.96929 0.47834,-0.34954 0.97475,-0.69953 1.39888,-1.0987 -0.18402,0.52745 -0.47052,1.15682 -0.91826,1.71233 1.96915,-0.33894 2.94974,-1.54921 3.22769,-1.95082 0.13066,0.32658 0.36335,0.84875 0.72855,1.28405 0.36548,-0.49922 0.60515,-1.06272 0.73594,-1.41217 0.27839,0.35294 1.25855,1.39166 3.22756,1.38605 -0.4476,-0.47718 -0.73409,-1.05641 -0.91797,-1.55168 0.42397,0.32483 0.92068,0.58808 1.39887,0.85394 1.34067,0.55005 3.24963,0.40069 3.24963,0.40069 -0.48347,-0.20008 -0.9359,-0.42109 -1.34053,-0.66962 0.34029,-0.0429 1.56711,-0.22292 2.3752,-0.65953 0.62564,-0.33824 1.32644,-0.7989 1.9962,-1.17288 0.60984,-0.34056 1.19193,-0.60696 1.64679,-0.64676 0.51649,-0.0452 0.90915,-0.0444 1.18753,-0.0384 -0.18431,0.50756 -0.65753,1.74573 -0.96181,1.85462 -0.27738,-0.53207 -1.87251,-1.16944 -1.87251,-1.16944 0,0 -0.0966,1.49784 -0.47351,1.61521 -0.43892,-0.37262 -1.52284,-0.44246 -1.52284,-0.44246 0,0 1.26667,0.71721 1.47901,1.07265 0.60372,-0.31739 0.99098,-1.41996 0.99098,-1.41996 0,0 1.10783,0.54936 1.27506,1.21459 1.01646,-0.96804 1.88134,-2.47347 2.14918,-2.964 0.12938,0.21896 0.30216,0.49645 0.53912,0.83437 v 3.99993 l -1.65377,-1.39978 v 1.32601 l 1.86511,1.57812 1.23137,-1.25142 v 28.26214 c -1.556,-1.21308 -2.92157,-7.65689 -2.92157,-7.65689 l -0.10219,1.69929 c 0,0 1.97528,7.86591 3.52644,9.09008 0,0 0.0263,-0.39282 0.0365,-0.54941 0.56929,1.02657 1.84107,2.99604 3.57739,3.63601 v -0.52474 c 0.44362,1.05734 2.55139,3.75665 3.70107,4.14252 0,0 -0.40064,-0.90356 -0.40064,-1.56791 -0.0947,-11.51959 0,-44.61911 0,-44.61911 0,-1.540205 -2.43853,-4.675538 -5.58824,-6.440148 -2.14008,1.44649 -4.46078,4.486836 -5.29677,4.78399 0,0.770528 0.29134,1.471018 0.29134,2.276848 v 1.50092 c -1.97884,0.26592 -2.84985,1.27318 -4.51714,2.34784 -0.95412,0.61504 -2.31983,1.1558 -2.59352,1.26144 -0.64542,-0.40195 -1.17529,-0.87379 -1.55187,-1.44542 -0.90687,-1.37561 -1.28957,-3.12826 -1.28957,-4.94342 0,-0.767262 0.85962,-1.706215 0.85962,-2.326735 0,-0.937899 -0.0874,-1.492992 -0.0874,-1.492992 0.30499,0.01487 0.83784,0.509505 0.83784,0.509505 0,0 -0.0183,-1.555103 -0.51022,-1.784044 0,0 0.19897,-0.222067 0.91811,-0.30619 -0.2021,-0.494106 -1.20204,-1.03141 -1.20204,-1.03141 0.0499,-0.09389 0.14232,-0.179395 0.26215,-0.25606 0.2512,-0.160883 0.60416,-0.283417 0.87414,-0.36069 -0.28777,-0.03446 -0.61938,-0.09681 -0.98343,-0.18366 -0.83145,-0.198096 -1.81019,-0.510113 -2.72489,-0.868866 -1.66971,-0.654901 -2.94164,-0.595143 -3.643,-0.533782 v 1.41e-4 l 1.5e-4,-1.2e-5 z m 0.0365,0.455799 c 0.1547,-0.01211 0.29831,-0.01869 0.42241,-0.02956 1.63071,-0.14267 2.77768,0.500469 4.32072,1.049894 0.40434,0.14395 0.77566,0.256776 1.10713,0.340208 -0.20766,0.202187 -0.36919,0.401196 -0.4153,0.561072 0,0 0.69154,0.06759 1.00536,0.618951 0,0 -0.65753,0.132103 -0.76498,0.525772 0.36832,-0.0045 0.73423,0.427767 0.73594,0.875643 l -0.93263,-0.21002 c 0,0 0.22586,1.027437 0.22586,2.166007 0,0.581525 -0.8377,1.339093 -0.8377,2.324672 0,3.0932 0.77921,4.21398 1.33341,5.12175 0.21675,0.3552 0.39295,0.77031 0.75772,1.06303 -1.59656,-0.7104 -2.78323,-1.66915 -2.78323,-2.65615 v -3.73764 l -0.4153,0.0363 v 3.73764 c 0,0.71574 0.17477,1.0339 0.17477,1.0339 0.25063,0.76995 0.75729,1.94788 1.07112,2.41257 -1.46891,-0.66536 -2.21509,-1.59419 -2.21509,-1.9628 v -5.13665 l -0.4153,0.0363 v 5.20938 l 0.0801,0.34993 c -0.17804,0.28314 -0.40945,0.62019 -0.56828,0.74183 -0.1584,-0.0937 -0.38285,-0.39148 -0.56117,-0.64301 l 0.0802,-0.36397 v -5.20938 l -0.4153,0.0363 v 5.13665 c 0,0.36847 -0.74618,1.42801 -2.21493,2.35037 0.31381,-0.51974 0.82033,-1.78617 1.07082,-2.59996 0,0 0.17492,-0.34861 0.17492,-1.06449 v -3.73764 l -0.4153,0.0363 v 3.73763 c 0,0.98586 -1.18226,2.15357 -2.77598,3.14252 0.36107,-0.35651 0.53471,-0.80407 0.75032,-1.19496 0.606,-1.0988 1.35518,-2.49291 1.35518,-6.27509 0,-1.419516 -0.20992,-2.366231 -0.57554,-3.009699 -0.11116,-0.213149 -0.26087,-0.793245 0.59006,-0.867694 0.44077,-0.03857 1.44996,0.652781 1.44996,0.652781 0,0 -0.0415,-0.61845 -0.55377,-0.927875 -0.0849,-0.05134 -0.22571,-0.223904 -0.22571,-0.395687 0,-0.128658 0.22073,-0.465489 0.39323,-0.558998 0.11855,-0.06417 -1.7339,-0.224888 -1.7339,-1.065009 0,-0.174914 0.11002,-0.301098 0.49514,-0.334793 0.50452,-0.04414 1.32529,0.488776 2.05483,0.424951 0.53925,-0.04718 0.75188,-0.197002 1.30409,-0.245313 0.67488,-0.05904 2.08286,1.095675 2.56448,1.006859 -0.53841,-0.29091 -1.40813,-1.494287 -2.72474,-1.379098 -0.45699,0.03998 -0.87058,0.178208 -1.29711,0.215527 -0.54666,0.04782 -1.08491,-0.407905 -1.67569,-0.356219 -0.39594,0.03464 -0.83813,0.09539 -0.90359,-0.0013 -0.11458,-0.168589 -0.0114,-0.281227 0.0948,-0.438105 0.20053,-0.296065 0.76369,-0.426175 1.31889,-0.494103 0.16652,-0.0204 0.33274,-0.0378 0.48802,-0.0501 v 1.45e-4 l 4.1e-4,-3.9e-5 z m -16.539148,7.056997 v 0.0071 c 0,0 2.926831,2.425692 3.912548,2.681312 l 0.0363,0.90028 v 2.65956 c -0.714311,-0.1833 -1.611928,-1.27835 -2.047148,-1.86093 v -0.36435 c 0,-0.34271 0.20167,-0.61069 0.349683,-0.75913 l -0.4298,-0.11525 c -0.163953,0.20121 -0.34243,0.49435 -0.34243,0.85314 v 0.21135 l -0.138335,0.15798 -0.07286,0.0866 -1.070965,1.24465 -1.260396,-1.79869 v -0.46622 c 0,-0.31425 0.241657,-0.68578 0.444465,-0.94234 l -0.42269,-0.11602 c -0.21334,0.29506 -0.437211,0.6871 -0.437211,1.03635 v 0.37872 c -0.296456,0.33278 -1.449826,1.62065 -1.449826,1.62065 0,0 -0.578677,-1.19284 -0.735802,-1.51668 0.883105,-1.30051 2.314997,-2.79548 3.664768,-3.898152 l -1.42e-4,1.41e-4 z m 36.858338,-3.224674 c 1.34707,0.864307 2.77968,2.113365 3.66506,3.256736 -0.15713,0.35119 -0.73595,1.64543 -0.73595,1.64543 0,0 -1.15323,-1.08606 -1.44968,-1.366829 v -0.37886 c 0,-0.349254 -0.22387,-0.702122 -0.43721,-0.959846 l -0.42256,0.189964 c 0.20282,0.220931 0.44448,0.550182 0.44448,0.864568 v 0.466243 l -1.26068,2.01925 -1.07083,-1.05727 -0.0729,-0.0739 -0.13848,-0.13362 v -0.21149 c 0,-0.35879 -0.17846,-0.62085 -0.34228,-0.793238 l -0.43009,0.190478 c 0.14829,0.12266 0.34982,0.35509 0.34982,0.69808 v 0.36434 c -0.4355,0.65876 -1.33284,1.91071 -2.04729,2.21915 v -2.65956 l 0.0365,-0.906641 c 0.98557,-0.428081 3.91241,-3.365901 3.91241,-3.365901 v -0.0073 l -1.5e-4,1.5e-5 z m -41.034039,7.983316 0.670476,1.15804 v 2.19331 l -1.020018,1.03624 v -3.25673 c 0,-0.31182 0.130655,-0.69898 0.349685,-1.13088 z m 45.208319,-3.95521 c 0.21946,0.39354 0.34968,0.75787 0.34968,1.0697 v 3.25673 l -1.02001,-0.85776 v -2.19331 z m -42.534137,3.9982 1.172863,1.68224 v 1.35518 l -1.172863,1.2029 v -4.24046 z m 39.861317,-3.4874 v 4.24032 l -1.17316,-0.99751 v -1.35518 l 1.17316,-1.88749 v 1.5e-4 -1.5e-4 z m -40.276895,3.84427 v 3.91255 l -1.173154,-0.99025 v -1.58816 l 1.173154,-1.33386 v -1.4e-4 z m 40.691045,-3.56 1.17315,1.12859 v 1.58816 l -1.17315,1.19552 v -3.91255 1.4e-4 z m -37.091743,3.52917 c 0.176617,0.27844 0.986847,1.51833 1.755809,1.82821 -0.272399,0.40881 -0.985855,1.41283 -1.755809,1.89505 v -3.72311 z m 33.492443,-2.93019 v 3.72312 c -0.76981,-0.34738 -1.48313,-1.22671 -1.75582,-1.58783 0.76925,-0.44431 1.57934,-1.82611 1.75582,-2.13544 z m -33.908023,3.15598 v 3.4389 l -1.173153,-0.99024 v -1.21671 z m 34.323603,-3.00292 1.17314,1.02669 v 1.2167 l -1.17314,1.19552 z m -39.095631,7.08519 v 3.43179 l -1.020018,-0.86531 v -1.52284 z m 43.867651,-3.83791 1.02001,0.86517 v 1.52283 l -1.02001,1.04379 z m -43.453494,3.80921 0.670469,0.56784 0.502827,0.42226 v 1.23122 l -0.502827,0.51023 -0.670469,0.68516 v -3.41713 2.7e-4 z m 2.76131,-0.24158 v 3.41713 l -0.67034,-0.56799 -0.502541,-0.42968 v -1.2167 l 0.502541,-0.51762 0.670328,-0.68514 z m 0.422697,-0.037 1.173153,0.99751 v 1.21671 l -0.510222,0.52539 -0.662931,0.67739 v -3.41714 z m 2.761321,-0.24158 v 3.42425 l -0.670337,-0.56785 -0.502966,-0.42978 v -1.14369 c 0.404624,-0.28233 0.811514,-0.7718 1.173152,-1.28305 v 1.4e-4 z m 31.146976,-2.72499 c 0.36178,0.44754 0.7684,0.86626 1.17287,1.07751 v 1.14384 l -0.50253,0.51761 -0.67034,0.68514 v -3.42425 z m 2.76132,-0.24159 v 3.41713 l -0.66308,-0.56137 -0.50993,-0.43614 v -1.21671 l 1.17316,-1.20278 z m 0.42256,-0.037 0.67032,0.56785 0.50283,0.42966 v 1.2167 l -0.50283,0.51763 -0.67032,0.68515 v -3.41713 z m 2.76131,-0.24158 v 3.41713 l -0.67048,-0.56798 -0.50267,-0.42227 v -1.23122 l 0.50267,-0.51022 0.67048,-0.6853 z m -41.30303,7.39486 1.238479,1.05 1.238621,-1.2596 v 28.26925 c 0,0 0.08639,1.39515 0.145739,2.3041 -0.550786,0.60494 -2.622839,2.88148 -2.622839,2.88148 v -33.24623 z m 39.56955,-3.46188 v 33.2448 c 0,0 -2.07191,-1.91413 -2.62298,-2.42239 0.0593,-0.91946 0.1456,-2.32972 0.1456,-2.32972 v -28.26926 l 1.23862,1.04287 1.23862,-1.26685 v 1.4e-4 l 1.4e-4,-1e-5 z m -40.276884,3.53103 v 32.18165 c 0,0.90872 -1.659326,3.17277 -2.462585,3.72722 v -35.68561 l 1.223964,1.03661 1.238621,-1.25946 z m 40.982804,-3.58552 1.23862,1.04272 1.2241,-1.25079 v 35.68561 c -0.80297,-0.41392 -2.46272,-2.38774 -2.46272,-3.29631 V 109.15201 Z M 104.332,137.12687 c 0,0 -1.18994,2.52002 -1.65362,2.99324 0,0 0.31082,0.0122 0.66293,-0.0216 -0.21661,0.33035 -1.8711,2.85712 -2.38972,3.80097 -0.48531,0.88301 -0.82774,0.53881 -1.57378,0.60407 -0.618673,0.0541 -2.02096,1.16239 -2.251237,1.58132 -0.242091,0.44031 -0.422407,0.96532 -0.422407,1.38487 0,0.46113 0.488158,1.05018 0.488158,1.05018 0.05251,-0.22533 0.145597,-0.31146 0.145597,-0.31146 0,0 1.28274,1.48575 1.471746,1.678 0.147154,0.1498 0.803402,0.19814 1.034676,-0.032 0.578677,-0.57679 1.138847,-0.9937 1.653907,-1.79861 0.26515,-0.41473 0.28536,-0.86523 0.59007,-1.3123 1.01929,-1.49532 3.0478,-4.36536 3.51177,-5.02106 0.0311,0.16849 0.0576,0.30877 0.0871,0.48054 0.52573,-1.10729 3.05293,-3.35632 3.05293,-3.35632 l -0.6995,-0.39792 c 0,0 -1.52342,1.9093 -2.01812,2.28233 0,0 -0.21135,-0.86475 -0.33517,-1.1656 0,0 -0.58367,0.49254 -0.90317,0.53103 0,0 -0.0955,-0.59111 -0.16765,-0.97645 -0.40206,0.30316 -1.07097,0.30504 -1.07097,0.30504 0.58736,-0.32948 1.28231,-2.09402 1.28231,-2.09402 l -0.49527,-0.20445 -2.8e-4,2.9e-4 z m 20.56827,-1.79948 -0.49542,0.29098 c 0,0 0.6951,1.64292 1.28231,1.86964 0,0 -0.66905,0.11532 -1.07096,-0.11751 -0.072,0.39783 -0.16766,1.00565 -0.16766,1.00565 -0.31937,0.0175 -0.90346,-0.37283 -0.90346,-0.37283 -0.12367,0.32237 -0.33516,1.22426 -0.33516,1.22426 -0.49443,-0.28651 -2.01811,-1.92937 -2.01811,-1.92937 l -0.69938,0.52017 c 0,0 2.52706,1.80685 3.05265,2.82244 0.0297,-0.17695 0.0563,-0.32188 0.0874,-0.4958 0.46383,0.57453 2.49234,3.08978 3.51178,4.40657 0.30471,0.39376 0.32477,0.84074 0.5902,1.20891 0.51478,0.71482 1.0751,1.03369 1.65392,1.50921 0.23098,0.18986 0.88737,0.0267 1.03454,-0.14886 0.18899,-0.22546 1.47174,-1.93553 1.47174,-1.93553 0,0 0.0931,0.0699 0.14573,0.28584 0,0 0.48817,-0.67447 0.48817,-1.13559 0,-0.41957 -0.18075,-0.91283 -0.42256,-1.31081 -0.23027,-0.37879 -1.63256,-1.24167 -2.25123,-1.18755 -0.74605,0.0653 -1.08847,0.46953 -1.57365,-0.32857 -0.51876,-0.85308 -2.17338,-3.09035 -2.38985,-3.38281 0.35224,-0.0277 0.66292,-0.0944 0.66292,-0.0944 -0.46367,-0.39223 -1.6539,-2.70414 -1.6539,-2.70414 l 1.4e-4,-1e-5 z m -20.7362,4.53905 c 0,0 -0.01,0.81963 0.24793,1.08586 l 0.90343,-0.69842 c 0,0 0.0602,0.29361 0.13834,0.6948 -0.38683,0.56271 -2.60889,3.7897 -3.70846,5.36618 -0.2734,0.39167 -0.50296,1.34809 -0.50296,1.34809 0,0 -0.4005,-0.15439 -0.4005,-0.49667 0,-0.33617 0.0438,-0.73979 0.0438,-0.73979 0,0 -0.29902,0.36859 -0.81621,0.41385 0,-0.41316 0.79899,-0.93124 0.83058,-1.52236 -0.60928,0.50503 -1.138429,0.31949 -1.843196,0.59847 -0.767546,0.30355 -0.981312,0.64475 -1.216704,0.65296 -0.138627,0.004 -0.264155,-0.22354 -0.211207,-0.37504 0.09166,-0.26235 1.040937,-1.04931 1.704579,-1.23461 0.158976,-0.0444 1.409408,0.1488 1.661318,-0.26191 1.0378,-1.69219 2.72261,-4.43923 2.88514,-4.70394 0.10702,-0.035 0.2055,-0.0708 0.28392,-0.12688 v -1.4e-4 l 1.4e-4,-2e-5 z m 20.90271,-1.82874 c 0.0788,0.0425 0.17718,0.0611 0.28421,0.0772 0.16268,0.23625 1.84734,2.6885 2.88514,4.1991 0.25191,0.36678 1.50221,-0.0453 1.66103,-0.0288 0.66407,0.0694 1.61321,0.69031 1.70501,0.93632 0.053,0.14224 -0.0726,0.39233 -0.21135,0.41201 -0.23526,0.0329 -0.44903,-0.2707 -1.2167,-0.44006 -0.70492,-0.15566 -1.23379,0.12246 -1.8432,-0.27596 0.0314,0.58547 0.83058,0.964 0.83058,1.37716 -0.51691,0.0453 -0.81607,-0.27103 -0.81607,-0.27103 0,0 0.0437,0.39582 0.0437,0.73198 0,0.34228 -0.40063,0.56691 -0.40063,0.56691 0,0 -0.22956,-0.91639 -0.50282,-1.26039 -1.09957,-1.38379 -3.32163,-4.22212 -3.70832,-4.71729 0.0783,-0.4146 0.13834,-0.71901 0.13834,-0.71901 l 0.90331,0.54035 c 0.25775,-0.31117 0.24778,-1.12922 0.24778,-1.12922 v 2.8e-4 z m -13.68261,1.79453 c 0,0 -4.9367,11.77989 -9.31863,13.90812 0,0 1.90639,0.64316 4.24758,1.6539 0.34157,0.14744 0.69325,0.30711 1.04919,0.46937 0.29476,-0.38073 0.60501,-0.80225 0.91072,-1.23831 1.39987,-1.99542 2.76886,-4.28587 2.76886,-4.28587 0.0954,0.55539 -0.64386,2.36108 -1.8943,4.61767 -0.24593,0.44336 -0.50239,0.907 -0.78689,1.38006 0.31723,0.15341 0.63204,0.3089 0.94715,0.47105 2.31912,1.19256 4.49706,2.60626 5.30387,4.00941 0.80711,-1.54435 2.98505,-3.339 5.30432,-4.9375 0.31496,-0.21728 0.62976,-0.42784 0.947,-0.63677 -0.28451,-0.42328 -0.54096,-0.84175 -0.78675,-1.24237 -1.25058,-2.0378 -1.98965,-3.71415 -1.8943,-4.28623 0,0 1.36899,2.05092 2.76886,3.8014 0.30557,0.38243 0.61597,0.74979 0.91057,1.07897 0.35567,-0.22439 0.70777,-0.44563 1.0492,-0.65297 2.34132,-1.42054 4.24728,-2.3971 4.24728,-2.3971 -4.38164,-1.36124 -9.31861,-12.27757 -9.31861,-12.27757 l -0.72841,0.27493 c 0,0 3.93761,9.46129 7.78853,12.09078 -0.8757,0.3402 -1.9007,0.80831 -2.95814,1.35183 -1.28488,-1.39278 -2.61402,-3.30685 -3.69381,-5.01757 -1.16575,-1.8471 -2.12015,-5.18415 -2.12015,-5.18415 -0.54054,1.3602 0.6114,7.85415 2.93622,11.82333 -1.92262,1.16887 -3.63331,2.40303 -4.45181,3.362 -0.8182,-0.81593 -2.52889,-1.75061 -4.45152,-2.58306 2.32468,-4.37567 3.47662,-11.07148 2.93609,-12.3371 0,0 -0.95426,3.5039 -2.1203,5.55514 -1.07964,1.89966 -2.40879,4.0463 -3.69381,5.66391 -1.05716,-0.35853 -2.0823,-0.64727 -2.95815,-0.83423 3.85094,-3.30331 7.78868,-13.45359 7.78868,-13.45359 l -0.72854,-0.14748 -1.4e-4,2e-5 z m -12.875799,6.57597 c 0.03392,5.9e-4 0.06943,0.0157 0.09478,0.0427 0.0503,0.0537 0.04578,0.13917 -0.0071,0.18996 l -0.407891,0.39262 c -0.0534,0.0507 -0.139052,0.0484 -0.18929,-0.005 -0.05039,-0.0537 -0.04614,-0.13913 0.0071,-0.19008 l 0.407891,-0.39262 c 0.02666,-0.0255 0.06093,-0.0384 0.09478,-0.0375 v 2.6e-4 z m 32.254249,-2.82187 c 0.0339,-0.007 0.0682,-1.3e-4 0.0949,0.0207 l 0.4079,0.32126 c 0.0532,0.0416 0.0577,0.12645 0.007,0.18879 -0.0506,0.0626 -0.1362,0.08 -0.18929,0.0384 l -0.40818,-0.32138 c -0.0533,-0.0414 -0.0577,-0.12616 -0.007,-0.18866 0.0253,-0.0313 0.0609,-0.0524 0.0948,-0.0592 l -1.5e-4,1e-5 1.5e-4,-1e-5 z m -31.82444,3.1412 c 0.101327,-0.0171 0.207789,0.018 0.284213,0.099 0.121969,0.12994 0.114141,0.32988 -0.01461,0.45316 l -0.990841,0.95356 c -0.128947,0.12343 -0.336878,0.11913 -0.45913,-0.0107 -0.121969,-0.12994 -0.114282,-0.33712 0.01461,-0.46026 l 0.990832,-0.94645 c 0.04826,-0.0463 0.114149,-0.0778 0.174916,-0.0882 z m 31.31493,-2.73969 c 0.0256,-0.006 0.0546,-0.007 0.0801,-0.007 0.0611,-2.7e-4 0.12638,0.0197 0.17491,0.0575 l 0.99098,0.77307 c 0.12881,0.1006 0.13664,0.30655 0.0145,0.45785 -0.12212,0.15101 -0.33019,0.19185 -0.45899,0.0908 l -0.99099,-0.78018 c -0.12879,-0.10059 -0.13662,-0.29901 -0.0143,-0.45061 0.0572,-0.0708 0.12752,-0.12188 0.20394,-0.14166 v 1.5e-4 z m -30.75419,3.36097 c 0.101193,-0.0171 0.214909,0.0171 0.291342,0.0983 0.12196,0.12994 0.114273,0.32973 -0.01461,0.45301 l -0.997952,0.95432 c -0.128938,0.12329 -0.329616,0.11851 -0.451868,-0.0114 -0.122111,-0.12979 -0.114282,-0.33698 0.01479,-0.46014 l 0.990699,-0.94644 c 0.04826,-0.0462 0.106737,-0.077 0.167655,-0.0875 l 1.42e-4,-1e-5 z m 30.19201,-2.64145 c 0.0262,-0.007 0.0546,-0.007 0.0802,-0.007 0.0609,-2.8e-4 0.11912,0.0205 0.16751,0.0582 l 0.99098,0.77307 c 0.12895,0.10058 0.13692,0.30639 0.0144,0.45759 -0.12183,0.15127 -0.32278,0.19119 -0.45173,0.0905 l -0.99796,-0.77985 c -0.12894,-0.10058 -0.13676,-0.299 -0.0146,-0.4503 0.0574,-0.0708 0.13322,-0.12239 0.2115,-0.14246 v 1.3e-4 z m -29.55867,3.24171 c 0.10147,-0.0171 0.20792,0.0104 0.28421,0.0917 0.12211,0.12993 0.11428,0.33713 -0.0145,0.46026 l -0.990984,0.9466 c -0.128948,0.12328 -0.329616,0.11835 -0.451727,-0.0115 -0.122119,-0.12992 -0.121544,-0.32922 0.0071,-0.45249 l 0.998243,-0.95422 c 0.04817,-0.0463 0.106608,-0.0701 0.167518,-0.0802 z m 28.92535,-2.53062 c 0.0255,-0.006 0.0547,-0.007 0.0802,-0.007 0.0611,-2.7e-4 0.11926,0.0132 0.16751,0.051 l 0.99839,0.77953 c 0.12894,0.10058 0.12923,0.29995 0.007,0.45125 -0.12211,0.1513 -0.32293,0.19135 -0.45173,0.0906 l -0.99098,-0.77321 c -0.12909,-0.10056 -0.13663,-0.30641 -0.0145,-0.45771 0.0574,-0.0708 0.12781,-0.11665 0.20409,-0.13441 z" /><path
         style="fill:#f5d402;stroke-width:0.88556474"
         inkscape:connector-curvature="0"
         id="path100-4"
         d="m 143.33182,117.11171 -0.94729,0.75321 0.48076,0.20587 0.4809,0.1983 -0.0144,-1.15724 z m -0.91825,1.19514 c -0.17179,0.0268 -0.32336,0.13176 -0.40063,0.29009 -0.12354,0.25332 -0.004,0.55337 0.26954,0.66853 0.27326,0.11514 0.59036,8.8e-4 0.71418,-0.25177 0.12352,-0.25333 0.003,-0.5532 -0.2697,-0.66852 -0.10247,-0.0433 -0.21007,-0.0544 -0.31325,-0.0383 l -1.4e-4,2e-5 z m -1.78499,1.27096 c -0.14261,0.0142 -0.24608,0.0282 -0.26956,0.0455 -0.10119,0.0743 0.0365,0.9283 0.007,1.66765 -0.0276,0.69723 -0.24991,0.91237 -0.3716,1.16184 -0.11229,0.23028 -0.51719,0.52615 -0.51719,0.52615 0,0 0.33502,0.30585 0.33502,0.30585 0,0 0.21804,-0.35865 0.56104,-1.06213 0.40461,-0.8294 0.39151,-2.26698 0.51021,-2.35408 0.10319,-0.0758 0.94715,-0.35982 0.94715,-0.35982 -1.4e-4,1e-5 -0.77451,0.0259 -1.20204,0.0689 l -2.8e-4,3e-5 z m 1.47159,0.0679 c 0,0 -0.88737,0.24785 -1.0129,0.38023 -0.12126,0.12773 -0.0677,1.32481 -0.53911,2.29114 -0.39054,0.801 -0.58266,1.10018 -0.58266,1.10018 l 0.24038,0.10278 0.24052,0.0955 c 0,0 0.112,-0.32119 0.50282,-1.12236 0.47123,-0.96616 1.47715,-1.72508 1.50064,-1.8945 0.0244,-0.17464 -0.34955,-0.95286 -0.34955,-0.95286 v -1.4e-4 z m 0.28422,0.0917 c 0,0 0.32122,0.78199 0.3279,0.90394 0.007,0.1401 -1.16176,1.07811 -1.56653,1.90739 -0.34298,0.70332 -0.48815,1.09203 -0.48815,1.09203 l 0.46638,0.0321 c 0,0 -0.0322,-0.47638 0.0801,-0.70651 0.12154,-0.24932 0.15356,-0.54444 0.6995,-1.02287 0.57897,-0.50736 1.36159,-0.97504 1.35519,-1.09502 -0.006,-0.11079 -0.87428,-1.11104 -0.87428,-1.11104 l -1.5e-4,1e-5 z m -2.63736,4.04864 c -0.14702,0.0287 -0.2539,0.13137 -0.31324,0.25313 -0.0886,0.18165 -0.0406,0.40987 -0.74335,1.85031 -0.30798,0.63138 -0.43209,0.88546 -0.76512,1.56771 -0.33844,0.69425 -0.83058,1.69741 -0.83058,1.69741 0,0 -0.16723,0.32147 0.14573,0.4535 0.31297,0.13187 0.45173,-0.19993 0.45173,-0.19993 0,0 0.49215,-1.00329 0.83058,-1.69741 0.33304,-0.68223 0.45714,-0.94358 0.76512,-1.57511 0.7025,-1.44026 0.91712,-1.55297 1.00551,-1.73448 0.0952,-0.19505 0.0724,-0.4444 -0.24039,-0.57657 -0.11726,-0.0494 -0.21789,-0.0558 -0.30585,-0.0386 v -1.5e-4 1.5e-4 z m -3.02375,6.01318 c -0.11798,0.0205 -0.21135,0.0788 -0.2549,0.16789 -0.087,0.17854 0.0621,0.41642 0.33517,0.53185 0.27312,0.11502 0.56872,0.0628 0.65567,-0.11571 0.087,-0.1784 -0.0692,-0.41579 -0.34242,-0.53122 -0.13649,-0.0576 -0.27539,-0.0737 -0.39338,-0.0528 l -1.4e-4,1e-5 z m -0.40789,0.87339 c -0.1957,0.008 -0.36677,0.0906 -0.43722,0.23494 -0.11272,0.23088 0.063,0.53289 0.39353,0.67262 0.33047,0.13945 0.68882,0.0658 0.80141,-0.16504 0.11271,-0.23103 -0.0632,-0.53273 -0.39352,-0.67248 -0.12396,-0.0521 -0.24665,-0.0748 -0.36435,-0.0701 z m -0.55377,1.09038 c -0.11784,0.0207 -0.21135,0.0788 -0.25504,0.16819 -0.087,0.17825 0.0622,0.41626 0.33516,0.53157 0.27311,0.1153 0.56857,0.0628 0.65582,-0.11559 0.087,-0.17839 -0.0622,-0.4164 -0.33517,-0.53171 -0.13663,-0.0578 -0.28265,-0.0732 -0.40063,-0.0524 z m -0.24039,0.91737 c -0.17249,0.0373 -0.25518,0.21901 -0.25518,0.21901 0,0 -1.77161,3.64186 -2.39668,4.92351 -0.19982,0.40943 -1.04066,0.72721 -1.36985,1.4023 -0.33161,0.67913 -0.0976,1.26722 0.33503,1.44968 0.43252,0.18262 1.06769,-0.0332 1.39901,-0.71246 0.32919,-0.67493 0.0334,-1.47637 0.23299,-1.88564 0.62521,-1.28208 2.39711,-4.92368 2.39711,-4.92368 0,0 0.17449,-0.32211 -0.13848,-0.45412 -0.0783,-0.033 -0.14631,-0.0311 -0.20395,-0.0184 h -1.4e-4 z m -4.27689,8.40309 c -0.19911,0.023 -0.37616,0.13239 -0.45899,0.3023 -0.13278,0.27207 0.0191,0.60591 0.34229,0.7423 0.32335,0.13651 0.69794,0.0244 0.83073,-0.24746 0.13278,-0.27206 -0.0265,-0.60539 -0.34969,-0.74178 -0.12126,-0.0514 -0.24493,-0.0692 -0.36434,-0.0555 z m -2.81966,5.83492 c -0.10105,0.0123 -0.18474,0.0516 -0.21847,0.12116 -0.0679,0.13901 0.0723,0.33709 0.31325,0.43884 0.24095,0.1016 0.493,0.0682 0.56103,-0.071 0.0679,-0.1393 -0.0726,-0.33721 -0.31326,-0.43884 -0.12054,-0.0509 -0.24122,-0.0626 -0.34255,-0.0503 z m -0.8306,0.7282 v 1.71953 l 1.39903,-1.1279 c 0,0 -0.18972,-0.31842 -0.60487,-0.4936 -0.41515,-0.17502 -0.79416,-0.0982 -0.79416,-0.0982 z" /><path
         style="stroke-width:0.88556474"
         inkscape:connector-curvature="0"
         id="path102"
         d="m 93.290276,140.67466 c 0,0 0.790451,1.56354 1.391187,1.73486 -0.310686,-0.0575 -1.319461,0.40093 -1.319461,0.40093 0,0 1.778874,1.4334 3.287618,1.40571 1.279466,-0.0238 1.900707,-0.71678 1.900707,-0.71678 L 98.294,142.16634 c 0,0 -0.782766,-0.87682 -2.035474,-1.20344 -1.265807,-0.33017 -2.968392,-0.28795 -2.968392,-0.28795 v -1.4e-4 z m 5.958983,-3.44605" /><path
         style="stroke-width:0.88556474"
         inkscape:connector-curvature="0"
         id="path104"
         d="m 99.249259,137.22861 c 0,0 -1.091458,1.02983 -1.390186,2.13817 -0.298878,1.10851 0.194691,2.29526 0.194691,2.29526 l 0.917118,1.63061 c 0,0 1.271068,-0.78765 1.811748,-1.84644 0.54067,-1.05892 0.34242,-2.40643 0.34242,-2.40643 0,0 -1.00692,0.46296 -1.135007,0.64011 0.212487,-1.14065 -0.740926,-2.45127 -0.740926,-2.45127 l -1.41e-4,2e-5 1.41e-4,-2e-5 z" /><path
         style="stroke-width:0.88556474"
         inkscape:connector-curvature="0"
         id="path106"
         d="m 95.741042,137.09861 c 0,0 -1.241322,0.52817 -2.446783,0.56105 -1.14825,0.0311 -2.10308,-0.84954 -2.10308,-0.84954 0,0 0.951843,-0.72742 1.421645,-0.68271 -0.516765,-0.14364 -1.266085,-1.37264 -1.266085,-1.37264 0,0 1.064842,-0.41495 2.009004,-0.14161 0.944156,0.27363 1.767483,1.23585 1.767483,1.23585 l 0.617959,1.24959 z" /><path
         style="stroke-width:0.88556474"
         inkscape:connector-curvature="0"
         id="path108-7"
         d="m 96.168006,130.99838 c 0,0 0.620804,1.23113 0.473649,1.69075 0.19256,-0.3143 0.921385,-0.84131 0.921385,-0.84131 0,0 0.440628,2.04275 0.01921,3.36506 -0.421276,1.32216 -1.704158,1.92384 -1.704158,1.92384 l -1.415097,-2.62826 c 0,0 -0.210636,-1.00116 0.230557,-1.84715 0.441343,-0.846 1.474447,-1.66307 1.474447,-1.66307 l 1.43e-4,-2e-5 z" /><path
         style="stroke-width:0.88556474"
         inkscape:connector-curvature="0"
         id="path110-2"
         d="m 88.091284,128.3021 c 0,0 1.341658,-0.25828 2.569035,0.14286 1.026135,0.33618 1.340668,1.0829 1.340668,1.0829 l 0.50538,1.31068 c 0,0 -1.460358,0.67541 -2.614155,0.35765 -1.153939,-0.31818 -2.001743,-1.6295 -2.001743,-1.6295 0,0 0.806388,-0.3764 1.113376,-0.28855 -0.447174,-0.1587 -0.912276,-0.97607 -0.912276,-0.97607 v 1.5e-4 l -1.43e-4,1e-5 z" /><path
         style="stroke-width:0.88556474"
         inkscape:connector-curvature="0"
         id="path112"
         d="m 92.311105,125.41809 c 0,0 0.588782,0.70465 0.606431,1.57283 0.156976,-0.47613 0.892066,-1.05152 0.892066,-1.05152 0,0 0.756011,1.7634 0.590067,3.07688 -0.165948,1.31363 -1.253709,2.17718 -1.253709,2.17718 l -1.356463,-2.4562 c 0,0 -0.442047,-1.01663 -0.311825,-1.84666 0.130365,-0.82975 0.833433,-1.47279 0.833433,-1.47279 z" /><path
         style="stroke-width:0.88556474"
         inkscape:connector-curvature="0"
         id="path114"
         d="m 87.664321,120.90032 c 0,0 -0.243228,1.42372 0.170643,2.19532 0.369746,0.68852 0.605145,0.82604 0.605145,0.82604 -0.705058,-0.40356 -1.771044,-0.35044 -1.771044,-0.35044 0,0 0.379431,1.49263 1.286159,2.1094 0.906728,0.61676 2.304892,0.33177 2.304892,0.33177 0,0 0.919393,-1.30441 0.855349,-2.61741 -0.0639,-1.31301 -1.111243,-2.63492 -1.111243,-2.63492 0,0 -0.413018,0.89291 -0.44945,1.53569 -0.267279,-0.63599 -1.890735,-1.39528 -1.890735,-1.39528 v -1.4e-4 z" /><path
         style="fill:#097754;stroke-width:0.88556474"
         inkscape:connector-curvature="0"
         id="path116"
         d="m 88.077048,121.71672 c 0,0 -0.03627,1.02803 0.302722,1.57961 0.339146,0.55185 1.096437,0.71744 1.096437,0.71744 0,0 0.03616,-1.02774 -0.302857,-1.57931 -0.339153,-0.55185 -1.096302,-0.71774 -1.096302,-0.71774 z m -0.708756,2.38042" /><path
         style="fill:#097754;stroke-width:0.88556474"
         inkscape:connector-curvature="0"
         id="path118"
         d="m 87.368292,124.09714 c 0,0 0.890215,-0.0255 1.404421,0.32345 0.513785,0.349 0.712888,1.15235 0.712888,1.15235 0,0 -0.590062,0.11153 -1.103841,-0.23746 -0.51392,-0.34913 -1.013468,-1.23834 -1.013468,-1.23834 z" /><path
         style="fill:#097754;stroke-width:0.88556474"
         inkscape:connector-curvature="0"
         id="path120"
         d="m 90.162057,121.78337 c 0,0 -0.296029,0.70476 -0.261874,1.4336 0.03402,0.72898 0.46112,1.51622 0.46112,1.51622 0,0 0.386116,-0.91247 0.352102,-1.6416 -0.03384,-0.72899 -0.447885,-1.11005 -0.551348,-1.30822 z" /><path
         style="fill:#097754;stroke-width:0.88556474"
         inkscape:connector-curvature="0"
         id="path122"
         d="m 88.663412,128.51249 c 0,0 0.437068,0.57204 1.109963,0.84592 0.672894,0.27372 1.675547,0.19839 1.675547,0.19839 0,0 -0.500402,-0.60549 -1.173438,-0.87936 -0.672895,-0.27373 -1.612072,-0.16524 -1.612072,-0.16524 z" /><path
         style="fill:#097754;stroke-width:0.88556474"
         inkscape:connector-curvature="0"
         id="path124"
         d="m 88.879738,129.91109 c 0,0 0.321225,0.60109 0.908584,0.81941 0.587643,0.21842 1.789542,0.0911 1.789542,0.0911 0,0 -0.461119,-0.54759 -1.048621,-0.76602 -0.587501,-0.21859 -1.649647,-0.14445 -1.649647,-0.14445 z" /><path
         style="fill:#097754;stroke-width:0.88556474"
         inkscape:connector-curvature="0"
         id="path126"
         d="m 92.262713,126.25918 c 0,0 -0.35509,0.61786 -0.320365,1.26139 0.03485,0.64379 0.45927,1.31343 0.45927,1.31343 0,0 0.298448,-0.83634 0.263581,-1.48 -0.03473,-0.64381 -0.402628,-1.0948 -0.402628,-1.0948 z" /><path
         style="fill:#097754;stroke-width:0.88556474"
         inkscape:connector-curvature="0"
         id="path128"
         d="m 93.570647,126.97448 c 0,0 -0.60757,0.86866 -0.694811,1.7147 -0.08725,0.84591 0.345553,1.66937 0.345553,1.66937 0,0 0.733952,-0.80115 0.821193,-1.64705 0.08725,-0.84619 -0.471935,-1.73673 -0.471935,-1.73673 v -2.8e-4 z" /><path
         style="fill:#097754;stroke-width:0.88556474"
         inkscape:connector-curvature="0"
         id="path130"
         d="m 91.895526,134.86331 c 0,0 0.07301,0.29505 0.326914,0.59292 0.253755,0.29816 0.688263,0.59901 0.688263,0.59901 0,0 0.419703,-0.17164 0.941453,-0.10442 0.521608,0.0675 1.215423,0.47148 1.215423,0.47148 0,0 -0.746758,-1.04918 -1.522121,-1.41472 -0.775368,-0.36524 -1.649647,-0.14444 -1.649647,-0.14444 l -1.42e-4,2e-5 z" /><path
         style="fill:#097754;stroke-width:0.88556474"
         inkscape:connector-curvature="0"
         id="path132"
         d="m 91.818674,136.78568 c 0,0 0.966785,-0.4976 1.762932,-0.46066 0.796289,0.0369 1.514155,0.60348 1.514155,0.60348 0,0 -1.076091,0.46645 -1.872238,0.42965 -0.796426,-0.0369 -1.40499,-0.57246 -1.40499,-0.57246 l 1.41e-4,-1.5e-4 v 1.5e-4 z" /><path
         style="fill:#097754;stroke-width:0.88556474"
         inkscape:connector-curvature="0"
         id="path134"
         d="m 95.904716,131.93369 c 0,0 -0.854923,0.98053 -0.926654,1.77285 -0.07159,0.79216 0.693246,1.45777 0.693246,1.45777 0,0 -0.03757,-0.50081 0.09408,-0.84423 0.131787,-0.34342 0.411732,-0.72229 0.411732,-0.72229 0,0 0.119264,-0.41505 0.07316,-0.73551 -0.06447,-0.4478 -0.345553,-0.92859 -0.345553,-0.92859 z" /><path
         style="fill:#097754;stroke-width:0.88556474"
         inkscape:connector-curvature="0"
         id="path136"
         d="m 97.131525,132.87527 c 0,0 -0.805826,0.88585 -1.018739,1.77763 -0.213054,0.89178 0.166518,1.78949 0.166518,1.78949 0,0 0.732809,-0.64222 0.945863,-1.53387 0.213056,-0.89177 -0.09378,-2.03324 -0.09378,-2.03324 z" /><path
         style="fill:#097754;stroke-width:0.88556474"
         inkscape:connector-curvature="0"
         id="path138"
         d="m 99.149642,137.96175 c 0,0 0.365047,0.73019 0.457562,1.35941 0.09279,0.62905 0.0071,0.85716 0.0071,0.85716 0,0 -0.377428,0.40406 -0.54665,0.63704 -0.217468,0.2994 -0.249349,0.8154 -0.249349,0.8154 0,0 -0.757857,-1.06031 -0.641007,-1.89415 0.1167,-0.83368 0.972616,-1.77501 0.972616,-1.77501 v 1.5e-4 z" /><path
         style="fill:#097754;stroke-width:0.88556474"
         inkscape:connector-curvature="0"
         id="path140"
         d="m 100.74647,139.58539 c 0,0 -0.970335,0.72577 -1.355317,1.41698 -0.385406,0.69081 -0.185588,1.34679 -0.185588,1.34679 0,0 0.691405,-0.1214 1.076805,-0.81235 0.38512,-0.69094 0.46396,-1.95154 0.46396,-1.95154 l 1.4e-4,-2e-5 z" /><path
         style="fill:#097754;stroke-width:0.88556474"
         inkscape:connector-curvature="0"
         id="path142"
         d="m 94.370493,142.85017 c 0,0 1.398447,-0.16049 2.253227,-0.0251 0.854781,0.13514 1.165898,0.56619 1.165898,0.56619 0,0 -0.961099,0.53411 -1.815879,0.39883 -0.85478,-0.13514 -1.603389,-0.94008 -1.603389,-0.94008 v 1.4e-4 z" /><path
         style="fill:#097754;stroke-width:0.88556474"
         inkscape:connector-curvature="0"
         id="path144"
         d="m 94.13424,141.21138 c 0,0 0.630909,0.92297 1.44655,1.20656 1.124056,0.39053 2.425579,0.0397 2.425579,0.0397 0,0 -0.707052,-0.80474 -1.679959,-1.10219 -0.97319,-0.29726 -2.19217,-0.14393 -2.19217,-0.14393 l 1.43e-4,-2e-5 -1.43e-4,2e-5 z" /><path
         style="stroke-width:0.88556474"
         inkscape:connector-curvature="0"
         id="path146-7"
         d="m 98.62305,143.43452 0.03772,0.50009 c 0.836132,-0.0654 0.960669,-0.15948 1.175003,0.0854 0.142744,0.16313 0.482327,0.28671 0.823617,0.10086 0.34157,-0.18572 0.49456,-0.60928 0.33873,-0.93708 -0.15586,-0.32779 -0.47336,-0.37416 -0.77922,-0.28705 -0.18772,0.0534 -0.311255,0.21409 -0.470506,0.31029 -0.302863,0.18333 -1.125624,0.22771 -1.125624,0.22771 l 1.42e-4,-1e-5 z m -0.07258,-0.37792 0.40689,0.26257" /><path
         style="stroke-width:0.88556474"
         inkscape:connector-curvature="0"
         id="path148"
         d="m 98.550469,143.0566 0.40689,0.26257 c -0.436495,0.75179 -0.572694,0.82518 -0.46269,1.13706 0.07332,0.20764 0.02365,0.58102 -0.289623,0.81565 -0.313101,0.23447 -0.742056,0.18461 -0.949136,-0.11023 -0.206933,-0.295 -0.101757,-0.61247 0.11144,-0.8587 0.130934,-0.15121 0.323067,-0.19336 0.4772,-0.29835 0.293467,-0.19974 0.705777,-0.94813 0.705777,-0.94813 l 1.42e-4,-1e-5 z" /><path
         style="stroke-width:0.88556474"
         inkscape:connector-curvature="0"
         id="path150"
         d="m 95.718272,137.32689 0.03757,0.50011 c 0.836277,-0.0654 0.960668,-0.15947 1.175003,0.0852 0.142603,0.16301 0.482325,0.2867 0.823611,0.10087 0.341712,-0.18574 0.494703,-0.60916 0.338586,-0.93692 -0.15585,-0.32794 -0.473228,-0.37418 -0.779068,-0.28708 -0.187866,0.0536 -0.311255,0.2141 -0.47037,0.31028 -0.303006,0.18321 -1.125622,0.22771 -1.125622,0.22771 l 1.42e-4,-10e-6 z" /><path
         style="stroke-width:0.88556474"
         inkscape:connector-curvature="0"
         id="path152"
         d="m 95.887635,137.48999 0.355801,0.32708 c -0.542096,0.68418 -0.686556,0.73653 -0.627774,1.06598 0.03929,0.21958 -0.06732,0.58585 -0.409035,0.77159 -0.341429,0.18571 -0.751311,0.0687 -0.907439,-0.2592 -0.155838,-0.32779 -0.0042,-0.62942 0.242089,-0.84251 0.151002,-0.13063 0.345127,-0.14306 0.511361,-0.22378 0.316945,-0.15396 0.834997,-0.83903 0.834997,-0.83903 l -1.42e-4,2e-5 1.42e-4,-2e-5 z" /><path
         style="stroke-width:0.88556474"
         inkscape:connector-curvature="0"
         id="path154"
         d="m 92.903158,131.61705 0.03769,0.50009 c 0.836277,-0.0654 0.960667,-0.15948 1.175145,0.0854 0.142746,0.16271 0.482183,0.28644 0.823754,0.10057 0.341286,-0.18571 0.494428,-0.60899 0.338583,-0.93721 -0.156128,-0.32776 -0.473358,-0.37402 -0.77935,-0.2869 -0.187866,0.0536 -0.311255,0.21409 -0.470514,0.31029 -0.302863,0.18333 -1.125478,0.22755 -1.125478,0.22755 v 2.7e-4 z" /><path
         style="stroke-width:0.88556474"
         inkscape:connector-curvature="0"
         id="path156"
         d="m 93.135143,131.49143 0.355659,0.32697 c -0.542097,0.68432 -0.686271,0.73663 -0.627774,1.06611 0.03929,0.21944 -0.06732,0.58571 -0.408893,0.77144 -0.341429,0.18556 -0.751453,0.0685 -0.90744,-0.2592 -0.155695,-0.32794 -0.0035,-0.62957 0.242091,-0.84252 0.151002,-0.1309 0.344985,-0.14303 0.511503,-0.22406 0.31695,-0.15398 0.834854,-0.83874 0.834854,-0.83874 v 1.4e-4 z" /><path
         style="stroke-width:0.88556474"
         inkscape:connector-curvature="0"
         id="path158"
         d="m 89.904451,125.59165 0.03757,0.49996 c 0.836278,-0.0654 0.960811,-0.15949 1.175004,0.0852 0.142888,0.16312 0.482467,0.2867 0.823753,0.10113 0.341571,-0.186 0.49457,-0.60927 0.338726,-0.93722 -0.155844,-0.32793 -0.473357,-0.3743 -0.77935,-0.28704 -0.187582,0.0536 -0.311113,0.21423 -0.470371,0.31028 -0.302857,0.1832 -1.125621,0.22771 -1.125621,0.22771 v 1.4e-4 l 1.41e-4,-10e-6 z" /><path
         style="stroke-width:0.88556474"
         inkscape:connector-curvature="0"
         id="path160"
         d="m 90.136436,125.46604 0.355522,0.32711 c -0.54196,0.68431 -0.686419,0.73651 -0.627637,1.0661 0.03929,0.21945 -0.06746,0.58573 -0.408893,0.77144 -0.34157,0.18573 -0.751453,0.0687 -0.907298,-0.25921 -0.15598,-0.32778 -0.0042,-0.62971 0.241807,-0.84249 0.151143,-0.13063 0.345126,-0.14305 0.511502,-0.22407 0.316809,-0.15382 0.834854,-0.83873 0.834854,-0.83873 v -1.4e-4 1.4e-4 l 1.43e-4,-1e-5 z" /><path
         style="fill:#f5d402;stroke-width:0.88556474"
         inkscape:connector-curvature="0"
         id="path162"
         d="m 95.187413,135.88181 c -0.299728,0.15062 -0.744336,-1.11543 -1.070823,-1.80174 -0.334879,-0.70437 -1.014892,-1.77562 -0.821763,-1.88075 0.211918,-0.11532 0.49115,0.45402 0.83386,1.17477 0.342709,0.72048 1.33953,2.36617 1.058726,2.50744 v 2.7e-4 l 1.42e-4,-1e-5 z m -3.078405,-6.60335" /><path
         style="fill:#f5d402;stroke-width:0.88556474"
         inkscape:connector-curvature="0"
         id="path164"
         d="m 92.109008,129.27846 c -0.299585,0.15102 -0.627637,-0.67478 -0.953976,-1.36125 -0.334886,-0.70423 -0.661082,-1.19387 -0.467953,-1.29901 0.212059,-0.11533 0.525164,0.50014 0.799276,1.07647 0.265572,0.55857 0.903451,1.44236 0.622511,1.58394 z" /><path
         style="fill:#f5d402;fill-opacity:1;stroke-width:0.88556474"
         inkscape:connector-curvature="0"
         id="path166"
         d="m 99.23076,144.23813 c -0.235259,0.0835 -1.262249,-1.97628 -2.09255,-3.7225 -0.83016,-1.7461 -1.448399,-3.16361 -1.255269,-3.26832 0.212054,-0.11547 0.884236,1.54381 1.71482,3.29016 0.830447,1.74636 1.809332,3.63783 1.63314,3.70064 z" /><path
         style="fill:#cc092f;stroke-width:0.88556474"
         inkscape:connector-curvature="0"
         id="path168-2"
         d="m 107.85542,95.008977 c 0,0 0.34428,-0.682091 1.21457,-0.758232 0.36377,-0.03183 1.5644,-0.162057 1.5644,-0.162057 0.15997,0.401724 0.88937,1.032579 0.88937,1.755002 0,0 -0.74036,-1.269775 -2.807,-1.088964 -0.51933,0.04543 -0.86162,0.254135 -0.86162,0.254135 l 1.4e-4,-1.4e-5 z" /><path
         style="stroke-width:0.88556474"
         inkscape:connector-curvature="0"
         id="path170"
         d="m 110.51826,94.958181 c 0,0 -0.50781,-0.118387 -0.50781,-0.288886 0,-0.217183 0.24664,-0.23876 0.39409,-0.08244 0.10148,0.107682 0.11357,0.371484 0.11357,0.371484 l 1.5e-4,-1.4e-5 z" /><path
         style="fill:#d10429;stroke-width:0.88556474"
         inkscape:connector-curvature="0"
         id="path172"
         d="m 111.21563,96.125404 c 0,0 -0.4402,0.502194 -0.53584,0.758057 -0.43565,-0.126978 -1.19536,-0.843421 -1.19536,-0.843421 0,0 0.64401,0.31967 1.73105,0.08538 l 1.5e-4,-1.1e-5 z" /><path
         style="stroke-width:0.88556474"
         inkscape:connector-curvature="0"
         id="path174-2"
         d="m 113.43156,94.716111 a 0.56979371,0.73471394 77.250055 0 1 -1.45508,0.127304 0.56979371,0.73471394 77.250055 0 1 1.45508,-0.127304 z" /><path
         style="fill:#f5d402;stroke-width:0.88556474"
         inkscape:connector-curvature="0"
         id="path176"
         d="m 113.21097,94.735412 a 0.48505291,0.52938629 43.74762 0 1 -1.01347,0.08867 0.48505291,0.52938629 43.74762 1 1 1.01347,-0.08867 z" /><path
         style="stroke-width:0.88556474"
         inkscape:connector-curvature="0"
         id="path178"
         d="m 112.91921,94.760936 a 0.20584587,0.22465999 43.74762 1 1 -0.42995,0.03762 0.20584587,0.22465999 43.74762 1 1 0.42995,-0.03762 z" /><path
         style="fill:#f5d402;stroke:#000000;stroke-width:0.40000001;stroke-miterlimit:4;stroke-dasharray:none;stroke-opacity:1"
         inkscape:connector-curvature="0"
         id="path180"
         d="m 99.511138,109.93555 c 0,0 1.238622,0.82098 1.238622,1.76415 v 22.48475 c 0,0.59235 0.18302,0.96202 0.47364,1.3136 0.29048,0.38064 0.90943,0.88751 1.55173,1.2486 1.98395,1.11487 5.30089,2.18327 7.81058,3.1054 2.09127,0.76831 2.94193,1.07773 4.02898,2.3287 1.08718,-1.44119 1.9451,-1.89995 4.03637,-3.03433 2.50926,-1.36109 5.82634,-3.01003 7.81043,-4.47206 0.64259,-0.47349 1.26154,-1.08853 1.55188,-1.52011 0.29062,-0.40244 0.46623,-0.80349 0.46623,-1.39584 v -22.48475 c 0,-0.94302 1.23863,-1.98089 1.23863,-1.98089 l -30.207092,2.64278 2.66e-4,-3e-5 z m 1.588152,0.57507 27.03078,-2.36488 c 0,0 -0.36434,0.47038 -0.36434,1.19023 v 22.48475 c 0,0.49073 -0.50922,1.6848 -3.44616,3.4051 -4.85487,2.84378 -8.58639,4.29984 -9.70474,5.77436 -1.1185,-1.27882 -4.85003,-2.08181 -9.70475,-4.07625 -2.93708,-1.20639 -3.44631,-2.31137 -3.44631,-2.80209 v -22.48475 c 0,-0.72 -0.36434,-1.12649 -0.36434,-1.12649 z" /></g><circle
       style="fill:#f5d402;stroke-width:0.13411489"
       cx="97.833351"
       cy="144.75598"
       r="0.34946489"
       id="circle1165-0" /><circle
       id="circle5221"
       r="0.34946489"
       cy="143.54504"
       cx="100.3646"
       style="fill:#f5d402;stroke-width:0.13411489" /><circle
       style="fill:#f5d402;stroke-width:0.13411489"
       cx="97.473557"
       cy="137.44759"
       r="0.34946489"
       id="circle5223" /><circle
       id="circle5225"
       r="0.34946489"
       cy="139.06248"
       cx="94.910385"
       style="fill:#f5d402;stroke-width:0.13411489" /><circle
       style="fill:#f5d402;stroke-width:0.13411489"
       cx="92.172104"
       cy="133.08983"
       r="0.34946489"
       id="circle5227" /><circle
       id="circle5229"
       r="0.34946489"
       cy="131.70702"
       cx="94.660385"
       style="fill:#f5d402;stroke-width:0.13411489" /><circle
       style="fill:#f5d402;stroke-width:0.13411489"
       cx="89.154305"
       cy="127.07243"
       r="0.34946489"
       id="circle5231" /><circle
       id="circle5233"
       r="0.34946489"
       cy="125.74432"
       cx="91.605186"
       style="fill:#f5d402;stroke-width:0.13411489" /></g><path
     inkscape:connector-curvature="0"
     d="m 181.44988,-2.91e-4 c -25.5,0 -55.7,18.8 -74,50.2 -4.9,-11.3 -22.5,-23.7 -43.4,-23.7 -16.8,0 -64,21 -64,88.900001 0,87.6 88.6,105.6 106.5,132.8 1.2,1.9 5.2,3.3 6.7,-1.2 14.3,-42.2 125.1,-89.8 125.1,-175.700001 0.1,-48.1 -31.4,-71.3 -56.9,-71.3 z m -157.2,111.400001 c 0.6,-54.300001 28.8,-71.200001 44.2,-71.200001 21.5,0 30.3,16.4 31.8,23.6 1.4,7.2 9.6,13 12.2,1.2 2.6,-11.9 27.9,-48.1 58.9,-48.1 28.4,0 38.3,29.3 37.4,54.2 -2.3,67.900001 -89.7,122.000001 -101.3,156.200001 -10.3,-20.7 -83.9,-50.7 -83.2,-115.9 z"
     id="path2778" /></g></svg>