<?xml version="1.0" encoding="utf-8"?>
<!-- Generator: Adobe Illustrator 23.0.1, SVG Export Plug-In . SVG Version: 6.00 Build 0)  -->
<svg version="1.1"
	 id="svg2" inkscape:version="0.91 r13725" sodipodi:docname="EuroMacedonia.svg" xmlns:cc="http://creativecommons.org/ns#" xmlns:dc="http://purl.org/dc/elements/1.1/" xmlns:inkscape="http://www.inkscape.org/namespaces/inkscape" xmlns:rdf="http://www.w3.org/1999/02/22-rdf-syntax-ns#" xmlns:sodipodi="http://sodipodi.sourceforge.net/DTD/sodipodi-0.dtd" xmlns:svg="http://www.w3.org/2000/svg"
	 xmlns="http://www.w3.org/2000/svg" xmlns:xlink="http://www.w3.org/1999/xlink" x="0px" y="0px" viewBox="0 0 238.4 250"
	 enable-background="new 0 0 238.4 250" xml:space="preserve">
<sodipodi:namedview  bordercolor="#666666" borderopacity="1" gridtolerance="10" guidetolerance="10" id="namedview10" inkscape:current-layer="svg2" inkscape:cx="110.6903" inkscape:cy="54.348686" inkscape:pageopacity="0" inkscape:pageshadow="2" inkscape:window-height="705" inkscape:window-maximized="1" inkscape:window-width="1366" inkscape:window-x="-8" inkscape:window-y="-8" inkscape:zoom="1.003549" objecttolerance="10" pagecolor="#ffffff" showgrid="false">
	</sodipodi:namedview>
<g>
	<path fill="#D82126" d="M208.5,61.8c-0.5-6.2-1.6-12.5-3.6-18.3c-5.1-14.9-15.6-26.7-33.6-26.7c-18.7,0-35.3,13.2-46.1,26.3
		c-7.1,8.6-11.7,17.2-12.8,21.9c-2.6,11.9-10.7,6.1-12.2-1.2c-0.5-2.4-1.8-5.8-4.1-9.3c-4.6-7-13.3-14.4-27.7-14.4
		c-10.9,0-28.4,8.6-37.8,33.2c-1.7,4.5-3.2,9.6-4.3,15.3c-1.3,6.7-2,14.3-2.1,22.7c0,3.7,0.2,7.3,0.6,10.8
		c0.7,5.7,1.9,11.1,3.7,16.3c3,9.1,7.5,17.3,12.9,24.8c2.2,3.1,4.6,6.1,7,8.9c14.1,16.4,31.4,29,43.9,39.2
		c6.8,5.6,12.2,10.5,14.7,15l0.8-0.1c2.9-7.7,9.5-16.5,18-26.2c11.5-13,26.5-27.7,40.6-43.9c2.6-3,5.2-6,7.7-9.1
		c6.7-8.3,13-16.9,18.3-25.9c3.6-6,6.7-12.2,9.3-18.5c4.1-10.2,6.7-20.8,7.1-31.8C208.8,68,208.7,64.9,208.5,61.8z"/>
	<path fill="#F8E92E" d="M109.8,91.9c-16.4,1.7-29.7,16.5-29.7,33c0,16.5,13.3,28.4,29.7,26.7c16.4-1.7,29.7-16.5,29.7-33
		C139.5,102.1,126.2,90.1,109.8,91.9z"/>
	<path fill="#F8E92E" d="M79.5,103.2L30.6,73.3c-1.7,4.5-3.2,9.6-4.3,15.3l50.2,19.9C77.4,106.7,78.4,104.9,79.5,103.2z"/>
	<path fill="#F8E92E" d="M72.6,125.6c0-1.3,0.1-2.5,0.2-3.7l-48,0.2c0.7,5.7,1.9,11.1,3.7,16.3l44.3-9.1
		C72.6,128.1,72.6,126.9,72.6,125.6z"/>
	<path fill="#F8E92E" d="M109.8,84.4c2.5-0.3,4.9-0.3,7.3-0.1l8.1-41.3c-7.1,8.6-11.7,17.2-12.8,21.9c-2.6,11.9-10.7,6.1-12.2-1.2
		c-0.5-2.4-1.8-5.8-4.1-9.3l6.4,31.4C104.8,85.2,107.3,84.7,109.8,84.4z"/>
	<path fill="#F8E92E" d="M140,96.8c1.1,1.5,2.1,3,3,4.7l65.4-39.7c-0.5-6.2-1.6-12.5-3.6-18.3L140,96.8z"/>
	<path fill="#F8E92E" d="M109.8,159c-2.5,0.3-4.9,0.3-7.3,0.1l-10.2,52.4c6.8,5.6,12.2,10.5,14.7,15l0.8-0.1
		c2.9-7.7,9.5-16.5,18-26.2l-8.7-42.7C114.7,158.3,112.3,158.8,109.8,159z"/>
	<path fill="#F8E92E" d="M146.9,117.8c0,1.3-0.1,2.5-0.2,3.7l45.5-0.2c3.6-6,6.7-12.2,9.3-18.5l-54.8,11.3
		C146.9,115.3,146.9,116.5,146.9,117.8z"/>
	<path fill="#F8E92E" d="M76.5,141.9l-35.2,21.4c2.2,3.1,4.6,6.1,7,8.9l31.2-25.6C78.4,145.1,77.4,143.6,76.5,141.9z"/>
	<path fill="#F8E92E" d="M140,140.2l26.3,16.1c2.6-3,5.2-6,7.7-9.1l-31-12.3C142.1,136.7,141.1,138.5,140,140.2z"/>
	<path d="M181.4,0c-25.5,0-55.7,18.8-74,50.2C102.5,38.9,84.9,26.5,64,26.5c-16.8,0-64,21-64,88.9C0,203,88.6,221,106.5,248.2
		c1.2,1.9,5.2,3.3,6.7-1.2c14.3-42.2,125.1-89.8,125.1-175.7C238.4,23.2,206.9,0,181.4,0z M24.2,111.4C24.8,57.1,53,40.2,68.4,40.2
		c21.5,0,30.3,16.4,31.8,23.6c1.4,7.2,9.6,13,12.2,1.2c2.6-11.9,27.9-48.1,58.9-48.1c28.4,0,38.3,29.3,37.4,54.2
		c-2.3,67.9-89.7,122-101.3,156.2C97.1,206.6,23.5,176.6,24.2,111.4z"/>
</g>
</svg>