<?xml version="1.0" encoding="utf-8"?>
<!-- Generator: Adobe Illustrator 23.0.1, SVG Export Plug-In . SVG Version: 6.00 Build 0)  -->
<svg version="1.1" id="Livello_1" xmlns="http://www.w3.org/2000/svg" xmlns:xlink="http://www.w3.org/1999/xlink" x="0px" y="0px"
	 viewBox="0 0 238.4 250" enable-background="new 0 0 238.4 250" xml:space="preserve">
<g>
	<g>
		<path fill="#BA0C2F" d="M205.2,92.3c2-6.9,3.2-14,3.5-21.2c0.9-24.9-9-54.2-37.4-54.2c-22.9,0-42.7,19.8-52.5,34.9v49.6
			L205.2,92.3z"/>
		<path fill="#BA0C2F" d="M40.1,161.5c7.7,11.3,17.3,20.9,26.9,29.3v-32.1L40.1,161.5z"/>
		<path fill="#BA0C2F" d="M118.7,208.6c13.6-17.2,36-37.7,55-61.1l-55,5.8V208.6z"/>
		<path fill="#BA0C2F" d="M67,40.2c-15.6,1-42.3,18.5-42.8,71.1l42.8-4.5V40.2z"/>
		<path fill="#FFFFFF" d="M32.9,149.3c2.1,4.3,4.5,8.3,7.2,12.2l26.9-2.8v32.1c4.4,3.8,8.7,7.4,12.9,10.7v-57.2L32.9,149.3z"/>
		<path fill="#FFFFFF" d="M200.3,105.7c1.9-4.4,3.6-8.9,4.9-13.5l-86.5,9.1V51.8c-3.5,5.3-5.7,10.1-6.4,13.2c-1.3,6-4,7.5-6.5,6.6
			v44.2L200.3,105.7z"/>
		<path fill="#FFFFFF" d="M80,42c-3.4-1.1-7.2-1.8-11.6-1.8c-0.4,0-0.9,0-1.4,0v66.6l-42.8,4.5c0,0,0,0,0,0c0,4.5,0.3,8.7,0.9,12.9
			l54.9-5.8V42z"/>
		<path fill="#FFFFFF" d="M118.7,208.6v-55.3l55-5.8c3.7-4.6,7.3-9.3,10.7-14.1l-78.7,8.3v82.1l3.2-0.3
			C111.2,218.8,114.5,213.8,118.7,208.6z"/>
		<path fill="#00205B" d="M184.5,133.3c6.2-8.8,11.7-18.1,15.8-27.6l-94.5,10V71.5c-2.5-0.9-4.9-4.1-5.6-7.7C99,58,93.1,46.5,80,42
			v76.4l-54.9,5.8c1.3,9.1,4.1,17.4,7.9,25.1l47-5v57.2c10.9,8.7,20.4,15.9,25.2,22.2l0.6-0.1v-82.1L184.5,133.3z"/>
	</g>
	<path d="M181.4,0c-25.5,0-55.7,18.8-74,50.2C102.5,38.9,84.9,26.5,64,26.5c-16.8,0-64,21-64,88.9C0,203,88.6,221,106.5,248.2
		c1.2,1.9,5.2,3.3,6.7-1.2c14.3-42.2,125.1-89.8,125.1-175.7C238.4,23.2,206.9,0,181.4,0z M24.2,111.4C24.8,57.1,53,40.2,68.4,40.2
		c21.5,0,30.3,16.4,31.8,23.6c1.4,7.2,9.6,13,12.2,1.2c2.6-11.9,27.9-48.1,58.9-48.1c28.4,0,38.3,29.3,37.4,54.2
		c-2.3,67.9-89.7,122-101.3,156.2C97.1,206.6,23.5,176.6,24.2,111.4z"/>
</g>
</svg>
