<?xml version="1.0" encoding="UTF-8" standalone="no"?>
<!-- Generator: Adobe Illustrator 23.0.1, SVG Export Plug-In . SVG Version: 6.00 Build 0)  -->

<svg
   xmlns:dc="http://purl.org/dc/elements/1.1/"
   xmlns:cc="http://creativecommons.org/ns#"
   xmlns:rdf="http://www.w3.org/1999/02/22-rdf-syntax-ns#"
   xmlns:svg="http://www.w3.org/2000/svg"
   xmlns="http://www.w3.org/2000/svg"
   xmlns:sodipodi="http://sodipodi.sourceforge.net/DTD/sodipodi-0.dtd"
   xmlns:inkscape="http://www.inkscape.org/namespaces/inkscape"
   version="1.1"
   id="Livello_1"
   x="0px"
   y="0px"
   viewBox="0 0 238.4 250"
   enable-background="new 0 0 238.4 250"
   xml:space="preserve"
   sodipodi:docname="EuroRomania.svg"
   inkscape:version="0.92.3 (2405546, 2018-03-11)"><metadata
   id="metadata2706"><rdf:RDF><cc:Work
       rdf:about=""><dc:format>image/svg+xml</dc:format><dc:type
         rdf:resource="http://purl.org/dc/dcmitype/StillImage" /></cc:Work></rdf:RDF></metadata><defs
   id="defs2704" /><sodipodi:namedview
   pagecolor="#ffffff"
   bordercolor="#666666"
   borderopacity="1"
   objecttolerance="10"
   gridtolerance="10"
   guidetolerance="10"
   inkscape:pageopacity="0"
   inkscape:pageshadow="2"
   inkscape:window-width="1920"
   inkscape:window-height="1001"
   id="namedview2702"
   showgrid="false"
   inkscape:zoom="1.888"
   inkscape:cx="132.74291"
   inkscape:cy="101.43625"
   inkscape:window-x="-9"
   inkscape:window-y="-9"
   inkscape:window-maximized="1"
   inkscape:current-layer="Livello_1" />
<g
   id="g6673"
   transform="translate(-386.14649,145.12741)"><g
     id="g6658"><path
       id="path2772-5"
       d="m 501.02136,-92.855333 c -2.6,11.899998 -9.99289,14.762058 -11.49289,7.462058 -1.1,-5.5 -9.68198,-16.730325 -21.58198,-21.630325 V 64.33655 c 12.1,9.7 22.2,11.03604 25.6,17.83604 4.7,-13.9 22,-24.30571 41,-44.40571 V -125.8165 c -19.7,10.9 -31.52513,24.16117 -33.52513,32.961167 z"
       inkscape:connector-curvature="0"
       style="fill:#ffcc11;fill-opacity:1"
       sodipodi:nodetypes="cccccccc" /><path
       id="path2774-4"
       d="M 468.94649,63.92259 V -105.1652 c -4,-1.8 -8.03709,-3.38613 -13.63709,-3.38613 -15.4,0 -51.86431,19.386482 -52.46431,73.58648 -0.5,44.4 41.1014,78.98744 66.1014,98.88744 z"
       inkscape:connector-curvature="0"
       style="fill:#003388;fill-opacity:1"
       sodipodi:nodetypes="ccscc" /><path
       id="path2776-4"
       d="m 557.44649,-134.57741 c -8.2,0 -16,2.85 -23.1,6.75 v 169.15 c 27.7,-29.3 66.2,-75.05 67.5,-115.450001 0.9,-24.9 -15.9,-60.449999 -44.4,-60.449999 z"
       inkscape:connector-curvature="0"
       style="fill:#cc1122;fill-opacity:1"
       sodipodi:nodetypes="scccs" /><circle
       style="fill:#f5d402;stroke-width:0.13411489"
       cx="483.92996"
       cy="-0.37113854"
       r="0.34946489"
       id="circle1165-0" /><circle
       id="circle5221"
       r="0.34946489"
       cy="-1.5820761"
       cx="486.46121"
       style="fill:#f5d402;stroke-width:0.13411489" /><circle
       style="fill:#f5d402;stroke-width:0.13411489"
       cx="483.57016"
       cy="-7.679534"
       r="0.34946489"
       id="circle5223" /><circle
       id="circle5225"
       r="0.34946489"
       cy="-6.0646353"
       cx="481.00699"
       style="fill:#f5d402;stroke-width:0.13411489" /><circle
       style="fill:#f5d402;stroke-width:0.13411489"
       cx="478.26871"
       cy="-12.037292"
       r="0.34946489"
       id="circle5227" /><circle
       id="circle5229"
       r="0.34946489"
       cy="-13.420104"
       cx="480.75699"
       style="fill:#f5d402;stroke-width:0.13411489" /><circle
       style="fill:#f5d402;stroke-width:0.13411489"
       cx="475.25092"
       cy="-18.054686"
       r="0.34946489"
       id="circle5231" /><circle
       id="circle5233"
       r="0.34946489"
       cy="-19.382795"
       cx="477.70178"
       style="fill:#f5d402;stroke-width:0.13411489" /></g><path
     inkscape:connector-curvature="0"
     d="m 567.54649,-145.12741 c -25.5,0 -55.7,18.8 -74,50.199999 -4.9,-11.299999 -22.5,-23.699999 -43.4,-23.699999 -16.8,0 -64,20.999999 -64,88.9 0,87.6 88.6,105.6 106.5,132.8 1.2,1.9 5.2,3.3 6.7,-1.2 14.3,-42.2 125.1,-89.8 125.1,-175.700001 0.1,-48.099999 -31.4,-71.299999 -56.9,-71.299999 z m -157.2,111.4 c 0.6,-54.300001 28.8,-71.2 44.2,-71.2 21.5,0 30.3,16.399999 31.8,23.599999 1.4,7.2 9.6,13 12.2,1.2 2.6,-11.9 27.9,-48.099999 58.9,-48.099999 28.4,0 38.3,29.299999 37.4,54.199999 -2.3,67.900001 -89.7,122.000001 -101.3,156.200001 -10.3,-20.7 -83.9,-50.7 -83.2,-115.9 z"
     id="path2778-8" /></g>
</svg>