<?xml version="1.0" encoding="utf-8"?>
<!-- Generator: Adobe Illustrator 23.0.1, SVG Export Plug-In . SVG Version: 6.00 Build 0)  -->
<svg version="1.1"
	 id="svg2" inkscape:version="0.48.5 r10040" sodipodi:docname="EuroSuecia.svg" xmlns:cc="http://creativecommons.org/ns#" xmlns:dc="http://purl.org/dc/elements/1.1/" xmlns:inkscape="http://www.inkscape.org/namespaces/inkscape" xmlns:rdf="http://www.w3.org/1999/02/22-rdf-syntax-ns#" xmlns:sodipodi="http://sodipodi.sourceforge.net/DTD/sodipodi-0.dtd" xmlns:svg="http://www.w3.org/2000/svg"
	 xmlns="http://www.w3.org/2000/svg" xmlns:xlink="http://www.w3.org/1999/xlink" x="0px" y="0px" viewBox="0 0 238.4 250"
	 enable-background="new 0 0 238.4 250" xml:space="preserve">
<sodipodi:namedview  bordercolor="#666666" borderopacity="1" gridtolerance="10" guidetolerance="10" id="namedview10" inkscape:current-layer="svg2" inkscape:cx="123.44705" inkscape:cy="152.28782" inkscape:pageopacity="0" inkscape:pageshadow="2" inkscape:window-height="706" inkscape:window-maximized="1" inkscape:window-width="1024" inkscape:window-x="-8" inkscape:window-y="-8" inkscape:zoom="1.6398134" objecttolerance="10" pagecolor="#ffffff" showgrid="false">
	</sodipodi:namedview>
<g>
	<g>
		<path fill="#FFCC01" d="M82.4,42.9v63.6l-58.2,6.6c0.1,13.5,3.4,25.5,8.7,36.2l49.5-5.6v59.8c11.8,9.5,21.7,17.1,25,23.7
			c2-5.9,6.3-12.5,12-19.6v-67.9l65.6-7.2c8.7-12.4,15.8-25.6,19.9-39.3l-85.5,9.4V50.7c-3.9,5.8-6.3,10.9-7.1,14.2
			c-2.6,11.9-10.7,6.1-12.2-1.2C99.1,58.4,93.9,47.9,82.4,42.9z"/>
		<path fill="#006AA7" d="M204.9,93.2c2.2-7.2,3.5-14.6,3.7-22.2c0.9-24.9-9-54.2-37.4-54.2c-22.4,0-41.8,18.9-51.8,33.9v51.9
			L204.9,93.2z"/>
		<path fill="#006AA7" d="M32.9,149.3c11.6,23.5,32.5,40.7,49.5,54.2v-59.8L32.9,149.3z"/>
		<path fill="#006AA7" d="M119.4,207.7c16.6-20.5,45.2-45.8,65.6-75.1l-65.6,7.2V207.7z"/>
		<path fill="#006AA7" d="M82.4,42.9c-3.9-1.7-8.5-2.8-14-2.8c-15.4,0-43.6,17-44.2,71.2c0,0.6,0,1.2,0,1.7l58.2-6.6V42.9z"/>
	</g>
	<path d="M181.4,0c-25.5,0-55.7,18.8-74,50.2C102.5,38.9,84.9,26.5,64,26.5c-16.8,0-64,21-64,88.9C0,203,88.6,221,106.5,248.2
		c1.2,1.9,5.2,3.3,6.7-1.2c14.3-42.2,125.1-89.8,125.1-175.7C238.4,23.2,206.9,0,181.4,0z M24.2,111.4C24.8,57.1,53,40.2,68.4,40.2
		c21.5,0,30.3,16.4,31.8,23.6c1.4,7.2,9.6,13,12.2,1.2c2.6-11.9,27.9-48.1,58.9-48.1c28.4,0,38.3,29.3,37.4,54.2
		c-2.3,67.9-89.7,122-101.3,156.2C97.1,206.6,23.5,176.6,24.2,111.4z"/>
</g>
</svg>
