<?xml version="1.0" encoding="utf-8"?>
<!-- Generator: Adobe Illustrator 23.0.1, SVG Export Plug-In . SVG Version: 6.00 Build 0)  -->
<svg version="1.1"
	 id="svg26" xmlns:cc="http://creativecommons.org/ns#" xmlns:dc="http://purl.org/dc/elements/1.1/" xmlns:inkscape="http://www.inkscape.org/namespaces/inkscape" xmlns:rdf="http://www.w3.org/1999/02/22-rdf-syntax-ns#" xmlns:sodipodi="http://sodipodi.sourceforge.net/DTD/sodipodi-0.dtd" xmlns:svg="http://www.w3.org/2000/svg"
	 xmlns="http://www.w3.org/2000/svg" xmlns:xlink="http://www.w3.org/1999/xlink" x="0px" y="0px" viewBox="0 0 238.4 250"
	 enable-background="new 0 0 238.4 250" xml:space="preserve">
<g>
	<path d="M181.4,0c-25.5,0-55.7,18.8-74,50.2C102.5,38.9,84.9,26.5,64,26.5c-16.8,0-64,21-64,88.9C0,203,88.6,221,106.5,248.2
		c1.2,1.9,5.2,3.3,6.7-1.2c14.3-42.2,125.1-89.8,125.1-175.7C238.4,23.2,206.9,0,181.4,0z M24.2,111.4C24.8,57.1,53,40.2,68.4,40.2
		c21.5,0,30.3,16.4,31.8,23.6c1.4,7.2,9.6,13,12.2,1.2c2.6-11.9,27.9-48.1,58.9-48.1c28.4,0,38.3,29.3,37.4,54.2
		c-2.3,67.9-89.7,122-101.3,156.2C97.1,206.6,23.5,176.6,24.2,111.4z"/>
	<path fill="#FF0000" d="M107.4,227.3c6.5-19.4,37.6-45.3,63.6-76.5L41.4,163.4C63.7,194.6,100.4,213.1,107.4,227.3z"/>
	<path fill="#FFFFFF" d="M171.2,16.8c-31,0-56.3,36.3-58.9,48.1c-2.6,11.9-10.7,6.1-12.2-1.2c-1.4-7.3-10.3-23.6-31.8-23.6
		c-13.5,0-36.9,13.1-42.8,53l182.8-18c0.1-1.4,0.2-2.7,0.3-4.1C209.5,46.1,199.7,16.8,171.2,16.8z"/>
	<g>
		<g>
			<path fill="#005CE5" d="M25.6,93.2c-0.8,5.5-1.3,11.6-1.4,18.2c-0.2,20.6,7,37.7,17.2,52L171,150.8c18.8-22.6,35-47.9,37.4-75.6
				L25.6,93.2z"/>
		</g>
	</g>
	<path fill="#E20613" d="M70.9,69c0.2,0,0.3,0,0.5,0C71.2,68.9,71.1,69,70.9,69z"/>
	<path fill="#E20613" d="M73.7,68.9c0.2,0,0.4,0,0.6,0C74.1,68.8,73.9,68.9,73.7,68.9z"/>
	<path fill="#E20613" d="M72.3,68.9c0.2,0,0.4,0,0.6,0C72.6,68.9,72.5,68.9,72.3,68.9z"/>
	<path fill="#E20613" d="M76.6,68.9c0.2,0,0.3,0,0.5,0C77,68.9,76.8,68.9,76.6,68.9z"/>
	<path fill="#E20613" d="M75.1,68.8c0.2,0,0.4,0,0.6,0C75.5,68.8,75.3,68.8,75.1,68.8z"/>
	<path fill="#FF0000" d="M89.3,70.9c0.3,0.2,0.6,0.3,0.9,0.5c-0.5,6.6-1.9,27.6-2.1,30.1C86.2,118,72.1,127.6,68.3,128
		c-3.8,0.4-17.9-6.2-19.8-22.3c-0.2-2.5-1.5-23.2-2-29.7c0.3-0.2,0.6-0.5,0.9-0.7c-1,0.5-2,1.1-2.9,1.7c0.4,4.8,1.3,17.5,1.8,24.7
		c0.2,2.6,0.3,4.4,0.4,5.1c2.4,16.5,17.8,23.3,21.7,22.9c3.8-0.4,19.3-10.5,21.7-27.4c0.1-0.6,0.2-2.6,0.4-5.2
		c0.5-7.4,1.4-20.2,1.8-25.1C91.2,71.6,90.3,71.2,89.3,70.9z"/>
	<path fill="#E20613" d="M63.7,69.8c0.2,0,0.4-0.1,0.6-0.1C64.1,69.8,63.9,69.8,63.7,69.8z"/>
	<path fill="#E20613" d="M66.6,69.4c0.1,0,0.3,0,0.4-0.1C66.8,69.3,66.7,69.4,66.6,69.4z"/>
	<path fill="#E20613" d="M69.6,69.1c0.1,0,0.3,0,0.4,0C69.9,69,69.7,69.1,69.6,69.1z"/>
	<path fill="#E20613" d="M84.4,69.6c0.2,0,0.4,0.1,0.6,0.1C84.8,69.7,84.6,69.7,84.4,69.6z"/>
	<path fill="#E20613" d="M85.9,70c0.2,0,0.4,0.1,0.6,0.1C86.3,70,86.1,70,85.9,70z"/>
	<path fill="#E20613" d="M87.4,70.3c0.2,0,0.3,0.1,0.5,0.1C87.7,70.4,87.6,70.4,87.4,70.3z"/>
	<path fill="#E20613" d="M80,69.1c0.2,0,0.3,0,0.5,0C80.4,69.1,80.2,69.1,80,69.1z"/>
	<path fill="#E20613" d="M82.9,69.4c0.2,0,0.4,0.1,0.6,0.1C83.3,69.5,83.1,69.4,82.9,69.4z"/>
	<path fill="#E20613" d="M78.6,68.9C78.6,68.9,78.6,68.9,78.6,68.9C78.6,68.9,78.6,68.9,78.6,68.9z"/>
	<path fill="#E20613" d="M81.5,69.2c0.2,0,0.4,0.1,0.6,0.1C81.9,69.3,81.7,69.2,81.5,69.2z"/>
	<path fill="#E20613" d="M65.1,69.6c0.2,0,0.3-0.1,0.5-0.1C65.5,69.5,65.3,69.6,65.1,69.6z"/>
	<path fill="#E20613" d="M54.5,72.2c0.2-0.1,0.4-0.1,0.6-0.2C54.9,72,54.7,72.1,54.5,72.2z"/>
	<path fill="#E20613" d="M56,71.7c0.2-0.1,0.3-0.1,0.5-0.2C56.4,71.6,56.2,71.6,56,71.7z"/>
	<path fill="#E20613" d="M53,72.7c0.2-0.1,0.4-0.2,0.6-0.2C53.4,72.6,53.2,72.6,53,72.7z"/>
	<path fill="#E20613" d="M57.9,71.1c0,0,0.1,0,0.1,0C57.9,71.1,57.9,71.1,57.9,71.1z"/>
	<path fill="#E20613" d="M48.7,74.6c0.1-0.1,0.3-0.1,0.4-0.2C49,74.4,48.8,74.5,48.7,74.6z"/>
	<path fill="#E20613" d="M59.4,70.7c0.2,0,0.3-0.1,0.5-0.1C59.8,70.7,59.6,70.7,59.4,70.7z"/>
	<path fill="#E20613" d="M51.5,73.3c0.2-0.1,0.4-0.2,0.6-0.2C51.9,73.1,51.7,73.2,51.5,73.3z"/>
	<path fill="#E20613" d="M50.1,73.9c0.2-0.1,0.4-0.2,0.6-0.2C50.5,73.8,50.3,73.8,50.1,73.9z"/>
	<path fill="#E20613" d="M62.3,70.1c0.2,0,0.4-0.1,0.6-0.1C62.7,70,62.5,70.1,62.3,70.1z"/>
	<path fill="#E20613" d="M60.9,70.4c0.2,0,0.4-0.1,0.6-0.1C61.2,70.3,61.1,70.4,60.9,70.4z"/>
	<path fill="#005CE5" d="M48.5,105.7c1.9,16.1,15.9,22.7,19.8,22.3c3.8-0.4,17.9-10,19.8-26.5c0.2-2.5,1.5-23.6,2.1-30.1
		c-0.3-0.2-0.6-0.3-0.9-0.5l0,0c-0.5-0.2-0.9-0.3-1.4-0.4c-0.2,0-0.3-0.1-0.5-0.1c-0.3-0.1-0.6-0.2-1-0.2c-0.2,0-0.4-0.1-0.6-0.1
		c-0.3-0.1-0.6-0.1-0.9-0.2c-0.2,0-0.4-0.1-0.6-0.1c-0.3-0.1-0.6-0.1-0.9-0.2c-0.2,0-0.4-0.1-0.6-0.1c-0.3,0-0.6-0.1-0.9-0.1
		c-0.2,0-0.4-0.1-0.6-0.1c-0.3,0-0.6-0.1-1-0.1c-0.2,0-0.3,0-0.5,0c-0.5,0-0.9-0.1-1.4-0.1c0,0-0.1,0-0.1,0c-0.5,0-1-0.1-1.4-0.1
		c-0.2,0-0.3,0-0.5,0c-0.3,0-0.6,0-1,0c-0.2,0-0.4,0-0.6,0c-0.3,0-0.6,0-0.9,0c-0.2,0-0.4,0-0.6,0c-0.3,0-0.6,0-0.8,0
		c-0.2,0-0.4,0-0.6,0c-0.3,0-0.6,0-0.9,0c-0.2,0-0.3,0-0.5,0c-0.3,0-0.6,0-0.9,0.1c-0.1,0-0.3,0-0.4,0c-0.4,0-0.9,0.1-1.3,0.1
		c-0.4,0.1-0.9,0.1-1.3,0.2c-0.1,0-0.3,0-0.4,0.1c-0.3,0-0.6,0.1-0.9,0.1c-0.2,0-0.3,0.1-0.5,0.1c-0.3,0-0.6,0.1-0.9,0.1
		c-0.2,0-0.4,0.1-0.6,0.1c-0.3,0.1-0.6,0.1-0.8,0.2c-0.2,0-0.4,0.1-0.6,0.1c-0.3,0.1-0.6,0.1-0.9,0.2c-0.2,0-0.4,0.1-0.6,0.1
		c-0.3,0.1-0.6,0.1-1,0.2c-0.2,0-0.3,0.1-0.5,0.1c-0.5,0.1-1,0.2-1.4,0.4c0,0-0.1,0-0.1,0c-0.4,0.1-0.9,0.3-1.3,0.4
		c-0.2,0-0.3,0.1-0.5,0.2c-0.3,0.1-0.6,0.2-1,0.3c-0.2,0.1-0.4,0.1-0.6,0.2c-0.3,0.1-0.6,0.2-0.9,0.3c-0.2,0.1-0.4,0.1-0.6,0.2
		c-0.3,0.1-0.6,0.2-0.9,0.3c-0.2,0.1-0.4,0.2-0.6,0.2c-0.3,0.1-0.6,0.3-0.9,0.4c-0.2,0.1-0.4,0.2-0.6,0.2c-0.3,0.1-0.7,0.3-1,0.5
		c-0.1,0.1-0.3,0.1-0.4,0.2c-0.5,0.2-0.9,0.5-1.4,0.7h0c-0.3,0.2-0.6,0.4-0.9,0.7C47,82.5,48.3,103.2,48.5,105.7z M68.3,126.2
		c-2.3,0.2-8-2.3-12.3-7.3c2.4-0.6,2.7-2.3,5.7-2.6c3.3-0.3,3.4,1.6,6.6,1.4c3.2-0.4,3.3-2.4,6.6-2.8c3-0.3,3.3,1.3,5.7,1.4
		C76.2,122.3,70.6,126,68.3,126.2z M81.7,114.6C81.7,114.6,81.7,114.6,81.7,114.6c-3.4,0.4-3.4-1.7-6.8-1.4
		c-3.3,0.4-3.4,2.4-6.6,2.8c-3.2,0.3-3.3-1.7-6.6-1.4c-3.4,0.4-3.4,2.5-6.8,2.8c0,0-0.1,0-0.1,0c-0.4-0.5-0.8-1.1-1.1-1.6
		c0.4,0,0.7,0,1.2,0c3.4-0.4,3.4-2.4,6.8-2.8c3.3-0.4,3.4,1.6,6.6,1.4c3.2-0.4,3.3-2.4,6.6-2.8c3.4-0.4,3.4,1.7,6.8,1.4
		c0.4,0,0.8-0.1,1.1-0.2C82.4,113.4,82.1,114,81.7,114.6z M76.7,72.1l-0.9,1.2l0.9,1l-1.4-0.1l-0.5,1.4l-0.5-1.3l-1.4,0.4l0.9-1.2
		l-0.9-1l1.4,0.1l0.5-1.4l0.5,1.3L76.7,72.1z M68.7,82.1l1.4-0.4l-0.9,1.2l0.9,1l-1.4-0.1L68.3,85l-0.5-1.3l-1.4,0.4l0.9-1.2l-0.9-1
		l1.4,0.1l0.5-1.4L68.7,82.1z M59.8,74l1.4,0.1l0.5-1.4l0.5,1.3l1.4-0.4l-0.9,1.2l0.9,1l-1.4-0.1L61.7,77l-0.5-1.3l-1.4,0.4l0.9-1.2
		L59.8,74z M63,99.8c0,0.2,5.4-11.3,5.4-11.3c0.1-0.2,4.2,9.3,5.1,10.2c1-1,3.4-5.2,3.6-5.1c1.3,1.7,8.7,11.1,8.7,10.9
		c-0.4,2.2-1.1,4.2-2,6.1c-0.6,0.3-1.2,0.5-2.2,0.6c-3.4,0.4-3.4-1.7-6.8-1.4c-3.3,0.4-3.4,2.4-6.6,2.8c-3.2,0.3-3.3-1.7-6.6-1.4
		c-3.4,0.4-3.4,2.4-6.8,2.8c-1,0.1-1.7,0-2.3-0.2c-0.9-1.7-1.5-3.6-2-5.6c0,0,7.5-10.9,8.8-12.7C59.6,95.5,63,100,63,99.8z"/>
	<path fill="#FFFFFF" d="M68.3,117.7c-3.2,0.2-3.3-1.7-6.6-1.4c-3,0.3-3.3,2-5.7,2.6c4.4,5.1,10,7.6,12.3,7.3
		c2.3-0.2,7.9-4,12.3-9.9c-2.3-0.2-2.7-1.7-5.7-1.4C71.5,115.2,71.5,117.2,68.3,117.7z"/>
	<path fill="#FFFFFF" d="M74.9,111.6c-3.3,0.3-3.4,2.4-6.6,2.8c-3.2,0.2-3.3-1.7-6.6-1.4c-3.4,0.4-3.4,2.4-6.8,2.8
		c-0.5,0-0.9,0.1-1.2,0c0.4,0.6,0.7,1.1,1.1,1.6c0,0,0.1,0,0.1,0c3.4-0.4,3.4-2.4,6.8-2.8c3.3-0.3,3.4,1.6,6.6,1.4
		c3.2-0.4,3.3-2.4,6.6-2.8c3.4-0.4,3.4,1.7,6.8,1.4c0,0,0,0,0,0c0.4-0.6,0.7-1.2,1.1-1.8c-0.3,0.1-0.7,0.2-1.1,0.2
		C78.3,113.4,78.3,111.3,74.9,111.6z"/>
	<path fill="#FFFFFF" d="M50.7,108.4c0.4,2,1.1,3.9,2,5.6c0.6,0.2,1.3,0.3,2.3,0.2c3.4-0.4,3.4-2.4,6.8-2.8c3.3-0.4,3.4,1.6,6.6,1.4
		c3.2-0.4,3.3-2.4,6.6-2.8c3.4-0.4,3.4,1.7,6.8,1.4c0.9-0.1,1.6-0.3,2.2-0.6c0.9-1.9,1.6-4,2-6.1c0,0.1-7.5-9.2-8.7-10.9
		c-0.2-0.1-2.6,4.1-3.6,5.1c-1-0.9-5-10.4-5.1-10.2c0,0-5.4,11.5-5.4,11.3c0,0.1-3.4-4.3-3.6-4.2C58.1,97.4,50.7,108.4,50.7,108.4z"
		/>
	<polygon fill="#FFE500" points="67.8,82.2 66.4,82 67.4,83 66.4,84.2 67.8,83.7 68.3,85 68.7,83.6 70.1,83.8 69.2,82.8 70.1,81.6 
		68.7,82.1 68.3,80.8 	"/>
	<polygon fill="#FFE500" points="61.2,75.7 61.7,77 62.1,75.6 63.5,75.7 62.6,74.7 63.5,73.6 62.1,74 61.7,72.7 61.2,74.1 59.8,74 
		60.8,74.9 59.8,76.1 	"/>
	<polygon fill="#FFE500" points="74.4,72.6 73.1,72.5 74,73.4 73.1,74.6 74.4,74.2 74.9,75.5 75.3,74.1 76.7,74.2 75.8,73.3 
		76.7,72.1 75.3,72.5 74.9,71.2 	"/>
</g>
</svg>
