<?xml version="1.0" encoding="utf-8"?>
<!-- Generator: Adobe Illustrator 23.0.1, SVG Export Plug-In . SVG Version: 6.00 Build 0)  -->
<svg version="1.1" id="Livello_1" xmlns="http://www.w3.org/2000/svg" xmlns:xlink="http://www.w3.org/1999/xlink" x="0px" y="0px"
	 viewBox="0 0 238.4 250" enable-background="new 0 0 238.4 250" xml:space="preserve">
<g>
	<path fill="#EE2222" d="M107.4,227.3c6.5-19.4,37.6-45.3,63.6-76.5L41.4,163.4C63.7,194.6,100.4,213.1,107.4,227.3z"/>
	<path fill="#FFFFFF" d="M171.2,16.8c-31,0-56.3,36.3-58.9,48.1c-2.6,11.9-10.7,6.1-12.2-1.2c-1.4-7.3-10.3-23.6-31.8-23.6
		c-13.5,0-36.9,13.1-42.8,53l182.8-18c0.1-1.4,0.2-2.7,0.3-4.1C209.5,46.1,199.7,16.8,171.2,16.8z"/>
	<path fill="#115599" d="M25.6,93.2c-0.8,5.5-1.3,11.6-1.4,18.2c-0.2,20.6,7,37.7,17.2,52L171,150.8c18.8-22.6,35-47.9,37.4-75.6
		L25.6,93.2z"/>
	<g>
		<path fill="#EE2222" d="M121.2,75.8l-35.9,3.8l-35.9,3.8c0,0-4.9,37.7,2.1,58.8c10.9,26.9,33.8,31.3,33.8,31.3s22.9-9.2,33.8-38.4
			C126,112.4,121.2,75.8,121.2,75.8z"/>
		<path fill="#1155CC" d="M112.8,148.1c-0.1-2.8-1.1-7.2-5.1-8.8c-7.3-2.2-11.1,3.4-11.1,3.4s-2.3-9.2-11.3-7.7
			c-9,0.4-11.3,10.1-11.3,10.1s-3.8-4.9-11.1-1.1c-4.1,2.5-5,7.1-5.1,9.9c11.6,16.5,27.5,19.6,27.5,19.6S101.2,167.1,112.8,148.1z"
			/>
		<path fill="#FFFFFF" d="M81.3,123.2v12.7c1.1-0.5,2.4-0.8,3.9-0.9c1.5-0.2,2.8-0.2,3.9,0v-12.7c0,0,9.6-1.8,18.8-0.5
			c-1.9-4-0.9-7.3,0-11.3c-6.1,2.5-18.8,3.7-18.8,3.7V105c0,0,7-0.7,14.8,0.1c-2.3-4.9,0-11.5,0-11.5s-6.4,2.5-14.8,3.4
			c-0.3-4.3,1.6-14.4,1.6-14.4s-3.9,1.5-5.5,1.6c-1.6,0.2-5.5-0.5-5.5-0.5s1.9,9.7,1.6,14.1c-8.5,0.8-14.8-0.3-14.8-0.3
			s2.3,6.2,0,11.5c7.8-2.5,14.8-3.3,14.8-3.3v9.2c0,0-12.7,1.5-18.8,0.3c0.9,3.9,1.9,6.9,0,11.3C71.8,123.4,81.3,123.2,81.3,123.2z"
			/>
		<path fill="#FFFFFF" d="M123,75.4l-0.2-1.6l-75,7.9l-0.2,1.7c-0.2,1.6-4.9,38.3,2.1,59.6l0,0.1c5.8,14.3,15,22.3,21.6,26.5
			c7.3,4.6,13.1,5.7,13.4,5.8l0.5,0.1l0.5-0.2c0.2-0.1,6.1-2.5,13.4-8.6c6.7-5.6,15.8-15.5,21.6-31.1l0-0.1
			C127.9,112.7,123.2,76.9,123,75.4z M119.1,135c-10.9,29.2-33.8,38.4-33.8,38.4s-22.9-4.4-33.8-31.3c-6.9-21.1-2.1-58.8-2.1-58.8
			l35.9-3.8l35.9-3.8C121.2,75.8,126,112.4,119.1,135z"/>
	</g>
	<path d="M181.4,0c-25.5,0-55.7,18.8-74,50.2C102.5,38.9,84.9,26.5,64,26.5c-16.8,0-64,21-64,88.9C0,203,88.6,221,106.5,248.2
		c1.2,1.9,5.2,3.3,6.7-1.2c14.3-42.2,125.1-89.8,125.1-175.7C238.4,23.2,206.9,0,181.4,0z M24.2,111.4C24.8,57.1,53,40.2,68.4,40.2
		c21.5,0,30.3,16.4,31.8,23.6c1.4,7.2,9.6,13,12.2,1.2c2.6-11.9,27.9-48.1,58.9-48.1c28.4,0,38.3,29.3,37.4,54.2
		c-2.3,67.9-89.7,122-101.3,156.2C97.1,206.6,23.5,176.6,24.2,111.4z"/>
</g>
</svg>
