<?xml version="1.0" encoding="utf-8"?>
<!-- Generator: Adobe Illustrator 23.0.1, SVG Export Plug-In . SVG Version: 6.00 Build 0)  -->
<svg version="1.1" id="Livello_1" xmlns="http://www.w3.org/2000/svg" xmlns:xlink="http://www.w3.org/1999/xlink" x="0px" y="0px"
	 viewBox="0 0 238.4 250" enable-background="new 0 0 238.4 250" xml:space="preserve">
<g>
	<g>
		<path fill="#DD1111" d="M107.4,227.3c11.5-34.2,98.9-88.4,101.3-156.2c0.9-24.9-9-54.2-37.4-54.2c-31,0-56.3,36.3-58.9,48.1
			c-2.6,11.9-10.7,6.1-12.2-1.2c-1.4-7.3-10.3-23.6-31.8-23.6c-15.4,0-43.6,17-44.2,71.2C23.5,176.6,97.1,206.6,107.4,227.3z"/>
		<polygon fill="#FFFFFF" points="129.6,127.7 129.8,140.1 137.3,129.4 149.1,131.8 142.1,122.4 149.1,111.4 137.3,116.3 
			129.8,107.2 129.6,119.6 117.9,124.9 		"/>
		<path fill="#FFFFFF" d="M90.9,162.4c12.3-1.3,23.1-8.9,29.2-19.2c-5.1,6.2-12.4,10.5-20.5,11.4c-15.2,1.6-27.6-9.5-27.6-24.8
			c0-15.3,12.4-29,27.6-30.6c8.2-0.9,15.5,1.9,20.5,7c-6.1-9-16.9-14.3-29.2-13.1c-19.1,2-34.5,19.1-34.5,38.3
			C56.4,150.5,71.8,164.4,90.9,162.4z"/>
	</g>
	<path d="M181.4,0c-25.5,0-55.7,18.8-74,50.2C102.5,38.9,84.9,26.5,64,26.5c-16.8,0-64,21-64,88.9C0,203,88.6,221,106.5,248.2
		c1.2,1.9,5.2,3.3,6.7-1.2c14.3-42.2,125.1-89.8,125.1-175.7C238.4,23.2,206.9,0,181.4,0z M24.2,111.4C24.8,57.1,53,40.2,68.4,40.2
		c21.5,0,30.3,16.4,31.8,23.6c1.4,7.2,9.6,13,12.2,1.2c2.6-11.9,27.9-48.1,58.9-48.1c28.4,0,38.3,29.3,37.4,54.2
		c-2.3,67.9-89.7,122-101.3,156.2C97.1,206.6,23.5,176.6,24.2,111.4z"/>
</g>
</svg>
